SplineFontDB: 3.0
FontName: Corben
FullName: Corben
FamilyName: Corben
Weight: Bold
Copyright: Copyright (c) 2010 by vernon adams. All rights reserved.
Version: 1.000
ItalicAngle: 0
UnderlinePosition: -103
UnderlineWidth: 102
Ascent: 1638
Descent: 410
sfntRevision: 0x00010000
LayerCount: 2
Layer: 0 0 "Back"  1
Layer: 1 0 "Fore"  0
NeedsXUIDChange: 1
XUID: [1021 208 2069950124 10916714]
FSType: 4
OS2Version: 2
OS2_WeightWidthSlopeOnly: 0
OS2_UseTypoMetrics: 1
CreationTime: 1292423813
ModificationTime: 1313881224
PfmFamily: 17
TTFWeight: 700
TTFWidth: 5
LineGap: 0
VLineGap: 0
Panose: 2 0 5 5 2 0 0 2 0 4
OS2TypoAscent: 662
OS2TypoAOffset: 1
OS2TypoDescent: -530
OS2TypoDOffset: 1
OS2TypoLinegap: 0
OS2WinAscent: -499
OS2WinAOffset: 1
OS2WinDescent: -64
OS2WinDOffset: 1
HheadAscent: -499
HheadAOffset: 1
HheadDescent: 64
HheadDOffset: 1
OS2SubXSize: 1434
OS2SubYSize: 1331
OS2SubXOff: 0
OS2SubYOff: 287
OS2SupXSize: 1434
OS2SupYSize: 1331
OS2SupXOff: 0
OS2SupYOff: 977
OS2StrikeYSize: 102
OS2StrikeYPos: 512
OS2Vendor: '    '
OS2CodePages: 00000093.00000000
OS2UnicodeRanges: a00002af.4000004a.00000000.00000000
Lookup: 1 0 0 "'aalt' Access All Alternates in Latin lookup 0"  {"'aalt' Access All Alternates in Latin lookup 0 subtable"  } ['aalt' ('latn' <'dflt' > ) ]
Lookup: 1 0 0 "'smcp' Lowercase to Small Capitals in Latin lookup 1"  {"'smcp' Lowercase to Small Capitals in Latin lookup 1 subtable"  } ['smcp' ('latn' <'dflt' > ) ]
Lookup: 1 0 0 "'onum' Oldstyle Figures in Latin lookup 2"  {"'onum' Oldstyle Figures in Latin lookup 2 subtable" ("oldstyle" ) } ['onum' ('latn' <'dflt' > ) ]
Lookup: 4 0 1 "'liga' Standard Ligatures in Latin lookup 3"  {"'liga' Standard Ligatures in Latin lookup 3 subtable"  } ['liga' ('latn' <'dflt' > ) ]
Lookup: 258 0 0 "'kern' Horizontal Kerning in Latin lookup 0"  {"'kern' Horizontal Kerning in Latin lookup 0 per glyph data 0"  "'kern' Horizontal Kerning in Latin lookup 0 kerning class 1"  } ['kern' ('latn' <'dflt' > ) ]
MarkAttachClasses: 1

StartChar: exclam
Encoding: 33 33 4
Width: 768
GlyphClass: 2
Flags: HMW
LayerCount: 2
Fore
SplineSet
681.735351562 241.163085938 m 0
 681.735351562 58.712890625 514.022460938 -20 343.374023438 -20 c 0
 180.999023438 -20 30 54.99609375 30 213.471679688 c 0
 30 394.227539062 200.516601562 475 369.395507812 475 c 0
 533.831054688 475 681.735351562 401.434570312 681.735351562 241.163085938 c 0
103.655273438 1381.03027344 m 0
 103.655273438 1585.7265625 233.63671875 1663 433.845703125 1663 c 0
 624.555664062 1663 744.555664062 1597.41894531 744.555664062 1420.890625 c 0
 744.555664062 1220.83398438 666.897460938 1024.0859375 624.529296875 858 c 128
 585.693359375 705.759765625 554.12109375 567 376.232421875 567 c 0
 233.622070312 567 103.655273438 1147.83398438 103.655273438 1381.03027344 c 0
EndSplineSet
EndChar

StartChar: numbersign
Encoding: 35 35 6
Width: 2038
GlyphClass: 2
Flags: HMW
LayerCount: 2
Fore
SplineSet
1814.16699219 1695.83105469 m 0
 1814.16699219 1551.44238281 1762.57128906 1445.66699219 1727.37597656 1294 c 1
 1867.55566406 1294 2016.60253906 1285.11230469 2016.60253906 1151.046875 c 0
 2016.60253906 1026.58496094 1871.96582031 1023.99121094 1749.31445312 1023.99121094 c 0
 1742.85742188 1023.99121094 1736.47167969 1024 1730.18359375 1024 c 2
 1664.18359375 1024 l 1
 1583.30957031 684 l 1
 1727.93261719 684 1888.58398438 679.997070312 1888.58398438 541.888671875 c 0
 1888.58398438 416.927734375 1742.54589844 413.987304688 1618.77636719 413.987304688 c 0
 1611.45410156 413.987304688 1604.22265625 414 1597.1171875 414 c 2
 1522.1171875 414 l 1
 1434.71875 45 l 2
 1412.4921875 -48.4873046875 1348.28808594 -123 1235.88769531 -123 c 0
 1092.80273438 -123 991.02734375 -50.0615234375 991.02734375 81.998046875 c 0
 991.02734375 86.59375 988.306640625 91.833984375 989.352539062 96.462890625 c 2
 1061.1171875 414 l 1
 754.1171875 414 l 1
 666.71875 45 l 2
 644.4921875 -48.4873046875 580.288085938 -123 467.887695312 -123 c 0
 324.802734375 -123 223.02734375 -50.0615234375 223.02734375 81.998046875 c 0
 223.02734375 86.59375 220.306640625 91.833984375 221.352539062 96.462890625 c 2
 293.1171875 414 l 1
 279.1171875 414 l 2
 139.427734375 414 29 423.96484375 29 557.265625 c 0
 29 678.796875 146.450195312 684 262.309570312 684 c 2
 356.309570312 684 l 1
 385.454101562 804.806640625 407.764648438 901.049804688 436.18359375 1024 c 1
 411.18359375 1024 l 2
 281.024414062 1024 158.556640625 1036.45410156 158.556640625 1159.19726562 c 0
 158.556640625 1162.54882812 158.647460938 1165.98242188 158.83203125 1169.5 c 130
 158.83203125 1180 l 1
 164.551757812 1288.80273438 282.877929688 1294 392.375976562 1294 c 2
 499.375976562 1294 l 1
 599.0859375 1726 l 2
 620.526367188 1821.30175781 685.825195312 1894 798.916992188 1894 c 0
 939.416992188 1894 1046.16699219 1825.39648438 1046.16699219 1695.83105469 c 0
 1046.16699219 1551.44238281 994.571289062 1445.66699219 959.375976562 1294 c 1
 1267.37597656 1294 l 1
 1367.0859375 1726 l 2
 1388.52636719 1821.30175781 1453.82519531 1894 1566.91699219 1894 c 0
 1707.41699219 1894 1814.16699219 1825.39648438 1814.16699219 1695.83105469 c 0
1204.18359375 1024 m 1
 896.18359375 1024 l 1
 815.309570312 684 l 1
 1124.30957031 684 l 1
 1204.18359375 1024 l 1
EndSplineSet
EndChar

StartChar: dollar
Encoding: 36 36 7
Width: 1535
GlyphClass: 2
Flags: HMW
LayerCount: 2
Fore
SplineSet
811.63671875 1613.38671875 m 1
 835.91015625 1792 l 1
 838.754882812 1846.09863281 866.587890625 1875.59082031 893.41015625 1875.59082031 c 0
 919.631835938 1875.59082031 944.88671875 1847.40722656 944.88671875 1786.47851562 c 0
 944.88671875 1777.31445312 937.23828125 1714.34863281 924.7109375 1617 c 1
 1134.125 1617 1468.109375 1504.11816406 1468.109375 1253.03125 c 0
 1468.109375 1106.60253906 1335.71289062 1039.31640625 1216.05664062 1039.31640625 c 0
 1117.40722656 1039.31640625 1027.41796875 1085.05078125 1027.41796875 1169.87695312 c 0
 1027.41796875 1253.21582031 1091.00097656 1237.0390625 1091.00097656 1300.21582031 c 0
 1091.00097656 1315.83300781 996.889648438 1345.19921875 890.459960938 1357.5078125 c 1
 876.54296875 1253.23535156 860.921875 1137.2421875 844.795898438 1018.07128906 c 1
 1112.765625 917.686523438 1498.25 847.774414062 1498.25 500.297851562 c 0
 1498.25 82.96484375 1128.36328125 -18 728.762695312 -18 c 0
 720.4296875 -18 712.077148438 -17.9404296875 703.709960938 -17.8193359375 c 1
 680.10546875 -201.365234375 634.848632812 -265.788085938 602.846679688 -265.788085938 c 0
 586.782226562 -265.788085938 558.624023438 -248.357421875 562.024414062 -223.333984375 c 2
 590.705078125 -12.291015625 l 1
 301.870117188 12.3369140625 30 120.965820312 30 396.166992188 c 0
 30 528.297851562 107.098632812 554 230.985351562 554 c 0
 372.549804688 554 429.8515625 512.287109375 429.8515625 372.217773438 c 0
 429.8515625 329.735351562 524.03125 287.375976562 629.231445312 271.192382812 c 1
 669.379882812 566.6171875 l 1
 428.633789062 656.489257812 96.1142578125 758.31640625 96.1142578125 1074.61914062 c 0
 96.1142578125 1422.28320312 416.239257812 1587.58789062 811.63671875 1613.38671875 c 1
777.586914062 1362.83789062 m 1
 677.72265625 1359.58203125 592.62890625 1331.14257812 592.62890625 1251.03417969 c 0
 592.62890625 1165.65722656 650.53515625 1109.50976562 737.063476562 1064.65820312 c 1
 777.586914062 1362.83789062 l 1
742.23828125 265.047851562 m 1
 835.326171875 270.321289062 913.032226562 304.859375 913.032226562 388.1875 c 0
 913.032226562 445.526367188 858.436523438 485.9609375 777.471679688 522.96484375 c 1
 764.655273438 429.046875 752.670898438 341.365234375 742.23828125 265.047851562 c 1
EndSplineSet
EndChar

StartChar: percent
Encoding: 37 37 8
Width: 3297
GlyphClass: 2
Flags: HMW
LayerCount: 2
Fore
SplineSet
2136.25488281 1929 m 0
 2266.33789062 1929 2369.8828125 1857.41699219 2369.8828125 1737.27441406 c 0
 2369.8828125 1686.69726562 2350.80761719 1648.65917969 2330.80175781 1616 c 0
 2043.06054688 1129.15332031 1732.82324219 623.5703125 1442.57910156 137.5 c 128
 1387.69726562 45.587890625 1342.28027344 -53 1204.06542969 -53 c 0
 1082.18359375 -53 975.245117188 28.134765625 975.245117188 136.303710938 c 0
 975.245117188 185.88671875 993.814453125 226.004882812 1013.4140625 258 c 0
 1312.37011719 768.250976562 1637.12792969 1291.95605469 1938.57910156 1802 c 0
 1975.74902344 1866.72070312 2038.40722656 1929 2136.25488281 1929 c 0
38 1178.14941406 m 0
 38 1644.26660156 342.20703125 1929 781.254882812 1929 c 0
 1160.43652344 1929 1414.25390625 1711.02441406 1414.25390625 1341.92382812 c 0
 1414.25390625 874.186523438 1109.26855469 579 669.2890625 579 c 0
 284.252929688 579 38 803.109375 38 1178.14941406 c 0
581.669921875 1236.52050781 m 0
 581.669921875 1086.98828125 603.401367188 788 731.275390625 788 c 0
 856.822265625 788 868.9921875 1140.7265625 868.9921875 1286.75683594 c 0
 868.9921875 1434.56054688 845.584960938 1722 718.373046875 1722 c 0
 589.50390625 1722 581.669921875 1384.33300781 581.669921875 1236.52050781 c 0
1881.09765625 476.146484375 m 0
 1881.09765625 942.265625 2185.30273438 1227 2624.35253906 1227 c 0
 3003.53417969 1227 3257.3515625 1009.02441406 3257.3515625 639.923828125 c 0
 3257.3515625 172.186523438 2952.36523438 -123 2512.38574219 -123 c 0
 2127.35058594 -123 1881.09765625 101.108398438 1881.09765625 476.146484375 c 0
2424.76660156 534.517578125 m 0
 2424.76660156 384.985351562 2446.49902344 86 2574.37304688 86 c 0
 2699.91992188 86 2712.08984375 438.724609375 2712.08984375 584.75390625 c 0
 2712.08984375 732.55859375 2688.68164062 1020 2561.47070312 1020 c 0
 2432.60058594 1020 2424.76660156 682.330078125 2424.76660156 534.517578125 c 0
EndSplineSet
EndChar

StartChar: ampersand
Encoding: 38 38 9
Width: 2207
GlyphClass: 2
Flags: HMW
LayerCount: 2
Fore
SplineSet
1217.41308594 1434.13183594 m 0
 1217.41308594 1391.3515625 1194.25390625 1358 1152.64941406 1358 c 0
 1088.67871094 1358 1038.671875 1413 962.541015625 1413 c 0
 858.915039062 1413 799.044921875 1277.31933594 799.044921875 1168.80371094 c 0
 799.044921875 1097.40527344 831.046875 1047.50292969 891.407226562 1030 c 0
 917.189453125 1022.52441406 933.127929688 1001.63378906 933.127929688 970.125 c 0
 933.127929688 902.680664062 888.610351562 854 825.155273438 854 c 0
 731.779296875 854 707.518554688 700.198242188 707.518554688 600.157226562 c 0
 707.518554688 395.833007812 829.372070312 197 1030.61914062 197 c 0
 1242.88964844 197 1363.41894531 318.643554688 1363.41894531 537.518554688 c 0
 1363.41894531 663.610351562 1343.98144531 744.650390625 1321.46972656 849 c 1
 1214.92773438 849 1207.46289062 825.084960938 1162.74414062 763 c 1
 1045.68554688 857 l 1
 1113.94824219 1125.68261719 1241.94921875 1292 1549.33496094 1292 c 0
 1879.9296875 1292 1913.77929688 1295.41894531 2074.38085938 1448 c 1
 2188.43945312 1354 l 1
 2127.09375 1113.0390625 2006.64648438 960.984375 1800.73535156 876 c 1
 1849.87207031 753.3515625 1874.44042969 612.475585938 1874.44042969 513.37109375 c 0
 1874.44042969 81.6845703125 1347.50878906 -49 916.686523438 -49 c 256
 487.584960938 -49 37 84.5888671875 37 493.642578125 c 0
 37 724.92578125 157.360351562 886.404296875 283.461914062 993 c 1
 208.346679688 1042.74804688 149.272460938 1118.90332031 149.272460938 1228.52050781 c 0
 149.272460938 1535.29101562 487.44140625 1665 795.788085938 1665 c 0
 969.633789062 1665 1217.41308594 1601.70410156 1217.41308594 1434.13183594 c 0
EndSplineSet
EndChar

StartChar: quotesingle
Encoding: 39 39 10
Width: 657
GlyphClass: 2
Flags: HMW
LayerCount: 2
Fore
SplineSet
49 1394.85351562 m 0
 49 1589.22167969 154.756835938 1663 344.068359375 1663 c 0
 514.858398438 1663 622.139648438 1604.00683594 622.139648438 1445.6953125 c 0
 622.139648438 1273.57128906 555.049804688 1096.88085938 516.560546875 959 c 128
 480.331054688 829.208007812 451.73828125 743 295.706054688 743 c 0
 151.875976562 743 137.76953125 839.04296875 116.086914062 959.5 c 128
 93.54296875 1084.75097656 49 1242.64550781 49 1394.85351562 c 0
EndSplineSet
EndChar

StartChar: parenleft
Encoding: 40 40 11
Width: 1076
GlyphClass: 2
Flags: HMW
LayerCount: 2
Fore
SplineSet
982.290039062 33.5244140625 m 0
 982.290039062 -64.9091796875 919.00390625 -117 822.653320312 -117 c 2
 805.153320312 -117 l 130
 345.872070312 -117 42 282.439453125 42 733.045898438 c 0
 42 1299.3046875 391.916992188 1654.71582031 882.010742188 1716 c 0
 888.747070312 1717.33300781 895.282226562 1718 901.615234375 1718 c 130
 919.115234375 1718 l 2
 1008.42089844 1718 1064.08691406 1673.1875 1064.08691406 1589.42480469 c 0
 1064.08691406 1524.69335938 1033.79199219 1464.53417969 988.817382812 1446 c 0
 751.405273438 1348.16113281 605.391601562 1085.29296875 605.391601562 743.854492188 c 0
 605.391601562 461.8515625 718.87890625 240.475585938 920.951171875 155 c 0
 959.869140625 139.098632812 982.290039062 88.1962890625 982.290039062 33.5244140625 c 0
EndSplineSet
EndChar

StartChar: parenright
Encoding: 41 41 12
Width: 1079
GlyphClass: 2
Flags: HMW
LayerCount: 2
Fore
SplineSet
99.794921875 1568.1796875 m 0
 99.794921875 1666.23535156 163.366210938 1718 259.38671875 1718 c 2
 276.88671875 1718 l 130
 283.219726562 1718 289.3515625 1717.33300781 295.282226562 1716 c 0
 745.854492188 1658.90625 1039.72949219 1350.15332031 1039.72949219 863.086914062 c 0
 1039.72949219 299.505859375 686.67578125 -54.0205078125 199.029296875 -115 c 0
 192.959960938 -116.333007812 186.7578125 -117 180.424804688 -117 c 130
 162.924804688 -117 l 2
 73.1318359375 -117 18 -71.8984375 18 12.33984375 c 0
 18 76.80078125 48.0625 137.307617188 93.22265625 155 c 0
 331.319335938 251.42578125 476.6953125 517.66796875 476.6953125 857.940429688 c 0
 476.6953125 1140.36523438 362.259765625 1358.48730469 161.088867188 1446 c 0
 121.927734375 1462 99.794921875 1513.15722656 99.794921875 1568.1796875 c 0
EndSplineSet
EndChar

StartChar: asterisk
Encoding: 42 42 13
Width: 2026
GlyphClass: 2
Flags: HMW
LayerCount: 2
Fore
SplineSet
1727.95507812 272.123046875 m 0
 1727.95507812 118.059570312 1519.96972656 -39 1369.86621094 -39 c 0
 1155.27246094 -39 1077.00683594 330.540039062 1029.96289062 505 c 128
 1024.38085938 525.702148438 1002.39941406 604.5 997.260742188 604.5 c 0
 967.565429688 604.5 806.776367188 201.333984375 782.1171875 156 c 0
 734.813476562 69.0380859375 670.142578125 -39 544.866210938 -39 c 0
 401.672851562 -39 220.458007812 109.516601562 220.458007812 253.15625 c 0
 220.458007812 354.52734375 299.34375 430.264648438 361.201171875 481 c 0
 480.046875 576.372070312 601.36328125 683.202148438 714.997070312 781.5 c 128
 726.172851562 791.166992188 731.77734375 796.333007812 731.8125 797 c 0
 487.861328125 816.865234375 33 801.666992188 33 1060.90820312 c 0
 33 1237.24316406 146.500976562 1432 300.193359375 1432 c 0
 353.484375 1432 405.999023438 1409.42382812 450.01171875 1390.5 c 128
 594.491210938 1328.38085938 710.596679688 1257.18359375 839.47265625 1171 c 1
 818.212890625 1341.5703125 768.240234375 1517.19628906 768.240234375 1694.48925781 c 0
 768.240234375 1893.69824219 869.559570312 1970 1063.47460938 1970 c 256
 1227.68066406 1970 1334.921875 1911.08496094 1334.921875 1759.06445312 c 0
 1334.921875 1558.37109375 1247.46875 1358.11523438 1204.47265625 1171 c 1
 1341.56054688 1257.39160156 1464.32519531 1328.99121094 1615.51171875 1390.5 c 128
 1662.67480469 1409.6875 1716.53417969 1432 1771.19335938 1432 c 0
 1916.92871094 1432 2000.95605469 1259.79492188 2000.95605469 1097.30175781 c 0
 2000.95605469 796.654296875 1533.7578125 818.356445312 1272.8125 797 c 0
 1272.77734375 796.333007812 1277.83886719 791.166992188 1287.99707031 781.5 c 128
 1390.39453125 684.060546875 1502.39550781 575.485351562 1610.20117188 481 c 0
 1663.95703125 432.75 1727.95507812 362.604492188 1727.95507812 272.123046875 c 0
EndSplineSet
EndChar

StartChar: plus
Encoding: 43 43 14
Width: 1319
GlyphClass: 2
Flags: HMW
LayerCount: 2
Fore
SplineSet
1283.72753906 740.948242188 m 0
 1283.72753906 644.779296875 1241.77929688 610 1152.19628906 610 c 2
 810.196289062 610 l 1
 791.797851562 260 l 2
 786.728515625 163.573242188 725.8828125 104 625.596679688 104 c 256
 542.73046875 104 467.736328125 144.692382812 471.301757812 212.521484375 c 2
 492.196289062 610 l 1
 155.196289062 610 l 2
 75.33984375 610 35 637.395507812 35 714.234375 c 0
 35 809.916992188 78.5205078125 846 167.602539062 846 c 2
 504.602539062 846 l 1
 523.000976562 1196 l 2
 528.250976562 1295.875 588.1015625 1352 691.202148438 1352 c 256
 774.85546875 1352 847.197265625 1313.87402344 843.666992188 1246.72265625 c 2
 822.602539062 846 l 1
 1164.60253906 846 l 2
 1245.76464844 846 1283.72753906 818.376953125 1283.72753906 740.948242188 c 0
EndSplineSet
EndChar

StartChar: comma
Encoding: 44 44 15
Width: 740
GlyphClass: 2
Flags: HMW
LayerCount: 2
Fore
SplineSet
687.61328125 168.251953125 m 0
 687.61328125 -124.013671875 480.086914062 -371 198.971679688 -371 c 0
 167.6875 -371 138.850585938 -347.360351562 138.850585938 -317.456054688 c 0
 138.850585938 -261.569335938 185.78125 -237.208984375 217.829101562 -212 c 128
 269.697265625 -171.201171875 296.94921875 -105.090820312 301.948242188 -10 c 1
 157.500976562 -10 45 57.9365234375 45 193.620117188 c 0
 45 374.200195312 208.250976562 475 385.443359375 475 c 0
 581.596679688 475 687.61328125 355.278320312 687.61328125 168.251953125 c 0
EndSplineSet
EndChar

StartChar: hyphen
Encoding: 45 45 16
Width: 1251
GlyphClass: 2
Flags: HMW
LayerCount: 2
Fore
SplineSet
1206.76074219 631.704101562 m 0
 1206.76074219 512.1015625 1139.94433594 446 1029.37792969 446 c 2
 203.377929688 446 l 2
 103.317382812 446 43 503.224609375 43 603.262695312 c 0
 43 720.673828125 113.052734375 788 221.356445312 788 c 2
 1047.35644531 788 l 2
 1148.94433594 788 1206.76074219 732.609375 1206.76074219 631.704101562 c 0
EndSplineSet
EndChar

StartChar: period
Encoding: 46 46 17
Width: 751
GlyphClass: 2
Flags: HMW
LayerCount: 2
Fore
SplineSet
699.735351562 241.163085938 m 0
 699.735351562 58.712890625 532.022460938 -20 361.374023438 -20 c 0
 198.999023438 -20 48 54.99609375 48 213.471679688 c 0
 48 394.227539062 218.516601562 475 387.395507812 475 c 0
 551.831054688 475 699.735351562 401.434570312 699.735351562 241.163085938 c 0
EndSplineSet
EndChar

StartChar: slash
Encoding: 47 47 18
Width: 1083
GlyphClass: 2
Flags: HMW
LayerCount: 2
Fore
SplineSet
242.1640625 -123 m 0
 117.41015625 -123 21 -59.0498046875 21 58.3544921875 c 0
 21 90.9931640625 28.1416015625 117.219726562 37.146484375 143 c 0
 230.721679688 697.1171875 437.716796875 1272.828125 627.776367188 1829 c 0
 658.916992188 1920.12304688 726.063476562 1997 845.608398438 1997 c 0
 975.154296875 1997 1071 1939.98144531 1071 1820.28417969 c 0
 1071 1786.04492188 1062.27441406 1757.18359375 1053.625 1731 c 0
 865.668945312 1175.37988281 655.354492188 599.849609375 462.995117188 45 c 0
 431.649414062 -44.8544921875 359.60546875 -123 242.1640625 -123 c 0
EndSplineSet
EndChar

StartChar: zero
Encoding: 48 48 19
Width: 1626
GlyphClass: 2
Flags: HMW
LayerCount: 2
Fore
SplineSet
43 700.392578125 m 0
 43 1246.08984375 362.004882812 1618 877.638671875 1618 c 0
 1320.50097656 1618 1586.8046875 1341.00976562 1586.8046875 907.76953125 c 0
 1586.8046875 356.802734375 1266.6484375 -25 746.26953125 -25 c 0
 297.493164062 -25 43 263.366210938 43 700.392578125 c 0
976.00390625 852.05078125 m 0
 976.00390625 1021.44433594 952.576171875 1366 809.391601562 1366 c 0
 658.42578125 1366 652.19140625 931.01953125 652.19140625 757.963867188 c 0
 652.19140625 587.23046875 673.81640625 229 817.622070312 229 c 0
 966.891601562 229 976.00390625 680.782226562 976.00390625 852.05078125 c 0
EndSplineSet
Substitution2: "'onum' Oldstyle Figures in Latin lookup 2 subtable" zero.old
Substitution2: "'aalt' Access All Alternates in Latin lookup 0 subtable" zero.old
EndChar

StartChar: one
Encoding: 49 49 20
Width: 1052
GlyphClass: 2
Flags: HMW
LayerCount: 2
Fore
SplineSet
231.905273438 1064.67285156 m 1
 231.905273438 1190.38378906 81.7578125 1149.14355469 81.7578125 1231.17480469 c 0
 81.7578125 1511.65039062 528.943359375 1591 804.57421875 1591 c 0
 892.338867188 1591 931.3515625 1540.29492188 927.389648438 1467.94238281 c 2
 869.452148438 409.845703125 l 1
 869.452148438 281.376953125 1022.4453125 323.1796875 1022.4453125 239.749023438 c 0
 1022.4453125 29.8583984375 747.317382812 0 507.938476562 0 c 0
 289.109375 0 29 20.9365234375 29 223.059570312 c 0
 29 332.551757812 190.116210938 269.6796875 198.016601562 420 c 2
 231.905273438 1064.67285156 l 1
EndSplineSet
Substitution2: "'onum' Oldstyle Figures in Latin lookup 2 subtable" one.old
Substitution2: "'aalt' Access All Alternates in Latin lookup 0 subtable" one.old
EndChar

StartChar: two
Encoding: 50 50 21
Width: 1239
GlyphClass: 2
Flags: HMW
LayerCount: 2
Fore
SplineSet
1198.06738281 350.11328125 m 0
 1198.06738281 172.157226562 1108.94824219 0 937.875 0 c 2
 155.875 0 l 2
 73.7275390625 0 27 51.85546875 27 130.223632812 c 0
 27 168.727539062 38.513671875 201.859375 54.7021484375 225 c 0
 234.086914062 499.889648438 469.05078125 768.849609375 601.4375 1085.5 c 128
 623.227539062 1137.62109375 634.72265625 1177.01855469 634.72265625 1218.99023438 c 0
 634.72265625 1311.97558594 554.431640625 1339 441.263671875 1339 c 0
 332.841796875 1339 241.479492188 1312.52441406 168.846679688 1274 c 0
 158.98828125 1268.77148438 148.98828125 1264 136.321289062 1264 c 0
 101.241210938 1264 78.9326171875 1312.39257812 78.9326171875 1349.40429688 c 0
 78.9326171875 1365.19824219 85.134765625 1375.5390625 92.62890625 1384 c 0
 221.85546875 1523.31738281 433.280273438 1618 688.9296875 1618 c 0
 974.42578125 1618 1183.40527344 1492.16796875 1183.40527344 1222.63964844 c 0
 1183.40527344 783.25390625 786.96484375 493.557617188 495.5390625 317 c 1
 731.974609375 317 954.233398438 328.654296875 1061.63574219 452 c 128
 1068.02148438 459.333007812 1075.88085938 463 1085.21386719 463 c 0
 1152.71972656 463 1198.06738281 417.484375 1198.06738281 350.11328125 c 0
EndSplineSet
Substitution2: "'onum' Oldstyle Figures in Latin lookup 2 subtable" two.old
Substitution2: "'aalt' Access All Alternates in Latin lookup 0 subtable" two.old
EndChar

StartChar: three
Encoding: 51 51 22
Width: 1266
GlyphClass: 2
Flags: HMW
LayerCount: 2
Fore
SplineSet
1231.00390625 483.84375 m 0
 1231.00390625 156.930664062 946.483398438 -23 626.056640625 -23 c 0
 365.083984375 -23 159.345703125 70.85546875 44.462890625 213 c 0
 37.9501953125 221.059570312 34 228.047851562 34 240.541992188 c 0
 34 281.015625 63.734375 336 101.9296875 336 c 0
 115.262695312 336 126.122070312 333.333007812 134.508789062 328 c 0
 203.61328125 288.598632812 314.293945312 258 423.829101562 258 c 0
 572.004882812 258 686.307617188 350.083984375 686.307617188 501.635742188 c 0
 686.307617188 613.887695312 605.5703125 688 489.43359375 688 c 0
 462.067382812 688 421.015625 670 394.487304688 670 c 0
 349.256835938 670 317.612304688 719.305664062 317.612304688 764.924804688 c 0
 317.612304688 803.497070312 337.458007812 821.717773438 364.423828125 840 c 0
 459.18359375 904.24609375 570.017578125 990.400390625 570.017578125 1143.13574219 c 0
 570.017578125 1256.69921875 490.044921875 1327 373.024414062 1327 c 0
 275.37890625 1327 200.725585938 1285.75 131.29296875 1237 c 0
 120.0234375 1229.08789062 108.913085938 1227 93.767578125 1227 c 0
 57.5908203125 1227 44.109375 1254.23242188 44.109375 1287.26464844 c 0
 44.109375 1515.359375 388.848632812 1620 616.426757812 1620 c 0
 861.993164062 1620 1093.44335938 1522.95214844 1093.44335938 1287.54980469 c 0
 1093.44335938 1086.5703125 971.000976562 988.899414062 828.944335938 926 c 1
 1039.18066406 869.272460938 1231.00390625 735.213867188 1231.00390625 483.84375 c 0
EndSplineSet
Substitution2: "'onum' Oldstyle Figures in Latin lookup 2 subtable" three.old
Substitution2: "'aalt' Access All Alternates in Latin lookup 0 subtable" three.old
EndChar

StartChar: four
Encoding: 52 52 23
Width: 1545
GlyphClass: 2
Flags: HMW
LayerCount: 2
Fore
SplineSet
1227.87011719 377.564453125 m 0
 1227.87011719 259.23046875 1368.18457031 296.978515625 1368.18457031 220.608398438 c 0
 1368.18457031 44.78515625 1098.1328125 0 922.680664062 0 c 256
 745.408203125 0 507.83984375 42.2255859375 507.83984375 207.643554688 c 0
 507.83984375 305.029296875 657.9453125 252.35546875 665.024414062 387 c 1
 665.024414062 424 l 1
 247.541992188 424 l 2
 137.237304688 424 36 433.91796875 36 534.616210938 c 0
 36 655.151367188 58.533203125 743.045898438 111.313476562 811 c 2
 729.735351562 1618 l 1
 1017.51757812 1618 1295.13964844 1604.73242188 1281.15332031 1356.26855469 c 2
 1248.26269531 772 l 1
 1256.26269531 772 l 2
 1419.67871094 772 1511.33886719 767.846679688 1511.33886719 613.43359375 c 0
 1511.33886719 428.997070312 1413.08789062 424 1237.96875 424 c 2
 1229.96875 424 l 1
 1229.96875 391 l 2
 1229.72558594 386.37890625 1227.87011719 381.901367188 1227.87011719 377.564453125 c 0
708.865234375 1221 m 1
 597.735351562 1076.83984375 489.32421875 919.798828125 386.262695312 772 c 1
 685.262695312 772 l 1
 708.865234375 1221 l 1
EndSplineSet
Substitution2: "'onum' Oldstyle Figures in Latin lookup 2 subtable" four.old
Substitution2: "'aalt' Access All Alternates in Latin lookup 0 subtable" four.old
EndChar

StartChar: five
Encoding: 53 53 24
Width: 1320
GlyphClass: 2
Flags: HMW
LayerCount: 2
Fore
SplineSet
1306.38769531 1622.11328125 m 0
 1306.38769531 1444.15722656 1217.26757812 1272 1046.19433594 1272 c 2
 495.194335938 1272 l 1
 442.048828125 1079 l 1
 458.786132812 1080.33300781 475.154296875 1081 491.154296875 1081 c 130
 538.154296875 1081 l 2
 921.918945312 1081 1217.87988281 901.502929688 1217.87988281 541.774414062 c 0
 1217.87988281 169.1015625 961.704101562 -23 609.118164062 -23 c 0
 349.268554688 -23 159.91015625 74.43359375 40.419921875 211 c 0
 32.384765625 220.18359375 27 229.03125 27 240.151367188 c 0
 27 277.999023438 58.767578125 332 93.7802734375 332 c 0
 108.596679688 332 117.185546875 327.68359375 128.254882812 322 c 0
 200.396484375 282.022460938 300.573242188 256 412.786132812 256 c 0
 556.487304688 256 693.637695312 340.846679688 693.637695312 487.817382812 c 0
 693.637695312 701.415039062 404.692382812 765.573242188 184.541015625 784 c 1
 403.068359375 1593 l 1
 604.068359375 1593 l 2
 840.510742188 1593 1059.30371094 1603.93652344 1168.98144531 1724.5 c 128
 1175.34960938 1731.5 1183.53320312 1735 1193.53320312 1735 c 0
 1261.0390625 1735 1306.38769531 1689.484375 1306.38769531 1622.11328125 c 0
EndSplineSet
Substitution2: "'onum' Oldstyle Figures in Latin lookup 2 subtable" five.old
Substitution2: "'aalt' Access All Alternates in Latin lookup 0 subtable" five.old
EndChar

StartChar: six
Encoding: 54 54 25
Width: 1568
GlyphClass: 2
Flags: HMW
LayerCount: 2
Fore
SplineSet
757.133789062 242 m 256
 886.501953125 242 926.955078125 385.120117188 926.955078125 521.487304688 c 0
 926.955078125 649.256835938 889.294921875 815 775.256835938 815 c 0
 748.678710938 815 707.91015625 821.061523438 677.290039062 821.061523438 c 0
 653.87109375 821.061523438 636.387695312 817.515625 635.73046875 805 c 0
 631.530273438 725.107421875 621.729492188 622.815429688 621.729492188 527.39453125 c 0
 621.729492188 376.055664062 657.073242188 242 757.133789062 242 c 256
1529.12597656 601.21875 m 0
 1529.12597656 175.1875 1175.66210938 -25 762.098632812 -25 c 0
 334.73046875 -25 40 192.969726562 40 597.439453125 c 0
 40 806.696289062 111.420898438 972.922851562 200.7109375 1109 c 128
 407.186523438 1423.66796875 769.7734375 1642 1273.72949219 1642 c 0
 1338.41894531 1642 1380.04101562 1599.6484375 1380.04101562 1537.52050781 c 0
 1380.04101562 1396.47851562 1230.04003906 1399.22949219 1121.22070312 1366 c 128
 927.668945312 1306.89648438 754.7265625 1209.85644531 683.926757812 1018 c 1
 781.796875 1066.22753906 885.8046875 1100 1013.23730469 1100 c 0
 1321.62988281 1100 1529.12597656 897.51953125 1529.12597656 601.21875 c 0
EndSplineSet
Substitution2: "'onum' Oldstyle Figures in Latin lookup 2 subtable" six.old
Substitution2: "'aalt' Access All Alternates in Latin lookup 0 subtable" six.old
EndChar

StartChar: seven
Encoding: 55 55 26
Width: 1304
GlyphClass: 2
Flags: HMW
LayerCount: 2
Fore
SplineSet
27 1241.14257812 m 0
 27 1418.96777344 116.234375 1591 287.186523438 1591 c 2
 1042.18652344 1591 l 2
 1187.23925781 1591 1286.07324219 1566.30078125 1286.07324219 1443.03125 c 0
 1286.07324219 1333.41113281 1242.95410156 1254.83691406 1207.10742188 1171 c 2
 689.340820312 -23 l 2
 641.20703125 -134.032226562 623.354492188 -203 466.879882812 -203 c 0
 325.903320312 -203 149.334960938 -123.37890625 149.334960938 10.8544921875 c 0
 149.334960938 33.8115234375 153.965820312 51.134765625 164.334960938 72 c 2
 767.627929688 1276 l 1
 728.522460938 1276 l 2
 492.219726562 1276 270.758789062 1262.265625 163.42578125 1139 c 128
 157.040039062 1131.66699219 149.180664062 1128 139.84765625 1128 c 0
 72.79296875 1128 27 1174.39550781 27 1241.14257812 c 0
EndSplineSet
Substitution2: "'onum' Oldstyle Figures in Latin lookup 2 subtable" seven.old
Substitution2: "'aalt' Access All Alternates in Latin lookup 0 subtable" seven.old
EndChar

StartChar: eight
Encoding: 56 56 27
Width: 1474
GlyphClass: 2
Flags: HMW
LayerCount: 2
Fore
SplineSet
538.176757812 611.881835938 m 1
 538.176757812 611.881835938 424.844726562 508.712890625 424.844726562 419.921875 c 0
 424.844726562 322.094726562 521.900390625 266 627.595703125 266 c 0
 746.03515625 266 882.084960938 314.592773438 882.084960938 428.967773438 c 0
 882.084960938 521.333984375 674.653320312 551.881835938 538.176757812 611.881835938 c 1
881.452273614 1040.94642959 m 0
 883.833544029 1040.34601068 999.853515625 1163.37612432 999.853515625 1253.13964844 c 0
 999.853515625 1334.98828125 910.315429688 1370 810.629882812 1370 c 0
 701.209960938 1370 604.513671875 1357.03222656 604.513671875 1250.32910156 c 0
 604.513671875 1169.55753076 683.15152156 1090.94642959 881.452273614 1040.94642959 c 0
1327.15820312 1246.5703125 m 0
 1327.15820312 1098.22363281 1245.53320312 990.70703125 1162.68652344 916.100585938 c 1
 1315.94335938 830.021484375 1437.86230469 707.107421875 1437.86230469 495.251953125 c 0
 1437.86230469 83.2587890625 1061.56542969 -23 662.40234375 -23 c 0
 353.303710938 -23 32 102.139648438 32 396.927734375 c 0
 32 577.055664062 153.705078125 672.875 275.294921875 736.80078125 c 1
 171.326171875 816.138671875 101.6875 928.098632812 101.6875 1105.29980469 c 0
 101.6875 1466.97167969 433.35546875 1618 778.666992188 1618 c 0
 1049.92382812 1618 1327.15820312 1504.73828125 1327.15820312 1246.5703125 c 0
EndSplineSet
Substitution2: "'onum' Oldstyle Figures in Latin lookup 2 subtable" eight.old
Substitution2: "'aalt' Access All Alternates in Latin lookup 0 subtable" eight.old
EndChar

StartChar: nine
Encoding: 57 57 28
Width: 1559
GlyphClass: 2
Flags: HMW
LayerCount: 2
Fore
SplineSet
808.045898438 1352 m 0
 678.869140625 1352 639.171875 1206.93164062 639.171875 1071.51367188 c 0
 639.171875 943.743164062 676.833007812 778 790.872070312 778 c 0
 812.672851562 778 850.71875 774.127929688 881.581054688 774.127929688 c 0
 908.416015625 774.127929688 929.821289062 777.055664062 930.397460938 788 c 0
 934.587890625 867.716796875 944.270507812 969.6015625 944.270507812 1064.78808594 c 0
 944.270507812 1216.953125 919.526367188 1352 808.045898438 1352 c 0
37 991.737304688 m 0
 37 1417.87402344 390.294921875 1618 804.028320312 1618 c 0
 1231.39648438 1618 1526.12597656 1400.03027344 1526.12597656 995.560546875 c 0
 1526.12597656 786.303710938 1454.70605469 620.077148438 1365.41699219 484 c 128
 1158.94042969 169.33203125 796.353515625 -49 292.397460938 -49 c 0
 227.751953125 -49 185.08984375 -6.6650390625 185.08984375 55.6318359375 c 0
 185.08984375 154.77734375 255.592773438 177.506835938 338.356445312 197.5 c 128
 576.208007812 254.958984375 799.288085938 350.3203125 882.200195312 575 c 1
 783.776367188 526.499023438 680.459960938 494 551.942382812 494 c 0
 243.549804688 494 37 695.965820312 37 991.737304688 c 0
EndSplineSet
Substitution2: "'onum' Oldstyle Figures in Latin lookup 2 subtable" nine.old
Substitution2: "'aalt' Access All Alternates in Latin lookup 0 subtable" nine.old
EndChar

StartChar: colon
Encoding: 58 58 29
Width: 767
GlyphClass: 2
Flags: HMW
LayerCount: 2
Fore
SplineSet
688.735351562 241.163085938 m 0
 688.735351562 58.712890625 521.022460938 -20 350.374023438 -20 c 0
 187.999023438 -20 37 54.99609375 37 213.471679688 c 0
 37 394.227539062 207.516601562 475 376.395507812 475 c 0
 540.831054688 475 688.735351562 401.434570312 688.735351562 241.163085938 c 0
731.942382812 1063.046875 m 0
 731.942382812 880.1171875 564.653320312 801 393.532226562 801 c 0
 230.782226562 801 80.2080078125 876.654296875 80.2080078125 1035.390625 c 0
 80.2080078125 1215.89160156 251.016601562 1296 419.5546875 1296 c 0
 583.58203125 1296 731.942382812 1222.90527344 731.942382812 1063.046875 c 0
EndSplineSet
EndChar

StartChar: semicolon
Encoding: 59 59 30
Width: 762
GlyphClass: 2
Flags: HMW
LayerCount: 2
Fore
SplineSet
730.991210938 1063.046875 m 0
 730.991210938 880.1171875 563.701171875 801 392.580078125 801 c 0
 229.831054688 801 79.255859375 876.654296875 79.255859375 1035.390625 c 0
 79.255859375 1215.89160156 250.065429688 1296 418.602539062 1296 c 0
 582.630859375 1296 730.991210938 1222.90527344 730.991210938 1063.046875 c 0
677.61328125 168.251953125 m 0
 677.61328125 -124.013671875 470.086914062 -371 188.971679688 -371 c 0
 157.6875 -371 128.850585938 -347.360351562 128.850585938 -317.456054688 c 0
 128.850585938 -261.569335938 175.78125 -237.208984375 207.829101562 -212 c 128
 259.697265625 -171.201171875 286.94921875 -105.090820312 291.948242188 -10 c 1
 147.500976562 -10 35 57.9365234375 35 193.620117188 c 0
 35 374.200195312 198.250976562 475 375.443359375 475 c 0
 571.596679688 475 677.61328125 355.278320312 677.61328125 168.251953125 c 0
EndSplineSet
EndChar

StartChar: less
Encoding: 60 60 31
Width: 990
GlyphClass: 2
Flags: HMW
LayerCount: 2
Fore
SplineSet
911.825195312 138.907226562 m 0
 911.825195312 48.671875 852.708007812 -14 765.047851562 -14 c 0
 643.205078125 -14 571.827148438 70.1435546875 503.51171875 128 c 2
 202.916015625 383 l 2
 129.802734375 444.502929688 33 496.420898438 33 624.966796875 c 0
 33 775.041992188 145.43359375 829.774414062 229.83203125 895 c 2
 557.236328125 1150 l 2
 632.240234375 1208.328125 711.872070312 1292 833.701171875 1292 c 0
 915.471679688 1292 965.448242188 1237.39746094 965.448242188 1158.98925781 c 0
 965.448242188 1002.796875 780.768554688 891.080078125 654.575195312 795 c 2
 450.374023438 639 l 1
 638.172851562 483 l 2
 750.751953125 389.828125 911.825195312 281.059570312 911.825195312 138.907226562 c 0
EndSplineSet
EndChar

StartChar: equal
Encoding: 61 61 32
Width: 1148
GlyphClass: 2
Flags: HMW
LayerCount: 2
Fore
SplineSet
1073.58496094 307.413085938 m 0
 1073.58496094 203.30078125 1009.60351562 199 911.149414062 199 c 2
 197.149414062 199 l 2
 108.979492188 199 55 203.678710938 55 285.94140625 c 0
 55 384.004882812 114.506835938 395 207.452148438 395 c 2
 921.452148438 395 l 2
 1012.59082031 395 1073.58496094 392.66796875 1073.58496094 307.413085938 c 0
1091.29980469 644.415039062 m 0
 1091.29980469 540.30078125 1027.31933594 536 928.864257812 536 c 2
 214.864257812 536 l 2
 126.694335938 536 72.71484375 540.678710938 72.71484375 622.94140625 c 0
 72.71484375 721.004882812 132.224609375 732 225.168945312 732 c 2
 939.168945312 732 l 2
 1030.30664062 732 1091.29980469 729.66796875 1091.29980469 644.415039062 c 0
EndSplineSet
EndChar

StartChar: greater
Encoding: 62 62 33
Width: 994
GlyphClass: 2
Flags: HMW
LayerCount: 2
Fore
SplineSet
80.6220703125 1138.95605469 m 0
 80.6220703125 1229.36425781 139.404296875 1292 227.403320312 1292 c 0
 349.24609375 1292 420.623046875 1207.85644531 488.938476562 1150 c 2
 789.534179688 895 l 2
 862.647460938 833.497070312 959.450195312 781.579101562 959.450195312 653.033203125 c 0
 959.450195312 502.958007812 847.016601562 448.225585938 762.618164062 383 c 2
 435.213867188 128 l 2
 360.2109375 69.671875 280.579101562 -14 158.75 -14 c 0
 76.73828125 -14 27 40.49609375 27 118.947265625 c 0
 27 274.333007812 212.083007812 387.225585938 337.875 483 c 2
 542.076171875 639 l 1
 354.27734375 795 l 2
 241.297851562 888.501953125 80.6220703125 996.063476562 80.6220703125 1138.95605469 c 0
EndSplineSet
EndChar

StartChar: question
Encoding: 63 63 34
Width: 1231
GlyphClass: 2
Flags: HMW
LayerCount: 2
Fore
SplineSet
680.112304688 1645 m 0
 956.765625 1645 1206.32226562 1488.44433594 1206.32226562 1222.79003906 c 0
 1206.32226562 870.642578125 831.87890625 855.41015625 687.017578125 654 c 128
 612.25 550.051757812 670.85546875 428 493.13671875 428 c 0
 406.416992188 428 353.956054688 489.413085938 353.956054688 571.609375 c 0
 353.956054688 747.563476562 407.918945312 880.39453125 491.734375 962.5 c 128
 552.975585938 1022.49121094 621.265625 1076.39160156 621.265625 1198.31054688 c 0
 621.265625 1315.28320312 539.5390625 1343 412.236328125 1343 c 0
 275.2265625 1343 186.125976562 1264 85.083984375 1264 c 0
 46.3173828125 1264 22 1314.69726562 22 1354.97265625 c 0
 22 1374.36523438 28.24609375 1382.62109375 37.865234375 1393 c 0
 177.506835938 1543.67578125 403.043945312 1645 680.112304688 1645 c 0
741.54296875 174.680664062 m 0
 741.54296875 34.611328125 615.372070312 -25 484.323242188 -25 c 0
 360.928710938 -25 247.98046875 32.80859375 247.98046875 153.506835938 c 0
 247.98046875 290.91796875 375.8046875 352 504.141601562 352 c 0
 627.637695312 352 741.54296875 296.818359375 741.54296875 174.680664062 c 0
EndSplineSet
EndChar

StartChar: at
Encoding: 64 64 35
Width: 3051
GlyphClass: 2
Flags: HMW
LayerCount: 2
Fore
SplineSet
1541.74023438 1171 m 0
 1394.43652344 1171 1386.02929688 929.423828125 1386.02929688 748.951171875 c 0
 1386.02929688 725.696289062 1386.16894531 703.45703125 1386.16894531 682.879882812 c 0
 1386.16894531 559.63671875 1406.34179688 438 1515.20898438 438 c 0
 1562.39355469 438 1640.51269531 443.791015625 1642.36914062 479.104492188 c 2
 1676.16503906 1122 l 1
 1643.70996094 1142.35449219 1593.68554688 1171 1541.74023438 1171 c 0
2215.4140625 518 m 0
 2409.62695312 518 2468.74609375 807.046875 2468.74609375 1016.43847656 c 0
 2468.74609375 1423.5546875 2065.24121094 1604 1641.50292969 1604 c 0
 1094.93066406 1604 635.984375 1320.921875 635.984375 748.169921875 c 0
 635.984375 246.327148438 1001.73242188 2 1523.28808594 2 c 0
 1691.52246094 2 1899.07519531 154.502929688 2030.29199219 154.502929688 c 0
 2070.77441406 154.502929688 2103.99121094 139.987304688 2126.54589844 102 c 2
 2359.88671875 -291 l 1
 2124.32324219 -406.36328125 1826.42382812 -483 1495.79394531 -483 c 0
 994.6328125 -483 625.8515625 -329.35546875 381.215820312 -85 c 128
 191.579101562 104.41796875 43 363.671875 43 722.551757812 c 0
 43 1010.3828125 132.083984375 1233.79589844 253.672851562 1417 c 128
 532.958007812 1837.81445312 1033.40039062 2089 1713.99804688 2089 c 0
 2156.58691406 2089 2494.8203125 1970.08300781 2719.46679688 1765 c 128
 2882.6171875 1616.05761719 3019.62109375 1410.69921875 3019.62109375 1117.78222656 c 0
 3019.62109375 510.01171875 2555.46972656 240 1967.79980469 240 c 0
 1826.27441406 240 1699.83984375 258.709960938 1661.6875 352 c 1
 1575.6640625 270.2734375 1445.97070312 219 1278.69628906 219 c 0
 973.431640625 219 860.446289062 441.1796875 860.446289062 734.392578125 c 0
 860.446289062 1098.06542969 1017.03613281 1393 1364.41113281 1393 c 0
 1521.47167969 1393 1631.109375 1344.765625 1703.83984375 1268 c 1
 1743.66503906 1357.41308594 1825.51074219 1395 1952.515625 1395 c 0
 2087.40234375 1395 2221.33203125 1391.52929688 2216.53222656 1300.20703125 c 2
 2202.25 1028.5 l 130
 2194.79589844 886.69140625 2178.02929688 749.58984375 2178.02929688 581.770507812 c 0
 2178.02929688 548.09765625 2187.41796875 518 2215.4140625 518 c 0
EndSplineSet
EndChar

StartChar: A
Encoding: 65 65 36
Width: 1832
GlyphClass: 2
Flags: HMW
LayerCount: 2
Fore
SplineSet
578.782226562 641 m 1
 891.782226562 641 l 1
 768.376953125 1223 l 1
 578.782226562 641 l 1
1002.82617188 1593 m 0
 1240.953125 1593 1565.71191406 1571.7890625 1553.73730469 1344 c 0
 1549.33984375 1260.36035156 1391.39941406 1328.79492188 1427.80078125 1174 c 2
 1608.42871094 406 l 2
 1624.1796875 339.34375 1647.75585938 294.513671875 1712.30566406 280 c 0
 1751.00097656 271.298828125 1782.98730469 283.467773438 1780.4921875 236 c 4
 1769.6640625 30.0205078125 1630.45800781 0 1266.0859375 0 c 0
 1042.64355469 0 795.225585938 21.6875 806.4921875 236 c 0
 811.467773438 330.650390625 958.229492188 234.364257812 936.21875 402 c 2
 924.791992188 489 l 1
 518.791992188 489 l 1
 490.21875 402 l 1
 426.392578125 240.293945312 591.299804688 327.470703125 586.4921875 236 c 0
 578.1171875 76.6962890625 449.826171875 0 287.0859375 0 c 0
 122.291992188 0 22.072265625 75.833984375 30.4921875 236 c 0
 32.998046875 283.680664062 73.6806640625 271.295898438 113.305664062 280 c 0
 180.063476562 294.6640625 190.474609375 340.095703125 215.428710938 406 c 2
 501.80078125 1174 l 2
 509.995117188 1195.97558594 517.974609375 1215.35351562 519.217773438 1239 c 0
 523.36328125 1317.87109375 412.243164062 1277.53515625 415.895507812 1347 c 0
 427.870117188 1574.81640625 762.888671875 1593 1002.82617188 1593 c 0
EndSplineSet
EndChar

StartChar: B
Encoding: 66 66 37
Width: 1879
GlyphClass: 2
Flags: HMW
LayerCount: 2
Fore
SplineSet
968.077148438 894.9921875 m 0
 1171.67382812 894.9921875 1203.0625 973.759765625 1203.0625 1184.64550781 c 0
 1203.0625 1308.81542969 1170.81933594 1397 1039.37597656 1397 c 0
 932.19921875 1397 920.13671875 1316.36523438 914.545898438 1210 c 2
 898.618164062 907 l 1
 914.239257812 897.321289062 939.60546875 894.9921875 968.077148438 894.9921875 c 0
978.08203125 231 m 0
 1138.39355469 231 1169.02734375 367.51171875 1169.02734375 535.393554688 c 0
 1169.02734375 700.958007812 1107.05859375 743.252929688 924.909179688 743.252929688 c 0
 904.09375 743.252929688 889.737304688 738.078125 888.83984375 721 c 2
 870.2734375 367.7890625 l 1
 870.2734375 287.295898438 888.573242188 231 978.08203125 231 c 0
1842.72753906 487.434570312 m 0
 1842.72753906 42.1650390625 1360.74707031 -3.755859375 889.38671875 -3.755859375 c 0
 757.586914062 -3.755859375 626.537109375 0 506.938476562 0 c 0
 288.109375 0 28 20.9365234375 28 223.059570312 c 0
 28 336.694335938 188.983398438 267.173828125 197.016601562 420 c 2
 237.133789062 1183.13183594 l 1
 237.133789062 1310.52441406 87.224609375 1271.734375 87.224609375 1354.22753906 c 0
 87.224609375 1570.70898438 375.849609375 1593 590.678710938 1593 c 0
 743.650390625 1593 913.475585938 1601.86328125 1077.19238281 1601.86328125 c 0
 1472.97460938 1601.86328125 1833.0625 1550.06542969 1833.0625 1196.02539062 c 0
 1833.0625 965.3828125 1675.01855469 864.874023438 1467.83105469 854 c 1
 1695.84863281 837.8828125 1842.72753906 726.010742188 1842.72753906 487.434570312 c 0
EndSplineSet
EndChar

StartChar: C
Encoding: 67 67 38
Width: 1548
GlyphClass: 2
Flags: HMW
LayerCount: 2
Fore
SplineSet
1508.87304688 1215.46386719 m 0
 1508.87304688 1097.34472656 1444.70214844 1020 1333.20898438 1020 c 0
 1089.37402344 1020 1200.02148438 1376 991.923828125 1376 c 0
 799.5390625 1376 765.350585938 1083.99511719 765.350585938 874.619140625 c 0
 765.350585938 600.424804688 829.462890625 367 1103.88183594 367 c 0
 1210.79003906 367 1323.53808594 409.525390625 1374.24414062 469 c 0
 1389.99414062 488.624023438 1412.98828125 508 1441.29394531 508 c 0
 1484.93554688 508 1503.84082031 459.431640625 1503.84082031 409.50390625 c 0
 1503.84082031 106.1328125 1207.05078125 -25 819.275390625 -25 c 0
 414.709960938 -25 34 257.5078125 34 703.9453125 c 0
 34 1313.87109375 393.49609375 1620 979.75 1620 c 0
 1259.4375 1620 1508.87304688 1483.91503906 1508.87304688 1215.46386719 c 0
EndSplineSet
EndChar

StartChar: D
Encoding: 68 68 39
Width: 1940
GlyphClass: 2
Flags: HMW
LayerCount: 2
Back
SplineSet
1217 854 m 4
 1217 1105.66210938 1172.36621094 1367 953 1367 c 4
 845.4765625 1367 886 1346.78808594 886 1240 c 6
 886 398 l 6
 886 291.216796875 845.474609375 251 953 251 c 4
 1196.45019531 251 1217 602.274414062 1217 854 c 4
58 1360 m 4
 58 1572.80078125 328.803710938 1593 549 1593 c 4
 1541.5 1593 1885 1365.81640625 1885 844 c 4
 1885 220.884765625 1543.70580909 0 549 0 c 4
 325.586914062 0 58 21.822265625 58 236 c 4
 58 298.512695312 138.610351562 288.150390625 175.5 314.5 c 4
 203.622070312 334.586914062 217 367.13671875 217 420 c 6
 217 1176 l 6
 217 1246.30371094 191.012695312 1285.94824219 137.5 1299 c 4
 100.161132812 1308.10742188 58 1313.41503906 58 1360 c 4
EndSplineSet
Fore
SplineSet
924.122070312 251 m 0
 1189.328125 251 1212.92089844 681.59765625 1212.92089844 962.469726562 c 0
 1212.92089844 1175.48339844 1170.57617188 1367 982.787109375 1367 c 0
 917.786132812 1367 906.500976562 1359.61328125 906.500976562 1330.1796875 c 0
 906.500976562 1316.54394531 912.1640625 1298.07128906 910.875 1273.56054688 c 2
 864.848632812 398 l 2
 862.262695312 348.806640625 851.818359375 313.740234375 851.818359375 290.225585938 c 0
 851.818359375 262.697265625 866.131835938 251 924.122070312 251 c 0
1908.984375 906.364257812 m 0
 1908.984375 228.251953125 1568.5625 0 556.926757812 0 c 0
 298.721679688 0 28 20.9677734375 28 223.520507812 c 0
 28 336.388671875 188.985351562 267.447265625 197.004882812 420 c 2
 237.2265625 1185.13085938 l 1
 237.2265625 1312.52539062 87.318359375 1273.734375 87.318359375 1356.22851562 c 0
 87.318359375 1573.11132812 375.645507812 1593 640.666992188 1593 c 0
 1592.69921875 1593 1908.984375 1383.96484375 1908.984375 906.364257812 c 0
EndSplineSet
EndChar

StartChar: E
Encoding: 69 69 40
Width: 1749
GlyphClass: 2
Flags: HMW
LayerCount: 2
Fore
SplineSet
1703.37792969 433.576171875 m 0
 1703.37792969 223.918945312 1575.97460938 0 1376.93847656 0 c 2
 506.938476562 0 l 2
 288.109375 0 28 20.9365234375 28 223.059570312 c 0
 28 336.694335938 188.983398438 267.173828125 197.016601562 420 c 2
 237.133789062 1183.13183594 l 1
 237.133789062 1310.52441406 87.224609375 1271.734375 87.224609375 1354.22753906 c 0
 87.224609375 1570.70898438 375.849609375 1593 590.678710938 1593 c 2
 1448.67871094 1593 l 2
 1628.61621094 1593 1715.37304688 1402.921875 1715.37304688 1221.58398438 c 0
 1715.37304688 1099.8515625 1654.42480469 1020 1539.55761719 1020 c 0
 1418.20703125 1020 1360.84863281 1117.89160156 1342.91308594 1217 c 2
 1312.69238281 1384 l 1
 978.692382812 1384 l 1
 954.51171875 924 l 1
 1035.03710938 934 l 1
 1074.47949219 1005.38085938 1104.96777344 1118 1206.70996094 1118 c 0
 1344.17285156 1118 1400.015625 1004.99414062 1400.015625 870.6015625 c 0
 1400.015625 709.65625 1331.31933594 567 1177.74511719 567 c 0
 1076.7734375 567 1102.9453125 742.251953125 1025.46875 752 c 2
 945.995117188 762 l 1
 916.71484375 205 l 1
 1259.55566406 221 l 1
 1309.70214844 395 l 1
 1346.38867188 499.573242188 1409.56054688 602 1538.58398438 602 c 0
 1641.78222656 602 1703.37792969 534.724609375 1703.37792969 433.576171875 c 0
EndSplineSet
EndChar

StartChar: F
Encoding: 70 70 41
Width: 1701
GlyphClass: 2
Flags: HMW
LayerCount: 2
Fore
SplineSet
1354.48339844 860.41015625 m 0
 1354.48339844 699.653320312 1285.41503906 557 1132.21875 557 c 0
 1031.70898438 557 1057.29199219 732.767578125 979.891601562 741 c 2
 876.46875 752 l 1
 858.537109375 410.879882812 l 1
 858.537109375 282.302734375 1011.4453125 322.958007812 1011.4453125 239.76171875 c 0
 1011.4453125 22.45703125 722.522460938 0 506.938476562 0 c 256
 288.109375 0 28 20.9365234375 28 223.059570312 c 0
 28 336.694335938 188.983398438 267.173828125 197.016601562 420 c 2
 237.133789062 1183.13183594 l 1
 237.133789062 1310.52441406 87.224609375 1271.734375 87.224609375 1354.22753906 c 0
 87.224609375 1570.70898438 375.849609375 1593 590.678710938 1593 c 2
 1411.67871094 1593 l 2
 1591.61621094 1593 1678.37304688 1402.921875 1678.37304688 1221.58398438 c 0
 1678.37304688 1099.8515625 1617.42480469 1020 1502.55761719 1020 c 0
 1401.97167969 1020 1301.03613281 1086.18945312 1305.25683594 1166.46777344 c 2
 1316.69238281 1384 l 1
 909.692382812 1384 l 1
 884.932617188 913 l 1
 989.51171875 924 l 1
 1028.95410156 995.380859375 1059.44140625 1108 1161.18359375 1108 c 0
 1298.35253906 1108 1354.48339844 994.744140625 1354.48339844 860.41015625 c 0
EndSplineSet
EndChar

StartChar: G
Encoding: 71 71 42
Width: 1712
GlyphClass: 2
Flags: HMW
LayerCount: 2
Fore
SplineSet
1031.61816406 1372 m 0
 817.170898438 1372 763.763671875 1090.63378906 763.763671875 856.95703125 c 0
 763.763671875 613.6015625 805.53515625 328 1006.73730469 328 c 0
 1053.86621094 328 1079.77734375 348.866210938 1079.77734375 395.895507812 c 0
 1079.77734375 472.975585938 1054.75878906 521.102539062 996.85546875 539.5 c 128
 950.979492188 554.075195312 910.680664062 568.946289062 910.680664062 627.735351562 c 0
 910.680664062 837.734375 1101.86328125 872 1302.33398438 872 c 0
 1464.85742188 872 1687.49023438 868.978515625 1687.49023438 726.48046875 c 0
 1687.49023438 568.6640625 1585.41894531 569.240234375 1577.57324219 420 c 0
 1560.6015625 97.1337890625 1216.97265625 -25 892.180664062 -25 c 0
 402.758789062 -25 33 229.889648438 33 707.555664062 c 0
 33 1282.19042969 430.040039062 1620 972.655273438 1620 c 0
 1275.68359375 1620 1589.51464844 1497.41699219 1589.51464844 1209.453125 c 0
 1589.51464844 1092.53710938 1524.27929688 1016 1413.90429688 1016 c 0
 1162.76269531 1016 1282.80664062 1372 1031.61816406 1372 c 0
EndSplineSet
EndChar

StartChar: H
Encoding: 72 72 43
Width: 2223
GlyphClass: 2
Flags: HMW
LayerCount: 2
Fore
SplineSet
1239.13964844 1351.21386719 m 0
 1239.13964844 1563.296875 1481.81933594 1593 1723.67871094 1593 c 0
 1960.80175781 1593 2208.65527344 1563.48339844 2208.65527344 1370.37402344 c 0
 2208.65527344 1256.12011719 2038.78027344 1328.60742188 2030.65332031 1174 c 2
 1990.7421875 414.78125 l 1
 1990.7421875 283.009765625 2149.44433594 324.087890625 2149.44433594 239.72265625 c 0
 2149.44433594 20.9697265625 1857.13183594 0 1639.93847656 0 c 0
 1418.18457031 0 1179.95898438 17.9931640625 1179.95898438 221.5703125 c 0
 1179.95898438 301.61328125 1238.77734375 284.34765625 1283.04980469 316 c 128
 1312.36816406 336.9609375 1317.38964844 370.013671875 1320.2265625 424 c 2
 1336.26074219 729 l 1
 885.260742188 729 l 1
 868.19921875 404.451171875 l 1
 868.19921875 287.190429688 991.526367188 323.536132812 991.526367188 242.646484375 c 0
 991.526367188 29.9716796875 748.600585938 0 506.938476562 0 c 0
 288.109375 0 28 20.9365234375 28 223.059570312 c 0
 28 336.694335938 188.983398438 267.173828125 197.016601562 420 c 2
 237.133789062 1183.13183594 l 1
 237.133789062 1310.52441406 87.224609375 1271.734375 87.224609375 1354.22753906 c 0
 87.224609375 1570.70898438 375.849609375 1593 590.678710938 1593 c 0
 811.704101562 1593 1050.70703125 1575.14550781 1050.70703125 1372.27539062 c 0
 1050.70703125 1292.79492188 992.303710938 1310.20703125 947.69921875 1279.5 c 128
 918.879882812 1259.65917969 913.381835938 1225.89160156 910.653320312 1174 c 2
 897.405273438 922 l 1
 1346.40527344 922 l 1
 1360.70117188 1193.92675781 l 1
 1360.70117188 1308.75488281 1239.13964844 1271.82421875 1239.13964844 1351.21386719 c 0
EndSplineSet
EndChar

StartChar: I
Encoding: 73 73 44
Width: 1095
GlyphClass: 2
Flags: HMW
LayerCount: 2
Fore
SplineSet
868.4453125 409.845703125 m 1
 868.4453125 281.37890625 1021.4453125 323.180664062 1021.4453125 239.749023438 c 0
 1021.4453125 29.8583984375 746.317382812 0 506.938476562 0 c 0
 288.109375 0 28 20.9365234375 28 223.059570312 c 0
 28 336.694335938 188.983398438 267.173828125 197.016601562 420 c 2
 237.133789062 1183.13183594 l 1
 237.133789062 1310.52441406 87.224609375 1271.734375 87.224609375 1354.22753906 c 0
 87.224609375 1570.70898438 375.849609375 1593 590.678710938 1593 c 0
 812.23828125 1593 1080.66699219 1575.05859375 1080.66699219 1370.80371094 c 0
 1080.66699219 1257.34179688 918.698242188 1327.01953125 910.653320312 1174 c 2
 868.4453125 409.845703125 l 1
EndSplineSet
EndChar

StartChar: J
Encoding: 74 74 45
Width: 1669
GlyphClass: 2
Flags: HMW
LayerCount: 2
Fore
SplineSet
31 489.696289062 m 0
 31 702.6796875 158.112304688 858 361.573242188 858 c 0
 515.514648438 858 662.547851562 785.130859375 662.547851562 635.375 c 0
 662.547851562 495.984375 564.774414062 424.442382812 509.395507812 341 c 128
 501.000976562 328.349609375 496.6640625 318.06640625 496.6640625 307.094726562 c 0
 496.6640625 273.9375 543.344726562 262 582.2421875 262 c 0
 717.3515625 262 770.397460938 379.083984375 777.8046875 520 c 2
 812.771484375 1185.15234375 l 1
 812.771484375 1313.07519531 661.754882812 1271.18945312 661.754882812 1354.203125 c 0
 661.754882812 1563.40527344 936.711914062 1593 1176.20996094 1593 c 0
 1394.31347656 1593 1655.19824219 1572.21484375 1655.19824219 1370.80761719 c 0
 1655.19824219 1257.16992188 1492.21582031 1326.765625 1484.18457031 1174 c 2
 1449.8046875 520 l 2
 1430.18847656 146.82421875 1097.36621094 -25 726.155273438 -25 c 0
 361.264648438 -25 31 139.11328125 31 489.696289062 c 0
EndSplineSet
EndChar

StartChar: K
Encoding: 75 75 46
Width: 2097
GlyphClass: 2
Flags: HMW
LayerCount: 2
Fore
SplineSet
981.5234375 242.54296875 m 0
 981.5234375 30.048828125 748.451171875 0 506.938476562 0 c 0
 288.109375 0 28 20.9365234375 28 223.059570312 c 0
 28 336.694335938 188.983398438 267.173828125 197.016601562 420 c 2
 237.133789062 1183.13183594 l 1
 237.133789062 1310.52441406 87.224609375 1271.734375 87.224609375 1354.22753906 c 0
 87.224609375 1570.70898438 375.849609375 1593 590.678710938 1593 c 0
 812.23828125 1593 1080.66699219 1575.05859375 1080.66699219 1370.80371094 c 0
 1080.66699219 1256.81054688 917.178710938 1327.45117188 908.653320312 1174 c 2
 889.09765625 822 l 1
 905.290039062 815.622070312 1414.24316406 1200.99511719 1414.24316406 1243.57617188 c 0
 1414.24316406 1300.00683594 1313.96777344 1302.56054688 1313.96777344 1368.46875 c 0
 1313.96777344 1550.52734375 1516.12792969 1593 1690.67871094 1593 c 0
 1864.4921875 1593 2074.96679688 1557.109375 2074.96679688 1394.29492188 c 0
 2074.96679688 1307.29101562 1996.79101562 1284.9921875 1927.56835938 1267.5 c 0
 1828.95898438 1242.58203125 1734.33007812 1211.1640625 1665.44433594 1151 c 2
 1454.77148438 967 l 1
 1808.2265625 424 l 1
 1849.87695312 365.930664062 1900.76464844 329.819335938 1971.05078125 306.5 c 0
 2014.27050781 292.161132812 2042.28515625 275.263671875 2042.28515625 220.375 c 0
 2042.28515625 23.9111328125 1770.39746094 0 1543.93847656 0 c 0
 1253.19824219 0 1198.35351562 48.908203125 1198.35351562 147.27734375 c 0
 1198.35351562 185.4921875 1230.75195312 237.301757812 1230.75195312 288.885742188 c 0
 1230.75195312 306.856445312 1226.73925781 324.75 1216.21582031 342.130859375 c 2
 982.575195312 728 l 2
 981.459960938 730.036132812 882.7890625 662 882.7890625 662 c 1
 867.171875 389.45703125 l 1
 867.171875 282.809570312 981.5234375 321.478515625 981.5234375 242.54296875 c 0
EndSplineSet
EndChar

StartChar: L
Encoding: 76 76 47
Width: 1550
GlyphClass: 2
Flags: HMW
LayerCount: 2
Fore
SplineSet
1516.59960938 437.987304688 m 0
 1516.59960938 227.612304688 1390.30664062 0 1190.93847656 0 c 2
 506.938476562 0 l 2
 288.109375 0 28 20.9365234375 28 223.059570312 c 0
 28 336.694335938 188.983398438 267.173828125 197.016601562 420 c 2
 237.133789062 1183.13183594 l 1
 237.133789062 1310.52441406 87.224609375 1271.734375 87.224609375 1354.22753906 c 0
 87.224609375 1570.70898438 375.849609375 1593 590.678710938 1593 c 0
 812.23828125 1593 1080.66699219 1575.05859375 1080.66699219 1370.80371094 c 0
 1080.66699219 1257.34179688 918.698242188 1327.01953125 910.653320312 1174 c 2
 865.00390625 344.379882812 l 1
 865.00390625 234.546875 878.6796875 205.4921875 1034.54296875 205.4921875 c 0
 1048.37207031 205.4921875 1069.44824219 210.015625 1073.765625 225 c 2
 1123.91308594 399 l 1
 1160.41210938 503.041015625 1223.51953125 606 1351.79492188 606 c 0
 1455.93359375 606 1516.59960938 539.6953125 1516.59960938 437.987304688 c 0
EndSplineSet
EndChar

StartChar: M
Encoding: 77 77 48
Width: 2206
GlyphClass: 2
Flags: HMW
LayerCount: 2
Fore
SplineSet
488.522460938 409.842773438 m 1
 488.522460938 281.369140625 641.485351562 323.176757812 641.485351562 239.749023438 c 0
 641.485351562 76.9521484375 484.016601562 0 329.979492188 0 c 0
 167.525390625 0 29 65.2646484375 29 221.533203125 c 0
 29 337.6953125 189.9765625 266.276367188 198.057617188 420 c 2
 238.173828125 1183.13183594 l 1
 238.173828125 1310.52441406 88.2646484375 1271.734375 88.2646484375 1354.22753906 c 0
 88.2646484375 1541.33691406 291.91015625 1593 472.719726562 1593 c 0
 693.340820312 1593 748.8828125 1476.11035156 828.262695312 1337 c 2
 1073.44824219 903 l 1
 1337.10644531 1315 l 2
 1422.69824219 1450.53417969 1527.99902344 1593 1738.71972656 1593 c 0
 1959.39550781 1593 2191.76074219 1576.04394531 2191.76074219 1372.77441406 c 0
 2191.76074219 1255.50390625 2027.82324219 1328.63574219 2019.69433594 1174 c 2
 1979.52246094 409.842773438 l 1
 1979.52246094 281.369140625 2132.48535156 323.176757812 2132.48535156 239.749023438 c 0
 2132.48535156 29.8583984375 1857.35742188 0 1617.97949219 0 c 0
 1399.14941406 0 1139.04003906 20.9365234375 1139.04003906 223.059570312 c 0
 1139.04003906 336.694335938 1300.0234375 267.173828125 1308.05761719 420 c 2
 1329.92675781 836 l 1
 940.385742188 236 l 2
 931.579101562 220.666992188 918.508789062 213 901.17578125 213 c 0
 885.842773438 213 871.775390625 219.913085938 862.385742188 236 c 2
 511.03125 838 l 1
 488.522460938 409.842773438 l 1
EndSplineSet
EndChar

StartChar: N
Encoding: 78 78 49
Width: 1800
GlyphClass: 2
Flags: HMW
LayerCount: 2
Fore
SplineSet
488.522460938 409.842773438 m 1
 488.522460938 281.369140625 641.485351562 323.176757812 641.485351562 239.749023438 c 0
 641.485351562 76.9521484375 484.016601562 0 329.979492188 0 c 0
 167.525390625 0 29 65.2646484375 29 221.533203125 c 0
 29 337.6953125 189.9765625 266.276367188 198.057617188 420 c 2
 238.173828125 1183.13183594 l 1
 238.173828125 1310.52441406 88.2646484375 1271.734375 88.2646484375 1354.22753906 c 0
 88.2646484375 1531.61621094 253.278320312 1593 423.719726562 1593 c 0
 591.311523438 1593 647.454101562 1507.72363281 734.783203125 1423 c 2
 1279.71191406 889 l 2
 1282.5 886.05859375 1287.19042969 883 1293.39746094 883 c 0
 1306.04785156 883 1311.00195312 894.498046875 1311.86914062 911 c 2
 1326.20605469 1183.73828125 l 1
 1326.20605469 1312.73144531 1173.265625 1270.70800781 1173.265625 1354.25097656 c 0
 1173.265625 1516.53125 1331.20117188 1593 1484.71972656 1593 c 0
 1646.63574219 1593 1785.74707031 1528.08984375 1785.74707031 1372.31152344 c 0
 1785.74707031 1256.47753906 1626.76953125 1327.64257812 1618.69433594 1174 c 2
 1568.28222656 215 l 2
 1561.48144531 85.6328125 1527.66113281 0 1402.97949219 0 c 0
 1300.83105469 0 1223.08203125 97.4736328125 1165.07519531 154 c 2
 526.772460938 776 l 2
 522.280273438 779.333007812 518.702148438 781 516.03515625 781 c 0
 510.03515625 781 507.857421875 777.614257812 507.506835938 770.947265625 c 2
 488.522460938 409.842773438 l 1
EndSplineSet
EndChar

StartChar: O
Encoding: 79 79 50
Width: 1851
GlyphClass: 2
Flags: HMW
LayerCount: 2
Fore
SplineSet
34 717.455078125 m 0
 34 1291.59277344 378.6015625 1620 1012.38085938 1620 c 0
 1523.84179688 1620 1820.90429688 1285.57910156 1820.90429688 889.970703125 c 0
 1820.90429688 321.530273438 1470.52441406 -25 841.90625 -25 c 0
 340.607421875 -25 34 321.463867188 34 717.455078125 c 0
934.397460938 1354 m 0
 770.33203125 1354 752.153320312 1077.56445312 752.153320312 842.868164062 c 0
 752.153320312 776.049804688 753.626953125 712.614257812 753.626953125 659.904296875 c 0
 753.626953125 445.7421875 782.530273438 238 912.731445312 238 c 0
 1082.76171875 238 1098.36132812 569.573242188 1098.36132812 815.998046875 c 0
 1098.36132812 871.37890625 1097.57421875 922.459960938 1097.57421875 964.509765625 c 0
 1097.57421875 1165.41308594 1067.76953125 1354 934.397460938 1354 c 0
EndSplineSet
EndChar

StartChar: P
Encoding: 80 80 51
Width: 1916
GlyphClass: 2
Flags: HMW
LayerCount: 2
Fore
SplineSet
1034.57519531 754 m 0
 1182.91796875 754 1191.04492188 938.942382812 1191.04492188 1097.81640625 c 0
 1191.04492188 1117.36621094 1190.921875 1136.52148438 1190.921875 1154.88867188 c 0
 1190.921875 1285.49414062 1164.98535156 1399 1031.48046875 1399 c 0
 936.241210938 1399 921.071289062 1334.15039062 916.123046875 1240 c 2
 891.100585938 764 l 1
 900.521484375 754.056640625 924.811523438 751.584960938 952.638671875 751.584960938 c 0
 980.14453125 751.584960938 1011.10644531 754 1034.57519531 754 c 0
868.482421875 409.842773438 m 1
 868.482421875 281.369140625 1021.4453125 323.176757812 1021.4453125 239.749023438 c 0
 1021.4453125 29.8583984375 746.317382812 0 506.938476562 0 c 0
 288.109375 0 28 20.9365234375 28 223.059570312 c 0
 28 336.694335938 188.983398438 267.173828125 197.016601562 420 c 2
 237.133789062 1183.13183594 l 1
 237.133789062 1310.52441406 87.224609375 1271.734375 87.224609375 1354.22753906 c 0
 87.224609375 1568.05859375 365.51953125 1593 577.678710938 1593 c 2
 1172.67871094 1593 l 2
 1537.421875 1593 1889.93652344 1453.63085938 1889.93652344 1116.29199219 c 0
 1889.93652344 734.069335938 1497.94433594 571 1118.95507812 571 c 0
 1100.99804688 571 1081.61328125 570.953125 1061.52832031 570.953125 c 0
 999.616210938 570.953125 931.0546875 571.395507812 877.165039062 575 c 1
 868.482421875 409.842773438 l 1
EndSplineSet
EndChar

StartChar: Q
Encoding: 81 81 52
Width: 1854
GlyphClass: 2
Flags: HMW
LayerCount: 2
Fore
SplineSet
36 698.157226562 m 0
 36 1363.80175781 372.994140625 1620 1014.91210938 1620 c 0
 1522.43261719 1620 1823.05078125 1392.15332031 1823.05078125 912.206054688 c 0
 1823.05078125 469.880859375 1670.97070312 186.389648438 1360.85351562 59 c 1
 1540.28222656 -66 l 2
 1580.09765625 -93.1328125 1628.12207031 -102 1687.38964844 -102 c 0
 1712.09667969 -102 1729.8828125 -101.016601562 1747.70605469 -96 c 1
 1755.11425781 -113.72265625 1760.34570312 -132.955078125 1760.34570312 -155.887695312 c 0
 1760.34570312 -309.362304688 1456.39160156 -467 1298.20214844 -467 c 0
 1177.54980469 -467 1105.80761719 -389.541015625 1042.3515625 -331 c 2
 700.911132812 -16 l 1
 292.731445312 26.6845703125 36 267.591796875 36 698.157226562 c 0
936.928710938 1354 m 0
 772.864257812 1354 754.684570312 1077.56445312 754.684570312 842.868164062 c 0
 754.684570312 776.049804688 756.158203125 712.614257812 756.158203125 659.904296875 c 0
 756.158203125 445.7421875 785.061523438 238 915.262695312 238 c 0
 1064.74902344 238 1073.37304688 449.34375 1081.50292969 604 c 1
 1081.50292969 653 l 1
 1085.90136719 736.671875 1098.54101562 855.123046875 1098.54101562 970.890625 c 0
 1098.54101562 1166.26757812 1069.875 1354 936.928710938 1354 c 0
EndSplineSet
EndChar

StartChar: R
Encoding: 82 82 53
Width: 2102
GlyphClass: 2
Flags: HMW
LayerCount: 2
Fore
SplineSet
1947.50292969 1164.83886719 m 0
 1947.50292969 907.314453125 1812.89355469 781.688476562 1623.41992188 713 c 1
 1804.70214844 414 l 2
 1842.52441406 352.409179688 1891.77929688 312.340820312 1968.97167969 295.5 c 128
 2006.33789062 287.34765625 2053.63964844 285.428710938 2053.63964844 243.147460938 c 0
 2053.63964844 9.1298828125 1794.67773438 -0.068359375 1558.7734375 -0.068359375 c 0
 1537.79785156 -0.068359375 1516.80371094 0 1495.93847656 0 c 0
 1231.32421875 0 1144.68261719 161.209960938 1086.390625 351 c 2
 1001.00390625 629 l 1
 989.00390625 629 l 2
 943.38671875 629 923.826171875 630.265625 880.213867188 633 c 1
 868.444335938 409.088867188 l 1
 868.444335938 281.962890625 1021.44824219 324.088867188 1021.44824219 239.857421875 c 0
 1021.44824219 29.8544921875 746.41015625 0 506.938476562 0 c 0
 288.109375 0 28 20.9365234375 28 223.059570312 c 0
 28 336.694335938 188.983398438 267.173828125 197.016601562 420 c 2
 237.133789062 1183.13183594 l 1
 237.133789062 1310.52441406 87.224609375 1271.734375 87.224609375 1354.22753906 c 0
 87.224609375 1570.62988281 385.826171875 1593 600.678710938 1593 c 2
 1141.67871094 1593 l 2
 1529.33691406 1593 1947.50292969 1526.89550781 1947.50292969 1164.83886719 c 0
890.73046875 795 m 1
 893.543945312 784.977539062 925.686523438 782.854492188 959.3828125 782.854492188 c 0
 984.13671875 782.854492188 1009.72949219 784 1025.15136719 784 c 0
 1151.61816406 784 1205.86621094 873.701171875 1212.71679688 1004 c 1
 1212.71679688 1034 l 1
 1214.74902344 1072.65332031 1218.24316406 1111.42285156 1218.24316406 1148.5 c 0
 1218.24316406 1285.26074219 1192.15234375 1399 1049.48046875 1399 c 0
 945.905273438 1399 918.923828125 1331.33105469 913.543945312 1229 c 2
 890.73046875 795 l 1
EndSplineSet
EndChar

StartChar: S
Encoding: 83 83 54
Width: 1531
GlyphClass: 2
Flags: HMW
LayerCount: 2
Fore
SplineSet
1501.38769531 500.248046875 m 0
 1501.38769531 82.517578125 1151.63574219 -25 751.534179688 -25 c 0
 430.495117188 -25 29 43.25390625 29 318.647460938 c 0
 29 449.256835938 107.428710938 534 229.919921875 534 c 0
 371.63671875 534 471.928710938 487.853515625 471.928710938 351.541992188 c 0
 471.928710938 345.680664062 471.443359375 339.489257812 471.443359375 333.404296875 c 0
 471.443359375 262.916992188 626.157226562 258 706.411132812 258 c 0
 814.532226562 258 915.293945312 267.680664062 915.293945312 370.793945312 c 0
 915.293945312 437.875 718.02734375 493.775390625 651.31640625 513 c 128
 389.470703125 588.456054688 93.5166015625 716.651367188 93.5166015625 1044.30371094 c 0
 93.5166015625 1482.36816406 421.139648438 1620 838.008789062 1620 c 0
 1141.43457031 1620 1474.41699219 1586.5234375 1474.41699219 1313.48242188 c 0
 1474.41699219 1157.43457031 1364.91503906 1082.609375 1218.48730469 1082.609375 c 0
 1088.5703125 1082.609375 960.278320312 1124.30371094 960.278320312 1240.42285156 c 0
 960.278320312 1273.68945312 1009.44238281 1307.81054688 1009.44238281 1333.5078125 c 0
 1009.44238281 1350.48339844 951.616210938 1372 812.971679688 1372 c 0
 701.76953125 1372 595.2734375 1349.85449219 595.2734375 1242.13085938 c 0
 595.2734375 1133.07519531 791.25390625 1094.45605469 884.67578125 1062 c 128
 1154.6015625 968.224609375 1501.38769531 852.159179688 1501.38769531 500.248046875 c 0
EndSplineSet
EndChar

StartChar: T
Encoding: 84 84 55
Width: 1786
GlyphClass: 2
Flags: HMW
LayerCount: 2
Fore
SplineSet
1197.32714844 409.842773438 m 1
 1197.32714844 281.369140625 1350.29003906 323.176757812 1350.29003906 239.749023438 c 0
 1350.29003906 29.8583984375 1075.16113281 0 835.783203125 0 c 0
 616.953125 0 356.84375 20.9365234375 356.84375 223.059570312 c 0
 356.84375 336.694335938 517.827148438 267.173828125 525.861328125 420 c 2
 576.221679688 1378 l 1
 464.010742188 1374 l 1
 416.600585938 1214 l 1
 382.159179688 1115.27539062 320.928710938 1018 199.296875 1018 c 0
 101.397460938 1018 42 1081.08105469 42 1177.26660156 c 0
 42 1374.02832031 162.700195312 1593 350.5234375 1593 c 2
 1497.5234375 1593 l 2
 1676.87011719 1593 1763.21679688 1402.4140625 1763.21679688 1221.54492188 c 0
 1763.21679688 1100.11621094 1703.11425781 1020 1588.40234375 1020 c 0
 1465.8515625 1020 1410.70019531 1113.9453125 1391.7578125 1217 c 2
 1361.1171875 1376 l 1
 1248.32714844 1380 l 1
 1197.32714844 409.842773438 l 1
EndSplineSet
EndChar

StartChar: U
Encoding: 85 85 56
Width: 1852
GlyphClass: 2
Flags: HMW
LayerCount: 2
Fore
SplineSet
171.909179688 1183.13183594 m 0
 171.909179688 1310.52441406 22 1271.734375 22 1354.22753906 c 0
 22 1570.70898438 310.625 1593 525.454101562 1593 c 0
 747.012695312 1593 1015.44238281 1575.05859375 1015.44238281 1370.80371094 c 0
 1015.44238281 1256.86621094 853.62109375 1329.8515625 845.534179688 1176 c 2
 809.841796875 497.0390625 l 1
 809.841796875 338.43359375 902.6796875 262 1067.48632812 262 c 0
 1233.24121094 262 1333.22753906 352.186523438 1342.04882812 520 c 2
 1376.90917969 1183.13964844 l 1
 1376.90917969 1311.0078125 1226 1271.44628906 1226 1354.2265625 c 0
 1226 1517.03125 1397.54785156 1593 1551.45410156 1593 c 0
 1699.37207031 1593 1838.42480469 1515.19335938 1838.42480469 1370.22265625 c 0
 1838.42480469 1256.62695312 1674.37011719 1325.06738281 1666.16601562 1169 c 2
 1633.83886719 516 l 1
 1613.26855469 124.677734375 1292.57128906 -25 903.399414062 -25 c 0
 254.76171875 -25 129.366210938 155.666992188 129.366210938 524.235351562 c 0
 129.366210938 700.5859375 171.909179688 919.590820312 171.909179688 1183.13183594 c 0
EndSplineSet
EndChar

StartChar: V
Encoding: 86 86 57
Width: 1772
GlyphClass: 2
Flags: HMW
LayerCount: 2
Fore
SplineSet
1016.47265625 1370.79785156 m 0
 1016.47265625 1266.3984375 873.600585938 1331.98339844 873.600585938 1230.578125 c 0
 873.600585938 1209.953125 878.911132812 1192.84570312 885.458984375 1174 c 2
 1028.43164062 774 l 2
 1036.05566406 754.052734375 1048.18066406 716 1071.3828125 716 c 0
 1097.1015625 716 1112.43847656 754.264648438 1124.95703125 784 c 2
 1284.45898438 1174 l 2
 1295.21484375 1199.99902344 1300.73144531 1218.62695312 1300.73144531 1238.41796875 c 0
 1300.73144531 1324.22558594 1161.03320312 1276.04785156 1161.03320312 1354.33398438 c 0
 1161.03320312 1516.35546875 1311.85058594 1593 1470.484375 1593 c 0
 1630.00976562 1593 1757.515625 1522.53027344 1757.515625 1372.46582031 c 0
 1757.515625 1309.67871094 1713.01367188 1305.828125 1662.37304688 1296 c 128
 1590.81152344 1282.11230469 1551.05859375 1235.70898438 1520.19628906 1169 c 2
 1180.61132812 435 l 2
 1101.87207031 263.216796875 1024.36328125 -47 811.2734375 -47 c 0
 613.227539062 -47 526.071289062 363.705078125 458.97265625 537 c 2
 213.196289062 1169 l 2
 189.258789062 1230.48632812 154.548828125 1275.2578125 91.1884765625 1292.5 c 128
 55.5224609375 1302.20605469 23 1309.92578125 23 1353.1328125 c 0
 23 1563.16503906 296.751953125 1593 536.484375 1593 c 0
 754.834960938 1593 1016.47265625 1572.42480469 1016.47265625 1370.79785156 c 0
EndSplineSet
EndChar

StartChar: W
Encoding: 87 87 58
Width: 2796
GlyphClass: 2
Flags: HMW
LayerCount: 2
Fore
SplineSet
1099.9921875 1352.91113281 m 0
 1099.9921875 1563.45898438 1373.88085938 1593 1614.48339844 1593 c 0
 1832.5859375 1593 2093.47167969 1572.21484375 2093.47167969 1370.80761719 c 0
 2093.47167969 1269.85449219 1952.65527344 1324.01171875 1952.65527344 1226.90917969 c 0
 1952.65527344 1212.78613281 1955.63378906 1195.46386719 1962.45800781 1174 c 2
 2076.58691406 815 l 2
 2083.43164062 793.770507812 2097.45117188 756 2121.484375 756 c 0
 2147.02246094 756 2162.38378906 795.284179688 2174.11132812 825 c 2
 2308.45800781 1174 l 2
 2318.56347656 1200.1875 2323.68164062 1218.24902344 2323.68164062 1237.58300781 c 0
 2323.68164062 1324.58105469 2185.02929688 1275.63378906 2185.02929688 1354.26855469 c 0
 2185.02929688 1516.34179688 2335.80371094 1593 2494.48339844 1593 c 0
 2654.0078125 1593 2781.51464844 1522.53027344 2781.51464844 1372.46582031 c 0
 2781.51464844 1309.22558594 2739.94628906 1306.39648438 2689.84472656 1295.5 c 128
 2618.70605469 1280.02832031 2572.97460938 1235.87792969 2544.1953125 1169 c 2
 2239.87207031 459 l 2
 2167.32519531 290.333007812 2089.20410156 -47 1872.27246094 -47 c 0
 1656.98632812 -47 1581.72558594 351.021484375 1519.97167969 537 c 2
 1392 918 l 1
 1193.92480469 460 l 2
 1115.98632812 280.219726562 1044.03613281 -47 825.272460938 -47 c 0
 739.901367188 -47 705.875976562 12.9169921875 669.448242188 80 c 128
 595.21484375 216.705078125 544.666992188 361.294921875 472.971679688 537 c 2
 213.1953125 1169 l 2
 187.783203125 1228.98632812 152.12109375 1272.56640625 90.1083984375 1291 c 128
 55.326171875 1301.33886719 23 1310.21289062 23 1353.17578125 c 0
 23 1563.1640625 296.787109375 1593 536.483398438 1593 c 0
 754.833984375 1593 1016.47070312 1572.42480469 1016.47070312 1370.79785156 c 0
 1016.47070312 1267.09179688 870.666992188 1329.01269531 870.666992188 1232.14355469 c 0
 870.666992188 1210.46777344 877.111328125 1192.65234375 885.458007812 1174 c 2
 1030.58691406 815 l 2
 1038.95117188 795.34765625 1051.34667969 757 1074.53710938 757 c 0
 1099.83886719 757 1114.58105469 795.236328125 1127.11132812 825 c 2
 1277.50976562 1194 l 1
 1252.21582031 1245.58691406 1216.19921875 1276.59960938 1160.24023438 1293.5 c 128
 1127.55859375 1303.37109375 1099.9921875 1312.33886719 1099.9921875 1352.91113281 c 0
EndSplineSet
EndChar

StartChar: X
Encoding: 88 88 59
Width: 1867
GlyphClass: 2
Flags: HMW
LayerCount: 2
Fore
SplineSet
1813.68554688 220.62109375 m 0
 1813.68554688 23.8955078125 1552.00585938 0 1325.33300781 0 c 0
 1104.48339844 0 798.758789062 27.0927734375 798.758789062 230.907226562 c 0
 798.758789062 315.505859375 917.938476562 289.34375 917.938476562 355.84765625 c 0
 917.938476562 382.314453125 903.072265625 398.66015625 886.411132812 420 c 2
 781.61328125 557 l 1
 634.411132812 420 l 2
 614.655273438 402.08203125 592.0859375 382.825195312 592.0859375 355.508789062 c 0
 592.0859375 298.4765625 699.145507812 312.376953125 699.145507812 245.448242188 c 0
 699.145507812 57.658203125 471.973632812 0 291.333007812 0 c 0
 152.421875 0 29 62.255859375 29 197.000976562 c 0
 29 303.19921875 121.099609375 305.403320312 197.311523438 332.5 c 128
 255.395507812 353.151367188 302.723632812 381.486328125 348.62109375 424 c 2
 660.918945312 715 l 1
 314.047851562 1174 l 2
 270.899414062 1230.53417969 222.684570312 1262.01855469 151.909179688 1285.5 c 128
 109.112304688 1299.69921875 80.6328125 1316.7109375 80.6328125 1371.01660156 c 0
 80.6328125 1568.91894531 361.764648438 1593 559.073242188 1593 c 0
 803.78125 1593 1075.80957031 1589.64746094 1075.80957031 1367.12988281 c 0
 1075.80957031 1276.54785156 956.475585938 1304.91015625 956.475585938 1237.46191406 c 0
 956.475585938 1211.7265625 971.584960938 1194.15039062 988.047851562 1174 c 2
 1056.36914062 1085 l 1
 1152.04785156 1174 l 2
 1174.10839844 1194.12890625 1200.63476562 1214.06152344 1200.63476562 1243.48632812 c 0
 1200.63476562 1292.89257812 1120.20507812 1287.65429688 1120.20507812 1346.45507812 c 0
 1120.20507812 1529.75292969 1321.30175781 1593 1497.07324219 1593 c 0
 1650.36816406 1593 1789.42382812 1542.80371094 1789.42382812 1396.64160156 c 0
 1789.42382812 1283.78808594 1675.984375 1287.60742188 1591.69921875 1262.5 c 128
 1529.87792969 1244.08398438 1477.59179688 1217.26953125 1432.04785156 1174 c 2
 1178.32617188 932 l 1
 1579.62109375 424 l 2
 1623.06835938 367.424804688 1674.98046875 332.2734375 1745.04980469 308.5 c 128
 1787.25683594 294.1796875 1813.68554688 274.708984375 1813.68554688 220.62109375 c 0
EndSplineSet
EndChar

StartChar: Y
Encoding: 89 89 60
Width: 1773
GlyphClass: 2
Flags: HMW
LayerCount: 2
Fore
SplineSet
1167.28710938 409.827148438 m 1
 1167.28710938 281.853515625 1319.25097656 322.87109375 1319.25097656 239.740234375 c 0
 1319.25097656 19.9951171875 1024.13574219 0 805.744140625 0 c 0
 586.083007812 0 323.805664062 20.2060546875 323.805664062 223.072265625 c 0
 323.805664062 337.581054688 487.727539062 266.006835938 495.822265625 420 c 2
 514.747070312 780 l 1
 254.196289062 1169 l 2
 216.70703125 1225.97753906 166.516601562 1262.50878906 98.767578125 1284.5 c 128
 60.966796875 1296.76953125 23 1306.16210938 23 1353.12011719 c 0
 23 1563.16601562 296.740234375 1593 536.484375 1593 c 0
 754.834960938 1593 1016.47265625 1572.42480469 1016.47265625 1370.79785156 c 0
 1016.47265625 1279.83203125 895.162109375 1310.57617188 895.162109375 1242.92285156 c 0
 895.162109375 1216.5 913.184570312 1197.25 926.458984375 1174 c 2
 1023.52246094 1004 l 1
 1038.54101562 985.333007812 1053.04980469 976 1067.04980469 976 c 0
 1091.09863281 976 1109.01171875 997.735351562 1121.04882812 1014 c 2
 1243.45898438 1174 l 2
 1261.37207031 1197.54199219 1276.32226562 1217.64550781 1276.32226562 1248.94335938 c 0
 1276.32226562 1312.90234375 1161.03417969 1283.67382812 1161.03417969 1354.39160156 c 0
 1161.03417969 1516.36816406 1311.88964844 1593 1470.484375 1593 c 0
 1630.00976562 1593 1757.515625 1522.53027344 1757.515625 1372.46582031 c 0
 1757.515625 1306.74804688 1711.67089844 1300.11328125 1660.3984375 1287 c 128
 1584.08496094 1267.48046875 1523.64941406 1228.6796875 1479.19628906 1169 c 2
 1186.74707031 780 l 1
 1167.28710938 409.827148438 l 1
EndSplineSet
EndChar

StartChar: Z
Encoding: 90 90 61
Width: 1576
GlyphClass: 2
Flags: HMW
LayerCount: 2
Fore
SplineSet
1545.7265625 422.685546875 m 0
 1545.7265625 226.01953125 1425.48535156 0 1237.83691406 0 c 2
 135.836914062 0 l 2
 79.2431640625 0 34 21.5068359375 34 76.4794921875 c 0
 34 127.301757812 61.6669921875 162.1875 84.5078125 203 c 2
 722.440429688 1342.90722656 l 1
 723.200195312 1357.36523438 709.600585938 1374 695.064453125 1374 c 2
 468.064453125 1374 l 1
 420.654296875 1214 l 1
 386.212890625 1115.27539062 324.982421875 1018 203.350585938 1018 c 0
 105.451171875 1018 46.0537109375 1081.08105469 46.0537109375 1177.26660156 c 0
 46.0537109375 1374.02832031 166.75390625 1593 354.577148438 1593 c 2
 1425.57714844 1593 l 2
 1487.58886719 1593 1527.57617188 1571.73144531 1527.57617188 1519.64648438 c 0
 1527.57617188 1477.03125 1502.5234375 1443.01855469 1486.11523438 1413 c 2
 891.974609375 326 l 1
 876.943359375 304.45703125 869.119140625 287.4296875 869.119140625 270.416992188 c 0
 869.119140625 230.85546875 918.932617188 225 960.6640625 225 c 0
 1254.87207031 225 1120.9140625 582 1389.43066406 582 c 0
 1486.90234375 582 1545.7265625 518.29296875 1545.7265625 422.685546875 c 0
EndSplineSet
EndChar

StartChar: bracketleft
Encoding: 91 91 62
Width: 905
GlyphClass: 2
Flags: HMW
LayerCount: 2
Fore
SplineSet
893.145507812 1873.10449219 m 0
 893.145507812 1642.953125 736.860351562 1624 511.442382812 1624 c 1
 435.0078125 170 l 1
 650.569335938 170 792.400390625 156.868164062 792.400390625 -39.390625 c 0
 792.400390625 -277.942382812 562.5234375 -297 328.458007812 -297 c 0
 174.854492188 -297 32.16015625 -245.611328125 37.1259765625 -151.138671875 c 2
 134.436523438 1700 l 2
 147.711914062 1952.53808594 199.955078125 2091 453.990234375 2091 c 0
 671.296875 2091 893.145507812 2073.73339844 893.145507812 1873.10449219 c 0
EndSplineSet
EndChar

StartChar: backslash
Encoding: 92 92 63
Width: 912
GlyphClass: 2
Flags: HMW
LayerCount: 2
Fore
SplineSet
884.162109375 80.611328125 m 0
 884.162109375 -53.353515625 772.811523438 -123 642.739257812 -123 c 0
 524.209960938 -123 462.55859375 -45.21484375 440.5703125 45 c 2
 26.2001953125 1731 l 2
 21.6962890625 1750.99902344 17 1773.99609375 17 1798.41894531 c 0
 17 1933.03222656 128.448242188 1997 262.18359375 1997 c 0
 381.157226562 1997 441.782226562 1921.12011719 462.3515625 1829 c 0
 591.982421875 1272.99609375 740.434570312 696.9921875 875.721679688 143 c 0
 880.46484375 123.577148438 884.162109375 103.06640625 884.162109375 80.611328125 c 0
EndSplineSet
EndChar

StartChar: bracketright
Encoding: 93 93 64
Width: 891
GlyphClass: 2
Flags: HMW
LayerCount: 2
Fore
SplineSet
16 -78.6455078125 m 0
 16 151.083984375 172.221679688 170 397.666992188 170 c 1
 474.1015625 1624 l 1
 257.53125 1624 116.75 1637.02636719 116.75 1834.00390625 c 0
 116.75 2071.97363281 346.768554688 2091 580.649414062 2091 c 0
 734.25 2091 876.947265625 2039.59179688 871.98046875 1945.11035156 c 2
 774.671875 94 l 2
 761.396484375 -158.538085938 709.15234375 -297 455.1171875 -297 c 0
 235.969726562 -297 16 -281.7421875 16 -78.6455078125 c 0
EndSplineSet
EndChar

StartChar: asciicircum
Encoding: 94 94 65
Width: 1083
GlyphClass: 2
Flags: HMW
LayerCount: 2
Fore
SplineSet
1040.40722656 785.708007812 m 0
 1040.40722656 720.051757812 995.587890625 679 934.020507812 679 c 0
 837.379882812 679 789.171875 775.416992188 749.640625 843 c 2
 562.461914062 1163 l 1
 341.640625 843 l 1
 288.158203125 776.361328125 240.708984375 679 140.020507812 679 c 0
 83.509765625 679 44 714.504882812 44 770.54296875 c 0
 44 796.286132812 49.70703125 814.692382812 59.16796875 834 c 2
 213.305664062 1160 l 2
 296.1796875 1334.3515625 358.834960938 1591 584.961914062 1591 c 256
 810.6640625 1591 847.104492188 1333.41894531 911.305664062 1160 c 2
 1031.16796875 834 l 2
 1037.13574219 818.498046875 1040.40722656 803.927734375 1040.40722656 785.708007812 c 0
EndSplineSet
EndChar

StartChar: grave
Encoding: 96 96 67
Width: 823
GlyphClass: 2
Flags: HMW
LayerCount: 2
Fore
SplineSet
39 648.521484375 m 0
 39 788.741210938 153.608398438 891 288.392578125 891 c 0
 503.810546875 891 586.150390625 587.362304688 668 446 c 0
 715.236328125 365.5 785.209960938 280.099609375 785.209960938 171.330078125 c 0
 785.209960938 112.887695312 739.08203125 61 683.76171875 61 c 0
 565.802734375 61 438.624023438 194.985351562 344.958984375 264.5 c 128
 234.978515625 346.123046875 39 466.189453125 39 648.521484375 c 0
EndSplineSet
EndChar

StartChar: a
Encoding: 97 97 68
Width: 1589
GlyphClass: 2
Flags: HMW
LayerCount: 2
Fore
SplineSet
779.258789062 648 m 0
 628.317382812 648 585.196289062 506.51953125 585.196289062 347.956054688 c 0
 585.196289062 258.44921875 611.99609375 205 709.971679688 205 c 0
 817.057617188 205 831.423828125 338.57421875 831.423828125 471.376953125 c 0
 831.423828125 520.076171875 829.4921875 568.670898438 829.4921875 610.538085938 c 0
 829.4921875 621.8984375 829.634765625 632.762695312 829.99609375 643 c 1
 813.126953125 645.427734375 797.375976562 648 779.258789062 648 c 0
38 288.721679688 m 0
 38 653.486328125 340.081054688 760 701.146484375 760 c 2
 838.146484375 760 l 1
 840.645507812 807.54296875 844.524414062 861.846679688 844.524414062 914.1484375 c 0
 844.524414062 1030.53125 825.318359375 1137 728.96484375 1137 c 0
 598.301757812 1137 587.55078125 976.951171875 580.405273438 841 c 1
 393.7265625 841 173.638671875 900.296875 173.638671875 1014.2890625 c 0
 173.638671875 1227.50292969 504.495117188 1325 773.84765625 1325 c 0
 1326.30859375 1325 1429.58886719 1176.16308594 1429.58886719 858.63671875 c 0
 1429.58886719 721.083984375 1399.56347656 552.154296875 1399.56347656 349.393554688 c 0
 1399.56347656 228.477539062 1543.00878906 264.399414062 1543.00878906 188.266601562 c 0
 1543.00878906 23.22265625 1360.47949219 -26 1179.82910156 -26 c 0
 1005.50292969 -26 897.568359375 44.115234375 843.7109375 162 c 1
 784.440429688 38.0283203125 603.268554688 -25 429.880859375 -25 c 0
 199.630859375 -25 38 71.1259765625 38 288.721679688 c 0
EndSplineSet
Substitution2: "'smcp' Lowercase to Small Capitals in Latin lookup 1 subtable" a.sc
Substitution2: "'aalt' Access All Alternates in Latin lookup 0 subtable" a.sc
EndChar

StartChar: b
Encoding: 98 98 69
Width: 1759
GlyphClass: 2
Flags: HMW
LayerCount: 2
Fore
SplineSet
1726.99707031 712.818359375 m 0
 1726.99707031 305.016601562 1547.24609375 -25 1159.06640625 -25 c 0
 969.091796875 -25 813.750976562 52.3837890625 747.0546875 165 c 1
 707.282226562 63.005859375 598.172851562 -26 459.014648438 -26 c 0
 259.252929688 -26 23 -7.220703125 23 177.143554688 c 0
 23 281.22265625 170.659179688 214.555664062 178.04296875 355 c 2
 238.934570312 1513.35351562 l 1
 238.934570312 1630.1015625 101.12890625 1592.02734375 101.12890625 1667.55566406 c 0
 101.12890625 1865.90625 362.587890625 1886 559.524414062 1886 c 256
 725.46484375 1886 868.970703125 1875.44726562 863.901367188 1779.02929688 c 2
 831.149414062 1156 l 1
 933.548828125 1284.56152344 1087.31054688 1325 1265.03320312 1325 c 0
 1591.23339844 1325 1726.99707031 1055.14355469 1726.99707031 712.818359375 c 0
922.418945312 229 m 0
 1084.05566406 229 1101.69042969 442.087890625 1101.69042969 642.1484375 c 0
 1101.69042969 697.986328125 1100.31640625 752.809570312 1100.31640625 801.702148438 c 0
 1100.31640625 943.03125 1075.86523438 1069 948.576171875 1069 c 0
 898.998046875 1069 825.266601562 1025.078125 823.317382812 988 c 2
 790.130859375 356.67578125 l 1
 790.130859375 282.866210938 830.146484375 229 922.418945312 229 c 0
EndSplineSet
Substitution2: "'smcp' Lowercase to Small Capitals in Latin lookup 1 subtable" b.sc
Substitution2: "'aalt' Access All Alternates in Latin lookup 0 subtable" b.sc
EndChar

StartChar: c
Encoding: 99 99 70
Width: 1317
GlyphClass: 2
Flags: HMW
LayerCount: 2
Fore
SplineSet
34 603.376953125 m 0
 34 1045.51855469 328.29296875 1325 754.6953125 1325 c 0
 1053.76171875 1325 1290.75976562 1218.70898438 1290.75976562 940.067382812 c 0
 1290.75976562 835.296875 1240.54589844 766 1141.31054688 766 c 0
 927.076171875 766 1033.71972656 1069 827.23828125 1069 c 0
 666.553710938 1069 642.986328125 891.1796875 642.986328125 721.864257812 c 0
 642.986328125 492.4375 704.715820312 332 925.495117188 332 c 0
 1040.54882812 332 1136.55371094 412 1224.70019531 412 c 0
 1254.68457031 412 1270.45703125 382.758789062 1270.45703125 352.556640625 c 0
 1270.45703125 339.088867188 1269.37109375 328.4765625 1264.8125 319 c 0
 1172.51367188 111.3359375 958.163085938 -25 669.728515625 -25 c 0
 277.426757812 -25 34 226.104492188 34 603.376953125 c 0
EndSplineSet
Substitution2: "'smcp' Lowercase to Small Capitals in Latin lookup 1 subtable" c.sc
Substitution2: "'aalt' Access All Alternates in Latin lookup 0 subtable" c.sc
EndChar

StartChar: d
Encoding: 100 100 71
Width: 1736
GlyphClass: 2
Flags: HMW
LayerCount: 2
Fore
SplineSet
36 566.5 m 0
 36 983.946289062 213.642578125 1325 611.961914062 1325 c 0
 778 1325 898.198242188 1278.74316406 982.600585938 1204 c 1
 998.869140625 1513.45410156 l 1
 998.869140625 1630.41992188 862.056640625 1591.69140625 862.056640625 1667.50097656 c 0
 862.056640625 1865.57421875 1122.94824219 1886 1319.453125 1886 c 0
 1488.62988281 1886 1629.73339844 1875.23535156 1629.73339844 1773.33300781 c 0
 1629.73339844 1771.22363281 1629.67285156 1769.07519531 1629.55078125 1766.88671875 c 2
 1552.07226562 376.456054688 l 1
 1552.07226562 257.985351562 1690.703125 294.0078125 1690.703125 218.422851562 c 0
 1690.703125 27.0849609375 1437.37011719 -26 1218.94335938 -26 c 0
 1083.22363281 -26 993.344726562 35.115234375 956.986328125 127 c 1
 852.161132812 34.716796875 710.797851562 -25 512.995117188 -25 c 0
 164.435546875 -25 36 230.80078125 36 566.5 c 0
816.504882812 1069 m 0
 646.998046875 1069 637.422851562 792.209960938 637.422851562 585.952148438 c 0
 637.422851562 559.681640625 637.578125 534.5546875 637.578125 511.290039062 c 0
 637.578125 369.508789062 660.810546875 229 786.34765625 229 c 0
 841.579101562 229 931.547851562 232.807617188 933.71875 274.104492188 c 2
 972.614257812 1014 l 1
 933.348632812 1037.83398438 877.880859375 1069 816.504882812 1069 c 0
EndSplineSet
Substitution2: "'smcp' Lowercase to Small Capitals in Latin lookup 1 subtable" d.sc
Substitution2: "'aalt' Access All Alternates in Latin lookup 0 subtable" d.sc
EndChar

StartChar: e
Encoding: 101 101 72
Width: 1336
GlyphClass: 2
Flags: HMW
LayerCount: 2
Fore
SplineSet
969.197265625 823 m 1
 969.975585938 837.821289062 970.413085938 852.231445312 970.413085938 866.155273438 c 0
 970.413085938 985.4375 938.369140625 1069 815.129882812 1069 c 0
 696.233398438 1069 656.68359375 946.376953125 650.197265625 823 c 1
 969.197265625 823 l 1
1309.23828125 840.153320312 m 0
 1309.23828125 701.233398438 1251.09960938 682 1119.78515625 682 c 2
 638.78515625 682 l 1
 637.877929688 664.749023438 637.409179688 648.14453125 637.409179688 632.184570312 c 0
 637.409179688 430.709960938 712.1875 332 925.38671875 332 c 0
 1043.3125 332 1139.66796875 412 1224.59179688 412 c 0
 1254.21582031 412 1270.39160156 382.856445312 1270.39160156 353.252929688 c 0
 1270.39160156 339.676757812 1268.3359375 329.520507812 1263.75585938 320 c 0
 1168.87792969 106.533203125 966.928710938 -25 668.620117188 -25 c 0
 275.751953125 -25 34 245.330078125 34 607.327148438 c 0
 34 1026.33105469 329.663085938 1325 754.586914062 1325 c 0
 1076.53125 1325 1309.23828125 1147.78222656 1309.23828125 840.153320312 c 0
EndSplineSet
Substitution2: "'smcp' Lowercase to Small Capitals in Latin lookup 1 subtable" e.sc
Substitution2: "'aalt' Access All Alternates in Latin lookup 0 subtable" e.sc
EndChar

StartChar: f
Encoding: 102 102 73
Width: 1312
GlyphClass: 2
Flags: HMW
LayerCount: 2
Fore
SplineSet
795.3125 1664.31347656 m 0
 684.408203125 1664.31347656 602.380859375 1581.60253906 602.380859375 1489.83398438 c 0
 602.380859375 1394.64648438 694.690429688 1296 938.247070312 1296 c 0
 1002.01660156 1296 1031.22265625 1248.60253906 1031.22265625 1200.18652344 c 0
 1031.22265625 1149.64746094 999.397460938 1098 941.837890625 1098 c 2
 829.837890625 1098 l 1
 791.801757812 374.456054688 l 1
 791.801757812 255.983398438 930.40625 292.0078125 930.40625 216.424804688 c 0
 930.40625 25.1669921875 679.576171875 0 461.118164062 0 c 0
 261.942382812 0 25 17.1572265625 25 201.212890625 c 0
 25 305.17578125 172.66015625 238.596679688 180.041015625 379 c 2
 217.732421875 1096 l 1
 168.732421875 1096 l 2
 105.374023438 1096 75.9013671875 1140.81835938 75.9013671875 1188.02246094 c 0
 75.9013671875 1240.53515625 112.375 1296 179.247070312 1296 c 2
 234.247070312 1296 l 1
 253.709960938 1666.25488281 536.982421875 1860 819.89453125 1860 c 0
 1070.17285156 1860 1299.61523438 1797.68164062 1299.61523438 1560.32714844 c 0
 1299.61523438 1425.98828125 1206.05566406 1346 1073.875 1346 c 0
 946.35546875 1346 875.326171875 1420.26855469 875.326171875 1518.96289062 c 0
 875.326171875 1556.07226562 885.368164062 1596.63476562 906.224609375 1638 c 1
 867.134765625 1656.32617188 829.709960938 1664.31347656 795.3125 1664.31347656 c 0
EndSplineSet
Substitution2: "'smcp' Lowercase to Small Capitals in Latin lookup 1 subtable" f.sc
Substitution2: "'aalt' Access All Alternates in Latin lookup 0 subtable" f.sc
EndChar

StartChar: g
Encoding: 103 103 74
Width: 1673
GlyphClass: 2
Flags: HMW
LayerCount: 2
Back
SplineSet
1391.73730469 925.276367188 m 4
 1391.73730469 584.90234375 1057.84375 414 721.390625 414 c 4
 668.057617188 414 615.267578125 418 563.021484375 426 c 5
 563.021484375 401 l 5
 560.759765625 357.966796875 650.237304688 351.673828125 701.815429688 346 c 132
 1051.58300781 307.522460938 1450.9296875 295.247070312 1450.9296875 -75.2607421875 c 4
 1450.9296875 -452.077148438 1115.375 -598 757.19140625 -598 c 4
 409.772460938 -598 58.42578125 -518.630859375 58.42578125 -187.701171875 c 4
 58.42578125 -99.958984375 86.01953125 -40.3505859375 132.522460938 -2 c 5
 73.3701171875 42.6142578125 34 106.69921875 34 206.081054688 c 4
 34 393.255859375 173.3125 464.500976562 317.122070312 504 c 5
 193.3359375 567.5625 88.263671875 675.161132812 88.263671875 855.645507812 c 4
 88.263671875 1209.8984375 496.130859375 1325 853.279296875 1325 c 4
 1083.06542969 1325 1209.64257812 1237 1209.65332031 1237 c 4
 1295.56054688 1237 1386.13867188 1325 1501.27929688 1325 c 4
 1616.26367188 1325 1692.49316406 1275.52734375 1692.49316406 1164.47949219 c 4
 1692.49316406 1056.63769531 1620.19726562 985 1515.40722656 985 c 260
 1378.44824219 985 1428.80273438 1147 1339.92285156 1147 c 4
 1330.74121094 1147 1323.56738281 1145.18554688 1314.71289062 1143 c 5
 1359.13476562 1087.22753906 1391.73730469 1015.7890625 1391.73730469 925.276367188 c 4
387.895507812 -90 m 5
 387.86328125 -92.2734375 387.846679688 -94.5244140625 387.846679688 -96.7529296875 c 4
 387.846679688 -288.782226562 506.6328125 -317 711.962890625 -317 c 4
 825.567382812 -317 941.693359375 -296.866210938 941.693359375 -187.915039062 c 4
 941.693359375 -80.3662109375 496.196289062 -105.342773438 387.895507812 -90 c 5
776.822265625 1069 m 4
 680.40234375 1069 635.305664062 998.828125 635.305664062 898.775390625 c 4
 635.305664062 802.555664062 678.51953125 686 768.688476562 686 c 4
 867.474609375 686 915.69921875 781.12890625 915.69921875 884.805664062 c 4
 915.69921875 980.4140625 872.181640625 1069 776.822265625 1069 c 4
EndSplineSet
Fore
SplineSet
1349.47363281 925.276367188 m 0
 1349.47363281 584.90234375 1105.58007812 414 769.126953125 414 c 0
 715.793945312 414 573.00390625 418 520.7578125 426 c 1
 520.7578125 331 l 2
 519.775390625 312.313476562 553.004882812 307.02734375 595.166992188 307.02734375 c 0
 650.098632812 307.02734375 720.1953125 316 749.551757812 316 c 128
 1195.98339844 316 1438.66601562 295.247070312 1438.66601562 -75.2607421875 c 0
 1438.66601562 -452.077148438 1133.11132812 -578 774.927734375 -578 c 0
 427.508789062 -578 76.162109375 -518.630859375 76.162109375 -187.701171875 c 0
 76.162109375 -99.958984375 133.755859375 -50.3505859375 180.258789062 -12 c 1
 121.106445312 32.6142578125 51.736328125 106.69921875 51.736328125 206.081054688 c 0
 51.736328125 393.255859375 131.048828125 464.500976562 274.858398438 504 c 1
 151.072265625 567.5625 46 675.161132812 46 855.645507812 c 0
 46 1209.8984375 363.8671875 1325 721.015625 1325 c 0
 950.801757812 1325 1167.37890625 1237 1167.38964844 1237 c 0
 1253.296875 1237 1343.875 1325 1459.015625 1325 c 0
 1574 1325 1650.22949219 1275.52734375 1650.22949219 1164.47949219 c 0
 1650.22949219 1056.63769531 1577.93359375 985 1473.14355469 985 c 256
 1336.18457031 985 1386.5390625 1147 1297.65917969 1147 c 0
 1288.47753906 1147 1281.30371094 1145.18554688 1272.44921875 1143 c 1
 1316.87109375 1087.22753906 1349.47363281 1015.7890625 1349.47363281 925.276367188 c 0
405.631835938 -90 m 1
 405.599609375 -92.2734375 405.583007812 -94.5244140625 405.583007812 -96.7529296875 c 0
 405.583007812 -288.782226562 524.369140625 -317 729.69921875 -317 c 0
 843.303710938 -317 959.4296875 -296.866210938 959.4296875 -187.915039062 c 0
 959.4296875 -80.3662109375 513.932617188 -105.342773438 405.631835938 -90 c 1
734.55859375 1069 m 0
 638.138671875 1069 593.041992188 998.828125 593.041992188 898.775390625 c 0
 593.041992188 802.555664062 636.255859375 686 726.424804688 686 c 0
 825.2109375 686 873.435546875 781.12890625 873.435546875 884.805664062 c 0
 873.435546875 980.4140625 829.91796875 1069 734.55859375 1069 c 0
EndSplineSet
Substitution2: "'smcp' Lowercase to Small Capitals in Latin lookup 1 subtable" g.sc
Substitution2: "'aalt' Access All Alternates in Latin lookup 0 subtable" g.sc
EndChar

StartChar: h
Encoding: 104 104 75
Width: 1907
GlyphClass: 2
Flags: HMW
LayerCount: 2
Back
SplineSet
837.45396077 351.037929409 m 5
 837.45396077 252.782687283 948.425362379 291.237663402 948.425362379 219.540783774 c 4
 948.425362379 27.0528999868 727.348449177 0 508 0 c 4
 294.152208865 0 72.9965639683 27.8291907715 72.9965639683 203.514947519 c 4
 72.9965639683 307.384181589 219.646430232 240.575851945 227.028320312 381 c 6
 286.559663283 1513.45429315 l 5
 286.559663283 1630.42000104 149.747229448 1591.6910956 149.747229448 1667.50141243 c 4
 149.747229448 1857.01423088 393.425904133 1886 607.143554688 1886 c 4
 772.482430609 1886 922.418143654 1875.31412638 917.049384463 1780.0026421 c 6
 879.928710938 1121 l 5
 993.606445312 1255.98046875 1165.55566406 1325 1372.65234375 1325 c 4
 1583.88629727 1325 1841.70539594 1249.91568346 1835.0005401 1122.36898581 c 6
 1794.76179496 356.90598664 l 5
 1794.76179496 255.568042025 1908.42063861 292.089204398 1908.42063861 219.372541081 c 4
 1908.42063861 27.0053814667 1688.32466532 0 1469 0 c 4
 1270.2790055 0 1082.90823396 18.5845532452 1082.90823396 200.276003512 c 4
 1082.90823396 303.344436228 1185.53313167 257.469891507 1192.44921875 389 c 6
 1217.48841204 865.330691325 l 5
 1217.48841204 987.131240198 1188.98343276 1069 1055.1953125 1069 c 4
 952.408203125 1069 870.23046875 974.560546875 867.520507812 923 c 6
 837.45396077 351.037929409 l 5
EndSplineSet
Fore
SplineSet
788.45703125 351.038085938 m 1
 788.45703125 252.782226562 899.428710938 291.237304688 899.428710938 219.541015625 c 0
 899.428710938 27.052734375 678.3515625 0 459.00390625 0 c 0
 245.155273438 0 24 27.8291015625 24 203.514648438 c 0
 24 307.383789062 170.649414062 240.576171875 178.032226562 381 c 2
 237.563476562 1513.45410156 l 1
 237.563476562 1630.41992188 100.750976562 1591.69140625 100.750976562 1667.50097656 c 0
 100.750976562 1857.01464844 344.4296875 1886 558.147460938 1886 c 0
 723.486328125 1886 873.421875 1875.31445312 868.052734375 1780.00292969 c 2
 830.932617188 1121 l 1
 944.610351562 1255.98046875 1116.55957031 1325 1323.65625 1325 c 0
 1707.609375 1325 1790.55175781 1129.85351562 1790.55175781 882.317382812 c 0
 1790.55175781 723.740234375 1745.765625 561.6328125 1745.765625 356.90625 c 0
 1745.765625 255.568359375 1859.42382812 292.088867188 1859.42382812 219.372070312 c 0
 1859.42382812 27.005859375 1639.328125 0 1420.00390625 0 c 0
 1221.28222656 0 1033.91210938 18.5849609375 1033.91210938 200.276367188 c 0
 1033.91210938 303.344726562 1136.53613281 257.469726562 1143.453125 389 c 2
 1168.4921875 865.331054688 l 1
 1168.4921875 987.130859375 1139.98730469 1069 1006.19921875 1069 c 0
 903.412109375 1069 821.234375 974.560546875 818.524414062 923 c 2
 788.45703125 351.038085938 l 1
EndSplineSet
Substitution2: "'smcp' Lowercase to Small Capitals in Latin lookup 1 subtable" h.sc
Substitution2: "'aalt' Access All Alternates in Latin lookup 0 subtable" h.sc
EndChar

StartChar: i
Encoding: 105 105 76
Width: 932
GlyphClass: 2
Flags: HMW
LayerCount: 2
Fore
SplineSet
874.629882812 1654.20898438 m 0
 874.629882812 1471.21679688 706.495117188 1393 535.268554688 1393 c 0
 373.279296875 1393 222.892578125 1468.38183594 222.892578125 1626.48632812 c 0
 222.892578125 1806.796875 392.853515625 1888 561.2890625 1888 c 0
 726.2734375 1888 874.629882812 1814.94140625 874.629882812 1654.20898438 c 0
775.413085938 349.4921875 m 1
 775.413085938 250.848632812 886.465820312 291.705078125 886.465820312 219.5390625 c 0
 886.465820312 27.052734375 665.387695312 0 446.041015625 0 c 0
 246.642578125 0 30 18.7119140625 30 202.139648438 c 0
 30 305.918945312 158.083984375 248.124023438 165.069335938 381 c 2
 193.576171875 923.284179688 l 1
 193.576171875 1039.58300781 55.775390625 1002.30175781 55.775390625 1077.58007812 c 0
 55.775390625 1275.90625 317.25390625 1296 514.169921875 1296 c 256
 680.541015625 1296 824.62890625 1285.75390625 819.547851562 1189.08691406 c 2
 775.413085938 349.4921875 l 1
EndSplineSet
Substitution2: "'smcp' Lowercase to Small Capitals in Latin lookup 1 subtable" i.sc
Substitution2: "'aalt' Access All Alternates in Latin lookup 0 subtable" i.sc
EndChar

StartChar: j
Encoding: 106 106 77
Width: 962
GlyphClass: 2
Flags: HMW
LayerCount: 2
Fore
SplineSet
945.6875 1654.16503906 m 0
 945.6875 1471.71386719 777.978515625 1393 607.328125 1393 c 0
 444.952148438 1393 293.952148438 1467.99609375 293.952148438 1626.47363281 c 0
 293.952148438 1807.22851562 464.470703125 1888 633.348632812 1888 c 0
 797.783203125 1888 945.6875 1814.43457031 945.6875 1654.16503906 c 0
12 -233.260742188 m 0
 12 -168.83984375 62.7451171875 -119 124.844726562 -119 c 0
 300.504882812 -119 351.502929688 -75.720703125 351.502929688 -6.5361328125 c 0
 351.502929688 51.3076171875 239.899414062 129.333007812 244.266601562 212.416015625 c 2
 281.635742188 923.284179688 l 1
 281.635742188 1039.58300781 143.834960938 1002.30175781 143.834960938 1077.58007812 c 0
 143.834960938 1275.90625 405.313476562 1296 602.229492188 1296 c 0
 768.665039062 1296 914.66796875 1285.35449219 909.53515625 1187.72167969 c 2
 858.717773438 221 l 2
 839.276367188 -148.845703125 563.716796875 -340 191.227539062 -340 c 0
 100.990234375 -340 12 -315.6640625 12 -233.260742188 c 0
EndSplineSet
Substitution2: "'smcp' Lowercase to Small Capitals in Latin lookup 1 subtable" j.sc
Substitution2: "'aalt' Access All Alternates in Latin lookup 0 subtable" j.sc
EndChar

StartChar: k
Encoding: 107 107 78
Width: 1893
GlyphClass: 2
Flags: HMW
LayerCount: 2
Fore
SplineSet
1839.66113281 224.014648438 m 0
 1839.66113281 28.796875 1621.81738281 0 1429.01367188 0 c 0
 1079.70800781 0 1128.3984375 97.859375 1033.15234375 307 c 2
 890.606445312 620 l 1
 892.4453125 620.228515625 800.8203125 567 800.8203125 567 c 1
 790.8046875 376.482421875 l 1
 790.8046875 257.778320312 930.407226562 294.118164062 930.407226562 218.41015625 c 0
 930.407226562 26.93359375 678.53515625 0 460.013671875 0 c 0
 260.251953125 0 24 18.779296875 24 203.142578125 c 0
 24 307.223632812 171.659179688 240.5546875 179.041992188 381 c 2
 238.568359375 1513.35351562 l 1
 238.568359375 1630.1015625 100.762695312 1592.02734375 100.762695312 1667.55566406 c 0
 100.762695312 1865.90625 362.220703125 1886 559.157226562 1886 c 0
 729.515625 1886 869.80078125 1879.23828125 863.416992188 1757.8046875 c 2
 809.3359375 729 l 2
 809.188476562 729 897.862304688 782.374023438 931.172851562 802 c 2
 1189.16308594 954 l 2
 1211.14941406 968.041992188 1229.16015625 985.186523438 1229.16015625 1012.00488281 c 0
 1229.16015625 1062.82714844 1135.24121094 1067.40234375 1135.24121094 1125.38085938 c 0
 1135.24121094 1276.13378906 1326.57324219 1296 1471.14257812 1296 c 0
 1627.76660156 1296 1814.62597656 1283.50097656 1814.62597656 1139.77636719 c 0
 1814.62597656 1022.21386719 1584.73632812 1005.25683594 1510.16308594 954 c 2
 1354.48730469 847 l 1
 1603.30566406 367 l 2
 1630.63671875 312.068359375 1682.52929688 288.8671875 1755.81152344 281.5 c 0
 1801.12597656 276.944335938 1839.66113281 271.676757812 1839.66113281 224.014648438 c 0
EndSplineSet
Substitution2: "'smcp' Lowercase to Small Capitals in Latin lookup 1 subtable" k.sc
Substitution2: "'aalt' Access All Alternates in Latin lookup 0 subtable" k.sc
EndChar

StartChar: l
Encoding: 108 108 79
Width: 944
GlyphClass: 2
Flags: HMW
LayerCount: 2
Fore
SplineSet
789.431640625 350.365234375 m 1
 789.431640625 252.702148438 899.439453125 291.200195312 899.439453125 219.58984375 c 0
 899.439453125 27.052734375 678.401367188 0 459.012695312 0 c 0
 259.794921875 0 24 19.1708984375 24 203.16796875 c 0
 24 307.619140625 170.6484375 240.37109375 178.041015625 381 c 2
 237.521484375 1512.49023438 l 1
 237.521484375 1630.84375 80.771484375 1591.34472656 80.771484375 1667.90625 c 0
 80.771484375 1865.63769531 361.940429688 1886 558.15625 1886 c 0
 739.352539062 1886 869.534179688 1874.16113281 863.01953125 1750.23339844 c 2
 789.431640625 350.365234375 l 1
EndSplineSet
Substitution2: "'smcp' Lowercase to Small Capitals in Latin lookup 1 subtable" l.sc
Substitution2: "'aalt' Access All Alternates in Latin lookup 0 subtable" l.sc
EndChar

StartChar: m
Encoding: 109 109 80
Width: 2689
GlyphClass: 2
Flags: HMW
LayerCount: 2
Back
SplineSet
1075 215 m 4xd8
 1075 299.32421875 1175 254.173834683 1175 381 c 6
 1175 808 l 6
 1175 962.15625 1135.27050781 1069 982 1069 c 4xd8
 887.370117188 1069 808 997.772460938 808 904 c 6
 808 385 l 6
 808 319.25390625 813.670898438 282.419921875 864 270.5 c 4
 898.607421875 262.303710938 928 257.916992188 928 215 c 4
 928 27.0869140625 722.08203125 0 499 0 c 4
 295.036132812 0 72 19.578125 72 215 c 4
 72 298.377647514 198 255.250437582 198 381 c 6
 198 915 l 6
 198 1043.20414878 52 999.348406067 52 1081 c 4
 52 1275.81933594 287.2734375 1296 489 1296 c 4xb8
 622.64453125 1296 796.122070312 1258.60449219 806 1118 c 5
 941.953125 1280.50488281 1105.02929688 1325 1311 1325 c 4
 1636.49023438 1325 1779 1132.40136719 1779 771 c 6
 1779 390 l 6
 1779 263.059570312 1910 300.294886742 1910 215 c 4
 1910 27.033203125 1695.20410156 0 1472 0 c 4
 1268.03613281 0 1075 19.578125 1075 215 c 4xd8
EndSplineSet
Fore
SplineSet
857.5234375 221.518554688 m 0
 857.5234375 29.5810546875 651.159179688 0 436.041992188 0 c 0
 240.529296875 0 32 21.919921875 32 202.109375 c 0
 32 305.936523438 160.083984375 248.107421875 167.0703125 381 c 2
 195.577148438 923.284179688 l 1
 195.577148438 1039.58300781 57.7763671875 1002.30175781 57.7763671875 1077.58007812 c 0
 57.7763671875 1272.03417969 306.888671875 1296 499.170898438 1296 c 0
 622.551757812 1296 789.512695312 1280.453125 817.91796875 1120 c 1
 954.108398438 1271.71289062 1127.91699219 1325 1324.69433594 1325 c 0
 1477.30664062 1325 1611.015625 1248.37792969 1658.54882812 1132 c 1
 1743.00878906 1235.484375 1892.25976562 1325 2126.69433594 1325 c 0
 2464.31152344 1325 2569.22753906 1121.54492188 2569.22753906 805.686523438 c 0
 2569.22753906 636.6484375 2546.38769531 500.72265625 2546.38769531 354.788085938 c 0
 2546.38769531 263.803710938 2637.65136719 291.510742188 2637.65136719 225.647460938 c 0
 2637.65136719 23.109375 2443.76269531 0 2244.04199219 0 c 0
 2050.65527344 0 1862.96777344 22.7353515625 1862.96777344 200.915039062 c 0
 1862.96777344 293.682617188 1935.70117188 259.862304688 1942.0703125 381 c 2
 1967.44335938 863.67578125 l 1
 1967.44335938 974.994140625 1941.78515625 1069 1829.23730469 1069 c 0
 1741.0546875 1069 1701.00683594 1007.55566406 1696.40429688 920 c 2
 1665.48046875 331.736328125 l 1
 1665.48046875 260.704101562 1740.53515625 283.771484375 1740.53515625 221.916015625 c 0
 1740.53515625 22.75390625 1563.43457031 0 1365.04199219 0 c 0
 1171.65527344 0 983.967773438 22.7353515625 983.967773438 200.915039062 c 0
 983.967773438 294.103515625 1057.64257812 258.7421875 1064.0703125 381 c 2
 1090.99023438 893.090820312 l 1
 1090.99023438 996.94140625 1066.65429688 1067 965.131835938 1067 c 0
 877.522460938 1067 808.801757812 984.629882812 804.1953125 897 c 2
 774.685546875 335.624023438 l 1
 774.685546875 257.641601562 857.5234375 285.916992188 857.5234375 221.518554688 c 0
EndSplineSet
Substitution2: "'smcp' Lowercase to Small Capitals in Latin lookup 1 subtable" m.sc
Substitution2: "'aalt' Access All Alternates in Latin lookup 0 subtable" m.sc
EndChar

StartChar: n
Encoding: 110 110 81
Width: 1919
GlyphClass: 2
Flags: HMW
LayerCount: 2
Back
SplineSet
1045 215 m 0xd8
 1045 299.324233773 1175 254.173834683 1175 381 c 2
 1175 808 l 2
 1175 962.15625 1135.27050781 1069 982 1069 c 0xd8
 887.370117188 1069 812 1008.77246094 812 915 c 2
 810 385 l 2
 810 319.25390625 823.670898438 282.419921875 874 270.5 c 0
 908.607421875 262.303710938 938 257.916992188 938 215 c 0
 938 27.0869140625 722.08203125 0 499 0 c 0
 295.036132812 0 72 19.578125 72 215 c 0
 72 298.377647514 198 255.250437582 198 381 c 2
 198 915 l 2
 198 1043.20414878 52 999.348406067 52 1081 c 0
 52 1275.81933594 297.2734375 1296 499 1296 c 0xb8
 632.64453125 1296 756.122070312 1272.60449219 796 1190 c 1
 911.953125 1272.50488281 1075.02929688 1325 1281 1325 c 0
 1646.49023438 1325 1779 1122.40136719 1779 761 c 2
 1779 390 l 2
 1779 263.059546682 1910 300.294886742 1910 215 c 0
 1910 27.033203125 1695.20410156 0 1472 0 c 0
 1268.03613281 0 1045 19.578125 1045 215 c 0xd8
EndSplineSet
Fore
SplineSet
775.685546875 354.66015625 m 1
 775.685546875 253.3203125 888.465820312 291.850585938 888.465820312 219.541015625 c 0
 888.465820312 27.052734375 667.389648438 0 448.041015625 0 c 0
 248.642578125 0 32 18.7119140625 32 202.139648438 c 0
 32 305.918945312 160.083984375 248.124023438 167.069335938 381 c 2
 195.576171875 923.284179688 l 1
 195.576171875 1039.58300781 57.775390625 1002.30175781 57.775390625 1077.58007812 c 0
 57.775390625 1275.86425781 309.288085938 1296 506.169921875 1296 c 0
 639.814453125 1296 811.325195312 1258.60449219 813.8125 1118 c 5
 938.307617188 1259.50488281 1123.72265625 1325 1329.69335938 1325 c 4
 1704.40039062 1325 1776.8203125 1123.69433594 1776.8203125 880.004882812 c 0
 1776.8203125 726.456054688 1748.06738281 580.198242188 1748.06738281 380.977539062 c 0
 1748.06738281 266.796875 1870.45410156 297.11328125 1870.45410156 219.14453125 c 0
 1870.45410156 26.953125 1640.22167969 0 1421.04101562 0 c 0
 1222.31933594 0 1034.94921875 18.5849609375 1034.94921875 200.276367188 c 0
 1034.94921875 306.794921875 1136.99902344 246.501953125 1144.06933594 381 c 2
 1168.61035156 847.850585938 l 1
 1168.61035156 980.235351562 1126.89746094 1069 987.236328125 1069 c 0
 892.606445312 1069 809.4921875 997.772460938 804.5625 904 c 2
 775.685546875 354.66015625 l 1
EndSplineSet
Substitution2: "'smcp' Lowercase to Small Capitals in Latin lookup 1 subtable" n.sc
Substitution2: "'aalt' Access All Alternates in Latin lookup 0 subtable" n.sc
EndChar

StartChar: o
Encoding: 111 111 82
Width: 1551
GlyphClass: 2
Flags: HMW
LayerCount: 2
Fore
SplineSet
1521.671875 711.825195312 m 0
 1521.671875 243.422851562 1169.01367188 -25 716.078125 -25 c 0
 309.427734375 -25 34 226.638671875 34 617.052734375 c 0
 34 1088.36132812 400.166015625 1325 856.044921875 1325 c 0
 1252.58691406 1325 1521.671875 1092.18457031 1521.671875 711.825195312 c 0
789.587890625 1069 m 0
 646.166015625 1069 637.310546875 843.298828125 637.310546875 668.616210938 c 0
 637.310546875 644.006835938 637.486328125 620.41015625 637.486328125 598.599609375 c 0
 637.486328125 422.551757812 667.252929688 231 774.536132812 231 c 0
 908.227539062 231 918.791015625 482.522460938 918.791015625 666.653320312 c 0
 918.791015625 701.213867188 918.418945312 733.400390625 918.418945312 761.103515625 c 0
 918.418945312 917.268554688 895.740234375 1069 789.587890625 1069 c 0
EndSplineSet
Substitution2: "'smcp' Lowercase to Small Capitals in Latin lookup 1 subtable" o.sc
Substitution2: "'aalt' Access All Alternates in Latin lookup 0 subtable" o.sc
EndChar

StartChar: p
Encoding: 112 112 83
Width: 1703
GlyphClass: 2
Flags: HMW
LayerCount: 2
Fore
SplineSet
1671.24121094 716.926757812 m 0
 1671.24121094 305.374023438 1518.46679688 -25 1124.18945312 -25 c 0
 982.3984375 -25 874.231445312 6.9609375 791.500976562 57 c 1
 778.798828125 -184.615234375 l 1
 778.798828125 -303.533203125 917.408203125 -266.719726562 917.408203125 -342.551757812 c 0
 917.408203125 -534.068359375 665.568359375 -561 447.013671875 -561 c 0
 247.795898438 -561 12 -541.829101562 12 -357.83203125 c 0
 12 -253.380859375 158.649414062 -320.62890625 166.041992188 -180 c 2
 224.044921875 923.385742188 l 1
 224.044921875 1039.90625 87.2373046875 1001.96191406 87.2373046875 1077.52636719 c 0
 87.2373046875 1275.57421875 348.149414062 1296 544.6328125 1296 c 0
 674.6015625 1296 770.43359375 1288.39160156 813.583984375 1219 c 1
 906.284179688 1285.88769531 1030.93261719 1325 1189.15625 1325 c 0
 1541.8828125 1325 1671.24121094 1057.75976562 1671.24121094 716.926757812 c 0
889.120117188 240 m 0
 1048.94433594 240 1066.96875 442.556640625 1066.96875 637.962890625 c 0
 1066.96875 694.875976562 1065.44042969 751.18359375 1065.44042969 801.702148438 c 0
 1065.44042969 943.03125 1040.98828125 1069 913.69921875 1069 c 0
 902.4453125 1069 887.627929688 1070.58984375 874.553710938 1070.58984375 c 0
 858.247070312 1070.58984375 847.109375 1067.98046875 846.491210938 1056.86523438 c 2
 801.961914062 256 l 1
 827.18359375 246.1953125 855.395507812 240 889.120117188 240 c 0
EndSplineSet
Substitution2: "'smcp' Lowercase to Small Capitals in Latin lookup 1 subtable" p.sc
Substitution2: "'aalt' Access All Alternates in Latin lookup 0 subtable" p.sc
EndChar

StartChar: q
Encoding: 113 113 84
Width: 1753
GlyphClass: 2
Flags: HMW
LayerCount: 2
Fore
SplineSet
37 566.5 m 0
 37 981.443359375 194.455078125 1325 590.961914062 1325 c 0
 776.354492188 1325 909.375976562 1267.27929688 999.33984375 1180 c 1
 1039.41210938 1283.84375 1156.19726562 1296 1298.43847656 1296 c 0
 1497.65625 1296 1733.45117188 1276.82910156 1733.45117188 1092.83105469 c 0
 1733.45117188 988.689453125 1586.77734375 1055.18554688 1579.40917969 915 c 2
 1521.40332031 -188.455078125 l 1
 1521.40332031 -305.419921875 1658.21484375 -266.69140625 1658.21484375 -342.501953125 c 0
 1658.21484375 -540.57421875 1397.32226562 -561 1200.81933594 -561 c 0
 982.009765625 -561 752.818359375 -535.068359375 752.818359375 -357.337890625 c 0
 752.818359375 -253.884765625 902.586914062 -318.446289062 909.057617188 -176 c 2
 921.776367188 104 l 1
 826.595703125 23.171875 688.41796875 -25 513.995117188 -25 c 0
 165.435546875 -25 37 230.80078125 37 566.5 c 0
839.504882812 1069 m 0
 643.534179688 1069 636.545898438 707.040039062 636.545898438 480.108398438 c 0
 636.545898438 462.681640625 636.586914062 446.051757812 636.586914062 430.442382812 c 0
 636.586914062 321.875976562 661.489257812 240 777.92578125 240 c 0
 834.010742188 240 929.046875 242.306640625 931.291992188 285 c 2
 970.139648438 1024 l 1
 937.329101562 1047.08789062 894.032226562 1069 839.504882812 1069 c 0
EndSplineSet
Substitution2: "'smcp' Lowercase to Small Capitals in Latin lookup 1 subtable" q.sc
Substitution2: "'aalt' Access All Alternates in Latin lookup 0 subtable" q.sc
EndChar

StartChar: r
Encoding: 114 114 85
Width: 1390
GlyphClass: 2
Flags: HMW
LayerCount: 2
Back
SplineSet
1086 215 m 4xd8
 1086 299.32421875 1186 254.173828125 1186 381 c 6
 1186 808 l 6
 1186 962.15625 1146.27050781 1069 993 1069 c 4xd8
 898.370117188 1069 819 997.772460938 819 904 c 6
 819 385 l 6
 819 319.25390625 824.670898438 282.419921875 875 270.5 c 4
 909.607421875 262.303710938 939 257.916992188 939 215 c 4
 939 27.0869140625 733.08203125 0 510 0 c 4
 306.036132812 0 83 19.578125 83 215 c 4
 83 298.377929688 209 255.25 209 381 c 6
 209 915 l 6
 209 1043.20410156 63 999.348632812 63 1081 c 4
 63 1275.81933594 298.2734375 1296 500 1296 c 4xb8
 633.64453125 1296 807.122070312 1258.60449219 817 1118 c 5
 952.953125 1280.50488281 1116.02929688 1325 1322 1325 c 4
 1647.49023438 1325 1790 1132.40136719 1790 771 c 6
 1790 390 l 6
 1790 263.059570312 1921 300.294921875 1921 215 c 4
 1921 27.033203125 1706.20410156 0 1483 0 c 4
 1279.03613281 0 1086 19.578125 1086 215 c 4xd8
EndSplineSet
Fore
SplineSet
860.1171875 1046.63378906 m 0
 809.76171875 1046.63378906 797.965820312 1020.67382812 797.965820312 972.064453125 c 0
 797.965820312 947.659179688 819.203125 916.727539062 817.295898438 880.4375 c 2
 790.799804688 376.374023438 l 1
 790.799804688 257.82421875 928.408203125 294.081054688 928.408203125 218.455078125 c 0
 928.408203125 26.9521484375 681.555664062 0 463.013671875 0 c 0
 263.251953125 0 27 18.779296875 27 203.142578125 c 0
 27 307.223632812 174.659179688 240.5546875 182.041992188 381 c 2
 210.548828125 923.284179688 l 1
 210.548828125 1039.58300781 72.748046875 1002.30175781 72.748046875 1077.58007812 c 0
 72.748046875 1275.90625 334.2265625 1296 531.142578125 1296 c 0
 649.36328125 1296 807.776367188 1271.18457031 827.836914062 1119 c 1
 869.935546875 1227.51171875 1017.23144531 1304.42285156 1146.765625 1304.42285156 c 0
 1262.31738281 1304.42285156 1363.73535156 1243.21972656 1363.73535156 1088.64941406 c 0
 1363.73535156 935.83203125 1261.98339844 836 1114.9609375 836 c 256
 931.283203125 836 989.55859375 1046.63378906 860.1171875 1046.63378906 c 0
EndSplineSet
Substitution2: "'smcp' Lowercase to Small Capitals in Latin lookup 1 subtable" r.sc
Substitution2: "'aalt' Access All Alternates in Latin lookup 0 subtable" r.sc
EndChar

StartChar: s
Encoding: 115 115 86
Width: 1275
GlyphClass: 2
Flags: HMW
LayerCount: 2
Fore
SplineSet
86.8056640625 852.409179688 m 0
 86.8056640625 1183.61035156 353.015625 1325 697.036132812 1325 c 0
 917.749023438 1325 1188.10546875 1283.49316406 1188.10546875 1084.90917969 c 0
 1188.10546875 966.341796875 1100.49609375 925.119140625 1008.48339844 925.119140625 c 0
 908.502929688 925.119140625 804.013671875 973.2265625 804.013671875 1019.40332031 c 0
 804.013671875 1040.16015625 818.924804688 1060.4296875 818.924804688 1080.35058594 c 0
 818.924804688 1105.13378906 793.52734375 1124 676.469726562 1124 c 0
 604.993164062 1124 530.112304688 1109.70996094 530.112304688 1039.22363281 c 0
 530.112304688 955.987304688 676.65234375 917.038085938 748.274414062 892 c 0
 969.28125 814.737304688 1242.34375 701.290039062 1242.34375 411.168945312 c 0
 1242.34375 82.4609375 936.627929688 -25 622.069335938 -25 c 0
 379.41015625 -25 33 28.322265625 33 253.163085938 c 0
 33 361.073242188 93.92578125 391 194.9375 391 c 0
 427.454101562 391 359.09765625 209 602.370117188 209 c 0
 686.045898438 209 742.813476562 221.70703125 742.813476562 294.045898438 c 0
 742.813476562 324.489257812 672.719726562 344.884765625 639.150390625 357 c 0
 407.796875 440.4921875 86.8056640625 547.603515625 86.8056640625 852.409179688 c 0
EndSplineSet
Substitution2: "'smcp' Lowercase to Small Capitals in Latin lookup 1 subtable" s.sc
Substitution2: "'aalt' Access All Alternates in Latin lookup 0 subtable" s.sc
EndChar

StartChar: t
Encoding: 116 116 87
Width: 1128
GlyphClass: 2
Flags: HMW
LayerCount: 2
Back
SplineSet
1111 1200 m 0
 1111 1127.58300781 1084.13769531 1096 1015 1096 c 2
 771 1096 l 1
 773 668 l 2
 773 573.375 780.588867188 328 876 328 c 0
 951.150390625 328 994.34375 349.282226562 1046 377 c 0
 1056.66699219 383 1066.66699219 386 1076 386 c 0
 1107.46972656 386 1126 352.719726562 1126 321 c 0
 1126 309.666992188 1124.33300781 300.333007812 1121 293 c 0
 1051.23730469 114.984375 902.6171875 -25 659 -25 c 0
 287.6640625 -25 165 222.297851562 165 590 c 2
 165 1096 l 1
 116 1096 l 2
 72.8095703125 1096 37 1125 37 1165 c 0
 37 1185.66699219 46.3330078125 1203 65 1217 c 0
 257.956054688 1355.53222656 433.484375 1500.39257812 593 1655 c 0
 619.662109375 1681.66210938 653.202148438 1706 698 1706 c 0
 745.53515625 1706 771 1671.67382812 771 1620 c 2
 771 1296 l 1
 1015 1296 l 2
 1080.49023438 1296 1111 1268.49804688 1111 1200 c 0
EndSplineSet
Fore
SplineSet
1106.22851562 1210.92382812 m 0
 1106.22851562 1132.23339844 1076.57421875 1096 1004.46484375 1096 c 2
 760.46484375 1096 l 1
 747.325195312 808 l 2
 742.41796875 714.627929688 730.78515625 618.87109375 730.78515625 521.3203125 c 0
 730.78515625 403.45703125 751.395507812 313.709960938 835.858398438 313.709960938 c 0
 877.833007812 313.709960938 956.966796875 386 1028.14160156 386 c 0
 1058.18261719 386 1074.83789062 355.673828125 1074.83789062 325.328125 c 0
 1074.83789062 312.333984375 1072.37597656 301.131835938 1068.25292969 293 c 0
 989.131835938 114.984375 833.153320312 -25 589.536132812 -25 c 0
 187.875 -25 97.701171875 166.169921875 97.701171875 438.869140625 c 0
 97.701171875 630.365234375 142.166992188 862.063476562 154.46484375 1096 c 1
 105.46484375 1096 l 2
 63.5361328125 1096 30 1123.33007812 30 1161.5234375 c 0
 30 1185.44042969 43.7705078125 1231.17382812 112.403320312 1247 c 0
 243.9921875 1277.34277344 545.258789062 1520.39257812 611.850585938 1655 c 0
 628.91015625 1689.48535156 674.733398438 1706 719.53125 1706 c 0
 762.654296875 1706 791.0390625 1677.61230469 788.741210938 1633.90136719 c 2
 770.979492188 1296 l 1
 1014.97949219 1296 l 2
 1076.87109375 1296 1106.22851562 1271.4375 1106.22851562 1210.92382812 c 0
EndSplineSet
Substitution2: "'smcp' Lowercase to Small Capitals in Latin lookup 1 subtable" t.sc
Substitution2: "'aalt' Access All Alternates in Latin lookup 0 subtable" t.sc
EndChar

StartChar: u
Encoding: 117 117 88
Width: 1829
GlyphClass: 2
Flags: HMW
LayerCount: 2
Fore
SplineSet
151.034179688 927.247070312 m 0
 151.034179688 1038.32910156 30 1002.49902344 30 1076.63769531 c 0
 30 1268.99609375 260.176757812 1296 479.419921875 1296 c 0
 629.955078125 1296 774.116210938 1252.15625 769.171875 1158.1015625 c 2
 731.44921875 440.537109375 l 1
 731.44921875 313.829101562 765.298828125 229 901.329101562 229 c 0
 995.198242188 229 1054.32519531 285.999023438 1059.21386719 379 c 2
 1091.09375 944.950195312 l 1
 1091.09375 1047.10839844 970.024414062 1004.66015625 970.024414062 1077.52441406 c 0
 970.024414062 1268.98632812 1201.91210938 1296 1420.41992188 1296 c 0
 1575.46191406 1296 1718.86425781 1247.39160156 1713.95019531 1153.90820312 c 2
 1672.19335938 359.578125 l 1
 1672.19335938 256.741210938 1779.68066406 291.3984375 1779.68066406 219.989257812 c 0
 1779.68066406 27.16796875 1568.62890625 -2 1352.18652344 -2 c 0
 1197.24414062 -2 1078.0859375 55.01953125 1062.96289062 184 c 1
 947.033203125 20.740234375 821.9453125 -25 600.9765625 -25 c 0
 196.595703125 -25 112.743164062 141.208984375 112.743164062 400.217773438 c 0
 112.743164062 549.690429688 151.034179688 729.797851562 151.034179688 927.247070312 c 0
EndSplineSet
Substitution2: "'smcp' Lowercase to Small Capitals in Latin lookup 1 subtable" u.sc
Substitution2: "'aalt' Access All Alternates in Latin lookup 0 subtable" u.sc
EndChar

StartChar: v
Encoding: 118 118 89
Width: 1696
GlyphClass: 2
Flags: HMW
LayerCount: 2
Fore
SplineSet
953.387695312 1135.37890625 m 0
 953.387695312 1076.84765625 811.35546875 1057.30957031 821.034179688 1036.35253906 c 2
 988.376953125 674 l 1
 1129.99023438 952 l 2
 1138.42382812 968.243164062 1141.22265625 975.4453125 1142.19824219 994 c 2
 1142.19824219 1008 l 1
 1144.95507812 1060.44140625 1018.07617188 1062.86425781 1018.07617188 1123.66015625 c 0
 1018.07617188 1277.09472656 1264.31835938 1296 1412.07421875 1296 c 0
 1556.55859375 1296 1674.44433594 1264.78320312 1674.44433594 1137.45019531 c 0
 1674.44433594 1044.39453125 1464.15234375 1032.31445312 1420.99023438 952 c 2
 950.8359375 74 l 2
 921.866210938 20.18359375 880.251953125 -51 807.264648438 -51 c 0
 735.239257812 -51 697.756835938 29.5166015625 672.255859375 82 c 2
 246.990234375 952 l 2
 220.150390625 1006.74121094 176.71875 1037.13476562 113.2734375 1052.5 c 128
 72.767578125 1062.30957031 35 1072.88378906 35 1120.87109375 c 0
 35 1294.9140625 335.349609375 1296 509.07421875 1296 c 0
 529.181640625 1296 550.088867188 1296.11816406 571.391601562 1296.11816406 c 0
 748.66796875 1296.11816406 953.387695312 1287.93554688 953.387695312 1135.37890625 c 0
EndSplineSet
Substitution2: "'smcp' Lowercase to Small Capitals in Latin lookup 1 subtable" v.sc
Substitution2: "'aalt' Access All Alternates in Latin lookup 0 subtable" v.sc
EndChar

StartChar: w
Encoding: 119 119 90
Width: 2196
GlyphClass: 2
Flags: HMW
LayerCount: 2
Fore
SplineSet
1564.11035156 1163.53613281 m 0
 1564.11035156 1096.87011719 1426.71484375 1033.5546875 1426.71484375 980.625976562 c 0
 1426.71484375 976.002929688 1427.76269531 971.459960938 1430.04199219 967 c 2
 1570.5859375 692 l 1
 1726.04199219 967 l 2
 1729.41308594 972.404296875 1730.89648438 977.561523438 1730.89648438 984.493164062 c 0
 1730.89648438 1041.82226562 1623.97558594 1042.82226562 1623.97558594 1115.91503906 c 0
 1623.97558594 1277.67675781 1774.64550781 1296 1932.33789062 1296 c 0
 2077.76464844 1296 2172.61621094 1270.02929688 2172.61621094 1137.79296875 c 0
 2172.61621094 1039.54785156 2024.95996094 1035.06640625 1985.04199219 967 c 2
 1422.62988281 8 l 2
 1415.08691406 -4.6123046875 1398.61328125 -16 1380.36816406 -16 c 0
 1365.03515625 -16 1353.12109375 -8 1344.62988281 8 c 2
 1096.70410156 485 l 1
 785.629882812 8 l 2
 777.141601562 -4.3212890625 760.973632812 -16 742.368164062 -16 c 0
 727.03515625 -16 715.455078125 -8 707.629882812 8 c 2
 250.993164062 909 l 2
 220.122070312 970.735351562 173.193359375 1012.86621094 112.484375 1042 c 128
 81.0341796875 1057.09179688 35 1074.25976562 35 1116.81054688 c 0
 35 1286.26367188 273.030273438 1296.20019531 457.235351562 1296.20019531 c 0
 483.571289062 1296.20019531 509.171875 1296 533.337890625 1296 c 0
 692.3515625 1296 964.263671875 1277.18457031 964.263671875 1126.75 c 0
 964.263671875 1046.47070312 870.604492188 1049.53515625 870.604492188 994.791015625 c 0
 870.604492188 986.877929688 872.561523438 977.755859375 877.041992188 967 c 2
 991.5859375 692 l 1
 1135.04199219 967 l 2
 1138.43554688 972.438476562 1139.89941406 977.600585938 1139.89941406 984.599609375 c 0
 1139.89941406 1043.37597656 1032.08007812 1044.16503906 1032.08007812 1117.87890625 c 0
 1032.08007812 1283.50683594 1169.8984375 1296 1330.33789062 1296 c 0
 1457.94824219 1296 1564.11035156 1262.01855469 1564.11035156 1163.53613281 c 0
EndSplineSet
Substitution2: "'smcp' Lowercase to Small Capitals in Latin lookup 1 subtable" w.sc
Substitution2: "'aalt' Access All Alternates in Latin lookup 0 subtable" w.sc
EndChar

StartChar: x
Encoding: 120 120 91
Width: 1679
GlyphClass: 2
Flags: HMW
LayerCount: 2
Fore
SplineSet
985.92578125 1122.55078125 m 0
 985.92578125 1272.00878906 1147.77539062 1296 1291.95410156 1296 c 0
 1448.828125 1296 1594.33691406 1281.94335938 1594.33691406 1137.93164062 c 0
 1594.33691406 1022.10742188 1369.72363281 1009.59667969 1300.87011719 952 c 2
 1060.14550781 748 l 1
 1434.01367188 346 l 1
 1473.46679688 296.130859375 1627.35449219 272.526367188 1627.35449219 201.612304688 c 0
 1627.35449219 35.373046875 1336.484375 0 1164.82519531 0 c 256
 982.828125 0 734.038085938 21.3349609375 734.038085938 189.689453125 c 0
 734.038085938 252.649414062 832.356445312 250.904296875 832.356445312 293.9140625 c 0
 832.356445312 305.7734375 824.87890625 321.037109375 805.802734375 342 c 2
 708.427734375 449 l 1
 586.908203125 344 l 2
 569.15625 328.830078125 551.17578125 314.276367188 551.17578125 291.051757812 c 0
 551.17578125 245.5078125 638.360351562 256.39453125 638.360351562 201.814453125 c 0
 638.360351562 22.021484375 460.084960938 0 281.825195312 0 c 0
 149.727539062 0 30 62.2705078125 30 188.234375 c 0
 30 291.338867188 224.684570312 292.720703125 290.119140625 348 c 2
 578.9453125 592 l 1
 255.870117188 952 l 2
 207.912109375 1006.59179688 63.8935546875 1030.13378906 63.8935546875 1121.33691406 c 0
 63.8935546875 1278.84179688 358.435546875 1296 517.954101562 1296 c 0
 549.217773438 1296 581.462890625 1296.44628906 613.549804688 1296.44628906 c 0
 779.541992188 1296.44628906 941.31640625 1284.51269531 941.31640625 1137.18359375 c 0
 941.31640625 1068.18164062 841.254882812 1052.15136719 841.254882812 1002.31933594 c 0
 841.254882812 988.673828125 848.7578125 972.495117188 867.870117188 952 c 2
 930.34765625 885 l 1
 1009.87011719 952 l 2
 1029.03027344 968.46484375 1049.88183594 984.483398438 1049.88183594 1010.609375 c 0
 1049.88183594 1056.14648438 985.92578125 1070.3515625 985.92578125 1122.55078125 c 0
EndSplineSet
Substitution2: "'smcp' Lowercase to Small Capitals in Latin lookup 1 subtable" x.sc
Substitution2: "'aalt' Access All Alternates in Latin lookup 0 subtable" x.sc
EndChar

StartChar: y
Encoding: 121 121 92
Width: 1756
GlyphClass: 2
Flags: HMW
LayerCount: 2
Fore
SplineSet
114.763671875 -259.536132812 m 0
 114.763671875 -97.8916015625 180.291992188 37 328.89453125 37 c 0
 494.028320312 37 461.84765625 -250 536.807617188 -250 c 0
 594.037109375 -250 706.779296875 -80.197265625 706.779296875 -4.544921875 c 0
 706.779296875 3.462890625 705.515625 10.4150390625 702.790039062 16 c 2
 245.994140625 952 l 2
 219.154296875 1006.74121094 175.72265625 1037.13476562 112.27734375 1052.5 c 0
 71.525390625 1062.36914062 34 1072.24023438 34 1120.71484375 c 0
 34 1295.03613281 324.034179688 1296.00097656 497.358398438 1296.00097656 c 2
 508.078125 1296.00097656 l 2
 528.381835938 1296.00097656 549.491210938 1296.12207031 570.994140625 1296.12207031 c 0
 747.895507812 1296.12207031 951.393554688 1287.86132812 951.393554688 1135.42285156 c 0
 951.393554688 1062.375 831.350585938 1073.94238281 831.350585938 1014.70019531 c 0
 831.350585938 993.053710938 847.110351562 972.212890625 857.994140625 952 c 2
 1026.54003906 639 l 1
 1189.99414062 952 l 2
 1199.66308594 970.482421875 1201.15429688 974.080078125 1202.20214844 994 c 1
 1202.20214844 1008 l 1
 1204.95996094 1060.44140625 1078.08007812 1062.86425781 1078.08007812 1123.66015625 c 0
 1078.08007812 1277.09472656 1324.32226562 1296 1472.078125 1296 c 0
 1616.56347656 1296 1734.44824219 1264.78320312 1734.44824219 1137.45019531 c 0
 1734.44824219 1075.96777344 1681.16210938 1066.9921875 1631.93554688 1055.5 c 0
 1565.57519531 1040.0078125 1510.94921875 1009.25878906 1480.99414062 952 c 2
 926.272460938 -127 l 2
 827.967773438 -318.439453125 688.259765625 -532 433.983398438 -532 c 0
 254.491210938 -532 114.763671875 -433.154296875 114.763671875 -259.536132812 c 0
EndSplineSet
Substitution2: "'smcp' Lowercase to Small Capitals in Latin lookup 1 subtable" y.sc
Substitution2: "'aalt' Access All Alternates in Latin lookup 0 subtable" y.sc
EndChar

StartChar: z
Encoding: 122 122 93
Width: 1328
GlyphClass: 2
Flags: HMW
LayerCount: 2
Fore
SplineSet
37.33984375 957.013671875 m 0
 37.33984375 1117.41699219 136.606445312 1296 289.900390625 1296 c 2
 1184.90039062 1296 l 2
 1234.73925781 1296 1263.67285156 1279.046875 1263.67285156 1237.11230469 c 0
 1263.67285156 1201.47167969 1246.703125 1169.08496094 1232.85742188 1143 c 2
 749.754882812 266 l 2
 739.627929688 247.037109375 734.32421875 232.733398438 734.32421875 218.587890625 c 0
 734.32421875 185.880859375 771.237304688 184 805.443359375 184 c 0
 1046.15429688 184 931.594726562 475 1154.74121094 475 c 0
 1232.48535156 475 1282.59277344 422.026367188 1282.59277344 343.89453125 c 0
 1282.59277344 183.1328125 1184.20019531 0 1030.77148438 0 c 2
 111.771484375 0 l 2
 65.1689453125 0 32 14.2177734375 32 58.93359375 c 0
 32 100.471679688 49.4462890625 132.44140625 68.498046875 166 c 2
 595.384765625 1103.11230469 l 1
 595.899414062 1112.90625 585.70703125 1118 576.594726562 1118 c 2
 381.54296875 1118 l 1
 343.65625 987 l 1
 315.291015625 905.495117188 265.731445312 827 165.245117188 827 c 0
 86.298828125 827 37.33984375 879.500976562 37.33984375 957.013671875 c 0
EndSplineSet
Substitution2: "'smcp' Lowercase to Small Capitals in Latin lookup 1 subtable" z.sc
Substitution2: "'aalt' Access All Alternates in Latin lookup 0 subtable" z.sc
EndChar

StartChar: braceleft
Encoding: 123 123 94
Width: 1281
GlyphClass: 2
Flags: HMW
LayerCount: 2
Fore
SplineSet
246.912109375 1384 m 2
 265.467773438 1736.97265625 509.220703125 1989 858.715820312 1989 c 0
 1030.86914062 1989 1162.77246094 1925.97265625 1269.04003906 1843 c 1
 1219.78515625 1724 l 1
 1172.12207031 1734.71679688 1121.79296875 1745 1064.88964844 1745 c 0
 908.000976562 1745 866.89453125 1630.96972656 858.590820312 1473 c 2
 854.017578125 1386 l 2
 840.952148438 1137.4609375 712.001953125 978.846679688 514.045898438 930 c 1
 705.133789062 879.361328125 819.110351562 721.953125 806.022460938 473 c 2
 801.501953125 387 l 2
 793.185546875 228.8046875 822.263671875 115 979.204101562 115 c 0
 1036.50292969 115 1087.63378906 124.3203125 1136.25488281 135 c 1
 1172.99902344 16 l 1
 1057.70507812 -66.1240234375 919.268554688 -129 747.376953125 -129 c 0
 398.243164062 -129 180.61328125 122.791015625 199.127929688 475 c 2
 203.6484375 561 l 2
 211.955078125 719.0078125 183.024414062 834 26 834 c 1
 36.0927734375 1026 l 1
 193.03125 1026 234.076171875 1139.80859375 242.391601562 1298 c 2
 246.912109375 1384 l 2
EndSplineSet
EndChar

StartChar: bar
Encoding: 124 124 95
Width: 603
GlyphClass: 2
Flags: HMW
LayerCount: 2
Fore
SplineSet
482.458007812 -84 m 2
 475.366210938 -218.890625 390.065429688 -301 250.049804688 -301 c 256
 109.486328125 -301 33.3408203125 -219.372070312 40.4580078125 -84 c 2
 132.713867188 1671 l 2
 139.987304688 1809.359375 222.022460938 1888 365.12109375 1888 c 256
 507.654296875 1888 581.967773438 1808.99707031 574.713867188 1671 c 2
 482.458007812 -84 l 2
EndSplineSet
EndChar

StartChar: braceright
Encoding: 125 125 96
Width: 1281
GlyphClass: 2
Flags: HMW
LayerCount: 2
Fore
SplineSet
537.716796875 1989 m 0
 887.2578125 1989 1103.44335938 1736.50878906 1084.91308594 1384 c 2
 1080.39257812 1298 l 2
 1072.04296875 1139.18066406 1101.5078125 1026 1259.09375 1026 c 1
 1249.00097656 834 l 1
 1091.33203125 834 1049.98925781 719.631835938 1041.64941406 561 c 2
 1037.12890625 475 l 2
 1018.609375 122.708984375 775.318359375 -129 426.377929688 -129 c 0
 253.83984375 -129 122.876953125 -66.2900390625 16 16 c 1
 65.255859375 135 l 1
 111.796875 124.127929688 162.512695312 115 219.205078125 115 c 0
 376.788085938 115 418.154296875 228.184570312 426.502929688 387 c 2
 431.0234375 473 l 2
 444.123046875 722.1796875 573.423828125 879.306640625 770.046875 930 c 1
 578.024414062 978.64453125 466.036132812 1139.04296875 479.018554688 1386 c 2
 483.591796875 1473 l 2
 491.928710938 1631.59570312 462.426757812 1745 304.890625 1745 c 0
 248.64453125 1745 196.58203125 1734.89746094 148.786132812 1724 c 1
 112.041015625 1843 l 1
 227.703125 1926.45605469 364.383789062 1989 537.716796875 1989 c 0
EndSplineSet
EndChar

StartChar: asciitilde
Encoding: 126 126 97
Width: 1455
GlyphClass: 2
Flags: HMW
LayerCount: 2
Fore
SplineSet
486.8671875 1295 m 0
 731.189453125 1295 902.453125 1178 1162.71679688 1178 c 0
 1249.55761719 1178 1300.73925781 1216.47460938 1305.33984375 1304 c 0
 1305.515625 1307.33300781 1304.97167969 1309.66699219 1303.70800781 1311 c 2
 1420.13769531 1186 l 1
 1346.30566406 958.044921875 1236.6875 752 961.322265625 752 c 0
 725.399414062 752 561.92578125 862 325.10546875 862 c 0
 233.16796875 862 155.561523438 832.614257812 150.745117188 741 c 0
 150.604492188 738.333007812 151.868164062 737 154.53515625 737 c 1
 39 860 l 1
 119.911132812 1069.66699219 225.662109375 1295 486.8671875 1295 c 0
EndSplineSet
EndChar

StartChar: cent
Encoding: 162 162 100
Width: 1327
GlyphClass: 2
Flags: HMW
LayerCount: 2
Back
SplineSet
771.556640625 -192.791992188 m 4
 771.556640625 -256.66796875 744.530273438 -289.604492188 718 -289.604492188 c 4
 694.545898438 -289.604492188 666.602539062 -263.639648438 666.602539062 -210.94921875 c 4
 666.602539062 -140.055664062 892.659179688 1509.80273438 905 1567.5 c 4
 907.290039062 1578.20800781 926.694335938 1586.32226562 947.670898438 1586.32226562 c 4
 974.251953125 1586.32226562 1003.35742188 1573.29199219 1003.35742188 1536 c 4
 1003.35742188 1470.94726562 771.556640625 -103.458984375 771.556640625 -192.791992188 c 4
EndSplineSet
Fore
SplineSet
787.9140625 1063 m 0
 692.370117188 1063 647.958984375 880.981445312 647.958984375 721.567382812 c 0
 647.958984375 590.743164062 675.649414062 476.088867188 742.834960938 405.64453125 c 1
 771.314453125 619.063476562 803.46875 855.525390625 831.55859375 1059.22558594 c 1
 818.033203125 1061.68359375 803.524414062 1063 787.9140625 1063 c 0
770.556640625 -192.791992188 m 0
 770.556640625 -256.66796875 743.530273438 -289.604492188 717 -289.604492188 c 0
 693.545898438 -289.604492188 665.602539062 -263.639648438 665.602539062 -210.94921875 c 0
 665.602539062 -197.46875 673.775390625 -126.899414062 687.098632812 -21.04296875 c 1
 320.723632812 -20.1220703125 39 231.72265625 39 603.72265625 c 1
 39 1045.96386719 333.678710938 1335 760.213867188 1335 c 0
 797.076171875 1335 833.4375 1332.26757812 868.801757812 1326.99316406 c 1
 887.8984375 1462.79589844 901.250976562 1554.64746094 904 1567.5 c 0
 906.290039062 1578.20800781 925.694335938 1586.32226562 946.670898438 1586.32226562 c 0
 973.251953125 1586.32226562 1002.35742188 1573.29199219 1002.35742188 1536 c 0
 1002.35742188 1521.59082031 990.984375 1433.12890625 973.27734375 1303.15527344 c 1
 1158.46289062 1245.28125 1295.74121094 1112.67382812 1295.74121094 939.708984375 c 0
 1295.74121094 835.140625 1245.34472656 766 1146.30273438 766 c 0
 1045.95996094 766 1026.015625 923.016601562 932.478515625 1008.71582031 c 1
 903.05859375 798.442382812 868.915039062 556.749023438 839.586914062 345.245117188 c 1
 866.57421875 336.600585938 896.795898438 332 930.487304688 332 c 0
 1047.89453125 332 1144.68945312 412 1228.69238281 412 c 0
 1258.41992188 412 1276.48046875 382.588867188 1276.48046875 352.833007812 c 0
 1276.48046875 196.944335938 1034.04101562 27.0498046875 791.056640625 -12.49609375 c 1
 778.340820312 -110.180664062 770.556640625 -176.421875 770.556640625 -192.791992188 c 0
EndSplineSet
EndChar

StartChar: sterling
Encoding: 163 163 101
Width: 1636
GlyphClass: 2
Flags: HMW
LayerCount: 2
Fore
SplineSet
1591.59277344 437.759765625 m 0
 1591.59277344 227.948242188 1464.95703125 2 1265.93847656 2 c 2
 517.938476562 2 l 2
 299.108398438 2 39 20.9365234375 39 223.059570312 c 0
 39 336.694335938 199.983398438 267.173828125 208.016601562 420 c 2
 223.83984375 721 l 1
 170.83984375 721 l 2
 91.7412109375 721 44.642578125 765.8671875 44.642578125 844.978515625 c 0
 44.642578125 938.03125 99.3017578125 991 185.033203125 991 c 2
 243.31640625 991 l 1
 301.768554688 1388.78613281 549.916015625 1593 980.678710938 1593 c 0
 1269.79101562 1593 1585.40429688 1484.42773438 1585.40429688 1216.44824219 c 0
 1585.40429688 1089.79003906 1498.38085938 1024 1378.76855469 1024 c 0
 1288.13574219 1024 1180.40039062 1060.91015625 1180.40039062 1147.39257812 c 0
 1180.40039062 1170.87207031 1182.58300781 1194.50390625 1182.58300781 1216.57421875 c 0
 1182.58300781 1309.640625 1164.09960938 1382 1067.58691406 1382 c 0
 940.818359375 1382 924.581054688 1267.73828125 917.708007812 1137 c 2
 910.033203125 991 l 1
 1144.03320312 991 l 2
 1223.47460938 991 1268.24804688 946.672851562 1268.24804688 867.639648438 c 0
 1268.24804688 773.965820312 1216.37695312 721 1129.83984375 721 c 2
 895.83984375 721 l 1
 873.32421875 223.700195312 l 1
 873.32421875 183.239257812 942.709960938 157.6875 1012.18164062 157.6875 c 0
 1073.62011719 157.6875 1135.12597656 177.671875 1148.765625 225 c 2
 1198.91308594 399 l 1
 1235.41210938 503.041015625 1298.51953125 606 1426.79492188 606 c 0
 1530.30664062 606 1591.59277344 539.244140625 1591.59277344 437.759765625 c 0
EndSplineSet
EndChar

StartChar: currency
Encoding: 164 164 102
Width: 1239
GlyphClass: 2
Flags: HMW
LayerCount: 2
Fore
SplineSet
102.08984375 1473 m 0
 105.25390625 1533.18554688 167.340820312 1584 236.924804688 1584 c 0
 306.647460938 1584 326.91796875 1528.43261719 352.194335938 1484.5 c 128
 377.610351562 1440.32617188 404.1640625 1400.79980469 438.729492188 1352 c 1
 509.951171875 1374.46582031 588.640625 1386 680.516601562 1386 c 0
 751.18359375 1386 814.658203125 1376 870.939453125 1356 c 1
 1001.19042969 1532 l 2
 1020.1796875 1557.23144531 1053.54199219 1584 1095.92480469 1584 c 0
 1163.33300781 1584 1219.26074219 1535.2109375 1219.26074219 1478.52929688 c 0
 1219.26074219 1463.94921875 1216.37988281 1451.56933594 1211.45996094 1442 c 0
 1166.87597656 1366.62109375 1111.01855469 1303.14160156 1061.47265625 1233 c 1
 1128.63378906 1158.703125 1177.54980469 1055.17675781 1177.54980469 924.92578125 c 0
 1177.54980469 915.75 1177.30664062 906.440429688 1176.81054688 897 c 0
 1168.69140625 742.556640625 1098.14355469 619.619140625 1008.88574219 537 c 1
 1053.09863281 472.18359375 1086.50976562 420.423828125 1124.10839844 360.5 c 128
 1138.84863281 337.005859375 1157.22167969 316.749023438 1157.22167969 280.028320312 c 0
 1157.22167969 278.06640625 1157.16894531 276.05859375 1157.06054688 274 c 0
 1153.90625 213.986328125 1090.06152344 167 1027.43554688 167 c 0
 983.21875 167 950.993164062 193.015625 934.169921875 219 c 2
 805.525390625 416 l 1
 738.298828125 392.666992188 662.018554688 381 576.685546875 381 c 0
 509.352539062 381 448.791015625 389.333007812 395 406 c 1
 254.169921875 219 l 2
 234.42578125 193.989257812 200.229492188 167 156.435546875 167 c 0
 95.3779296875 167 37 214.146484375 37 270.68359375 c 0
 37 302.369140625 52.5205078125 326.282226562 66.740234375 344 c 2
 203.09765625 522 l 1
 123.778320312 602.372070312 65.724609375 716.953125 65.724609375 861.887695312 c 0
 65.724609375 871.459960938 65.978515625 881.1640625 66.4951171875 891 c 0
 74.47265625 1042.75390625 141.639648438 1158.10742188 232.68359375 1237 c 1
 124.515625 1405 l 1
 105.459960938 1442 l 1
 102.65234375 1452 101.529296875 1462.33300781 102.08984375 1473 c 0
718.765625 782 m 0
 721.321289062 830.624023438 726.989257812 899.241210938 726.989257812 966.752929688 c 0
 726.989257812 1084.04296875 709.8828125 1198 629.633789062 1198 c 0
 544.387695312 1198 527.748046875 1086.04785156 523.067382812 997 c 0
 520.904296875 955.842773438 517.459960938 898.892578125 517.459960938 839.953125 c 0
 517.459960938 709.361328125 534.3671875 569 619.568359375 569 c 0
 702.6015625 569 714.131835938 693.859375 718.765625 782 c 0
EndSplineSet
EndChar

StartChar: yen
Encoding: 165 165 103
Width: 1778
GlyphClass: 2
Flags: HMW
LayerCount: 2
Fore
SplineSet
324.224609375 223.072265625 m 0
 324.224609375 336.194335938 484.852539062 267.963867188 495.926757812 414 c 1
 282.926757812 414 l 2
 229.919921875 414 199.349609375 442.01953125 199.349609375 494.479492188 c 0
 199.349609375 556.5859375 234.915039062 592 292.283203125 592 c 2
 505.283203125 592 l 1
 510.540039062 692 l 1
 297.540039062 692 l 2
 245.129882812 692 213.970703125 720.392578125 213.970703125 772.693359375 c 0
 213.970703125 835.864257812 248.497070312 870 306.897460938 870 c 2
 452.897460938 870 l 1
 254.194335938 1161 l 2
 214.858398438 1218.484375 167.256835938 1252.92675781 97.7138671875 1275.5 c 128
 60.357421875 1287.625 23 1298.7265625 23 1345.16601562 c 0
 23 1555.1640625 296.778320312 1585 536.483398438 1585 c 0
 754.833984375 1585 1016.47070312 1564.42480469 1016.47070312 1362.796875 c 0
 1016.47070312 1271.73339844 895.157226562 1302.67089844 895.157226562 1234.7734375 c 0
 895.157226562 1208.15332031 912.5625 1187.84765625 926.404296875 1165 c 2
 1023.94140625 1004 l 1
 1035.55078125 989.739257812 1047.25976562 977 1067.52246094 977 c 0
 1091.83496094 977 1108.50585938 997.849609375 1121.46777344 1014 c 2
 1243.40429688 1165 l 1
 1260.35351562 1189.47363281 1276.26855469 1209.17773438 1276.26855469 1239.97753906 c 0
 1276.26855469 1304.28613281 1161.03125 1275.05566406 1161.03125 1346.33105469 c 0
 1161.03125 1508.35546875 1311.84570312 1585 1470.48339844 1585 c 0
 1630.00878906 1585 1757.51464844 1514.53027344 1757.51464844 1364.46484375 c 0
 1757.51464844 1299.4921875 1712.12988281 1290.98925781 1661.34472656 1278 c 128
 1584.14746094 1258.25488281 1524.99902344 1220.44628906 1479.19433594 1161 c 2
 1255.89746094 870 l 1
 1420.89746094 870 l 2
 1475.2109375 870 1504.38769531 841.731445312 1504.38769531 788.255859375 c 0
 1504.38769531 725.65625 1469.43359375 692 1411.54003906 692 c 2
 1182.54003906 692 l 1
 1177.28320312 592 l 1
 1406.28320312 592 l 2
 1459.56640625 592 1489.7578125 562.500976562 1489.7578125 509.701171875 c 0
 1489.7578125 447.13671875 1455.14746094 414 1396.92675781 414 c 2
 1167.92675781 414 l 1
 1164.18164062 283.82421875 1319.66699219 322.647460938 1319.66699219 239.666992188 c 0
 1319.66699219 19.9970703125 1024.49023438 0 806.163085938 0 c 0
 586.501953125 0 324.224609375 20.2060546875 324.224609375 223.072265625 c 0
EndSplineSet
EndChar

StartChar: brokenbar
Encoding: 166 166 104
Width: 597
GlyphClass: 2
Flags: HMW
LayerCount: 2
Fore
SplineSet
478.581054688 -84 m 2
 471.489257812 -218.890625 386.188476562 -301 246.172851562 -301 c 256
 138.202148438 -301 27.763671875 -251.729492188 32.125 -168.762695312 c 2
 61.759765625 395 l 2
 69.0341796875 533.359375 151.069335938 612 294.16796875 612 c 256
 403.079101562 612 512.682617188 564.76171875 508.340820312 482.150390625 c 2
 478.581054688 -84 l 2
545.762695312 1194 m 2
 538.670898438 1059.109375 453.37109375 977 313.35546875 977 c 256
 205.383789062 977 94.9453125 1026.27148438 99.306640625 1109.23925781 c 2
 128.94140625 1673 l 2
 136.215820312 1811.359375 218.250976562 1890 361.349609375 1890 c 256
 470.260742188 1890 579.864257812 1842.76171875 575.522460938 1760.15039062 c 2
 545.762695312 1194 l 2
EndSplineSet
EndChar

StartChar: section
Encoding: 167 167 105
Width: 1047
GlyphClass: 2
Flags: HMW
LayerCount: 2
Fore
SplineSet
104.577148438 1228.56347656 m 0
 104.577148438 1502.37109375 321.747070312 1593 582.102539062 1593 c 0
 756.594726562 1593 966.057617188 1545.42382812 966.057617188 1387.65820312 c 0
 966.057617188 1295.57519531 891.244140625 1251 801.125 1251 c 0
 738.834960938 1251 663.295898438 1254.31152344 663.295898438 1309.65917969 c 0
 663.295898438 1348.97265625 698.258789062 1348.1484375 698.258789062 1387.37890625 c 0
 698.258789062 1424.08300781 619.743164062 1434 565.745117188 1434 c 0
 495.34765625 1434 425.799804688 1425.9296875 425.799804688 1357.91796875 c 0
 425.799804688 1319.77050781 481.8359375 1301.87011719 517.622070312 1289 c 128
 726.860351562 1213.75488281 1011.6796875 1166.05664062 1011.6796875 891.8359375 c 0
 1011.6796875 727.701171875 917.099609375 641.3203125 805.482421875 592 c 1
 898.077148438 535.646484375 981.314453125 457.887695312 981.314453125 313.602539062 c 0
 981.314453125 54.9423828125 740.350585938 -37 494.416992188 -37 c 0
 304.698242188 -37 32 21.1669921875 32 197.768554688 c 0
 32 281.764648438 82.306640625 338 161.130859375 338 c 0
 344.639648438 338 259.760742188 139 454.669921875 139 c 0
 527.329101562 139 604.005859375 152.712890625 604.005859375 221.9921875 c 0
 604.005859375 248.131835938 549.034179688 259.328125 519.897460938 267 c 128
 303.284179688 324.041992188 74.2197265625 386.383789062 74.2197265625 650.611328125 c 0
 74.2197265625 810.747070312 149.540039062 899.143554688 255.301757812 950 c 1
 169.307617188 1005.90136719 104.577148438 1090.27050781 104.577148438 1228.56347656 c 0
578.633789062 688 m 0
 578.133789062 688 634.98046875 716.2109375 634.98046875 761.372070312 c 0
 634.98046875 807.787109375 460.981445312 862 459.780273438 862 c 0
 459.311523438 862 410.540039062 826.430664062 410.540039062 790.626953125 c 0
 410.540039062 749.759765625 578.69140625 688 578.633789062 688 c 0
EndSplineSet
EndChar

StartChar: dieresis
Encoding: 168 168 106
Width: 1537
GlyphClass: 2
Flags: HMW
LayerCount: 2
Fore
SplineSet
621.853515625 325.499023438 m 0
 621.853515625 148.15234375 487.879882812 61 323.376953125 61 c 0
 171.693359375 61 52 142.256835938 52 293.424804688 c 0
 52 468.504882812 187.784179688 557 349.450195312 557 c 0
 504.327148438 557 621.853515625 479.25 621.853515625 325.499023438 c 0
1483.85253906 325.4765625 m 0
 1483.85253906 148.662109375 1350.33984375 61 1186.37695312 61 c 0
 1034.47753906 61 914.000976562 142.009765625 914.000976562 293.467773438 c 0
 914.000976562 468.788085938 1050.59570312 557 1212.45019531 557 c 0
 1366.8203125 557 1483.85253906 478.830078125 1483.85253906 325.4765625 c 0
EndSplineSet
EndChar

StartChar: copyright
Encoding: 169 169 107
Width: 1977
GlyphClass: 2
Flags: HMW
LayerCount: 2
Fore
SplineSet
1508.77539062 1211.75878906 m 0
 1508.77539062 1122.18945312 1457.29589844 1063 1374.41601562 1063 c 0
 1189.49121094 1063 1273.42871094 1333 1114.609375 1333 c 0
 967.845703125 1333 942.779296875 1111.3515625 942.779296875 953.7109375 c 0
 942.779296875 744.254882812 992.024414062 565 1201.23730469 565 c 0
 1271.25585938 565 1333.15039062 590.017578125 1376.07617188 619 c 128
 1403.07226562 637.225585938 1425.8125 674 1456.96875 674 c 0
 1488.9140625 674 1503.84667969 636.255859375 1503.84667969 599.211914062 c 0
 1503.84667969 369.397460938 1201.08007812 272 970.8359375 272 c 0
 619.375 272 388.893554688 487.47265625 388.893554688 824.001953125 c 0
 388.893554688 1284.10644531 658.107421875 1518 1106.33496094 1518 c 0
 1318.67382812 1518 1508.77539062 1415.62304688 1508.77539062 1211.75878906 c 0
1039.15917969 1800 m 0
 1553.51171875 1800 1940.73828125 1452.44921875 1940.73828125 942.384765625 c 0
 1940.73828125 621.05078125 1794.66308594 396.934570312 1624.36425781 244 c 128
 1461.13964844 97.4189453125 1236.85644531 -18 943.590820312 -18 c 256
 650.349609375 -18 437.828125 98.150390625 289.864257812 244 c 128
 151.021484375 380.857421875 41 574.0078125 41 839.161132812 c 0
 41 1160.96582031 187.21875 1384.20800781 357.860351562 1537.5 c 128
 521.08203125 1684.12792969 746.258789062 1800 1039.15917969 1800 c 0
954.104492188 182 m 256
 1372.70605469 182 1700.515625 496.885742188 1700.515625 934.100585938 c 0
 1700.515625 1320.48242188 1422.13378906 1599 1028.59375 1599 c 256
 609.689453125 1599 281.233398438 1285.6328125 281.233398438 847.838867188 c 0
 281.233398438 460.953125 559.94140625 182 954.104492188 182 c 256
EndSplineSet
EndChar

StartChar: guillemotleft
Encoding: 171 171 109
Width: 1949
GlyphClass: 2
Flags: HMW
LayerCount: 2
Fore
SplineSet
987.494140625 259.188476562 m 0
 987.494140625 169.83984375 927.241210938 106 840.629882812 106 c 0
 809.087890625 106 786.561523438 115.1171875 759.62890625 125 c 0
 600.508789062 187.462890625 459.03515625 237.993164062 320.749023438 298.5 c 128
 174.279296875 362.586914062 41 419.55078125 41 614.87109375 c 0
 41 777.44921875 109.81640625 852.275390625 213.447265625 911 c 128
 389.150390625 1010.56640625 601.5546875 1076.01953125 813.66796875 1153 c 0
 841.6875 1163.16894531 864.989257812 1169 896.509765625 1169 c 0
 978.280273438 1169 1028.25683594 1114.39746094 1028.25683594 1035.98925781 c 0
 1028.25683594 886.75 815.038085938 797.6796875 700.694335938 754 c 2
 399.6484375 639 l 1
 688.602539062 524 l 2
 793.70703125 482.169921875 987.494140625 393.833007812 987.494140625 259.188476562 c 0
1874.49414062 259.188476562 m 0
 1874.49414062 169.83984375 1814.24121094 106 1727.62988281 106 c 0
 1696.08789062 106 1673.56152344 115.1171875 1646.62890625 125 c 0
 1487.50878906 187.462890625 1346.03515625 237.993164062 1207.74902344 298.5 c 128
 1061.27929688 362.586914062 928 419.55078125 928 614.87109375 c 0
 928 777.44921875 996.81640625 852.275390625 1100.44726562 911 c 128
 1276.15039062 1010.56640625 1488.5546875 1076.01953125 1700.66796875 1153 c 0
 1728.6875 1163.16894531 1751.98925781 1169 1783.50976562 1169 c 0
 1865.28027344 1169 1915.25683594 1114.39746094 1915.25683594 1035.98925781 c 0
 1915.25683594 886.75 1702.03808594 797.6796875 1587.69433594 754 c 2
 1286.6484375 639 l 1
 1575.60253906 524 l 2
 1680.70703125 482.169921875 1874.49414062 393.833007812 1874.49414062 259.188476562 c 0
EndSplineSet
EndChar

StartChar: logicalnot
Encoding: 172 172 110
Width: 1114
GlyphClass: 2
Flags: HMW
LayerCount: 2
Fore
SplineSet
41 675.943359375 m 0
 41 774.005859375 100.509765625 785 193.453125 785 c 2
 953.453125 785 l 2
 1023.86425781 785 1063.03710938 758.063476562 1060.41796875 708.25390625 c 2
 1043.1640625 380 l 2
 1038.32910156 288.03515625 1030.34570312 233 937.435546875 233 c 0
 875.833984375 233 840.905273438 260.948242188 843.319335938 306.87109375 c 2
 858.150390625 589 l 1
 183.150390625 589 l 2
 94.9794921875 589 41 593.678710938 41 675.943359375 c 0
EndSplineSet
EndChar

StartChar: uni00AD
Encoding: 173 173 111
Width: 1121
GlyphClass: 2
Flags: HMW
LayerCount: 2
Fore
SplineSet
193.149414062 371 m 2
 101.184570312 371 46.4169921875 376.08984375 51.3017578125 469 c 0
 55.990234375 558.180664062 114.754882812 567 203.454101562 567 c 2
 917.454101562 567 l 2
 1012.16503906 567 1074.32128906 564.481445312 1069.30175781 469 c 256
 1064.28222656 373.5234375 1001.86523438 371 907.149414062 371 c 2
 193.149414062 371 l 2
EndSplineSet
EndChar

StartChar: registered
Encoding: 174 174 112
Width: 1977
GlyphClass: 2
Flags: HMW
LayerCount: 2
Fore
SplineSet
1039.15917969 1800 m 0
 1553.51171875 1800 1940.73828125 1452.44921875 1940.73828125 942.384765625 c 0
 1940.73828125 621.05078125 1794.66308594 396.934570312 1624.36425781 244 c 128
 1461.13964844 97.4189453125 1236.85644531 -18 943.590820312 -18 c 256
 650.349609375 -18 437.828125 98.150390625 289.864257812 244 c 128
 151.021484375 380.857421875 41 574.0078125 41 839.161132812 c 0
 41 1160.96582031 187.21875 1384.20800781 357.860351562 1537.5 c 128
 521.08203125 1684.12792969 746.258789062 1800 1039.15917969 1800 c 0
954.104492188 182 m 256
 1372.70605469 182 1700.515625 496.885742188 1700.515625 934.100585938 c 0
 1700.515625 1320.48242188 1422.13378906 1599 1028.59375 1599 c 256
 609.689453125 1599 281.233398438 1285.6328125 281.233398438 847.838867188 c 0
 281.233398438 460.953125 559.94140625 182 954.104492188 182 c 256
1495.84863281 1116.30566406 m 0
 1495.84863281 972.859375 1419.08300781 904.008789062 1314.95507812 864 c 1
 1430.17773438 678 l 2
 1456.41796875 634.360351562 1554.61621094 646.098632812 1554.61621094 592.411132812 c 0
 1554.61621094 461.2421875 1381.65625 461 1247.41992188 461 c 0
 1039.69140625 461 1016.52148438 667.440429688 968.58984375 819 c 1
 931.08984375 819 l 130
 922.756835938 819 912.958984375 819.666992188 901.6953125 821 c 1
 895.125 696 l 2
 891.251953125 622.325195312 980.1328125 648.450195312 980.1328125 602.014648438 c 0
 980.1328125 485.534179688 825.73828125 469 692.19140625 469 c 0
 562.1953125 469 426.89453125 486.383789062 426.89453125 593.081054688 c 0
 426.89453125 656.970703125 517.947265625 616.53125 522.439453125 702 c 2
 544.794921875 1127.25683594 l 1
 544.794921875 1199.90136719 459.873046875 1175.03417969 459.873046875 1222.76367188 c 0
 459.873046875 1338.19335938 616.135742188 1356 746.819335938 1356 c 2
 1046.81933594 1356 l 2
 1266.99316406 1356 1495.84863281 1315.66699219 1495.84863281 1116.30566406 c 0
908.426757812 911 m 2
 908.145507812 905.646484375 936.52734375 904.87109375 959.692382812 904.87109375 c 0
 969.126953125 904.87109375 977.6953125 905 983.110351562 905 c 0
 1053.921875 905 1084.71875 954.607421875 1088.57714844 1028 c 1
 1088.57714844 1039 l 1
 1089.68164062 1060.01074219 1091.25976562 1081.18164062 1091.25976562 1101.55859375 c 0
 1091.25976562 1180.19921875 1076.36425781 1247 995.08984375 1247 c 0
 938.956054688 1247 924.071289062 1208.60644531 921.147460938 1153 c 2
 908.426757812 911 l 2
EndSplineSet
EndChar

StartChar: macron
Encoding: 175 175 113
Width: 1278
GlyphClass: 2
Flags: HMW
LayerCount: 2
Fore
SplineSet
1222.99511719 302.143554688 m 0
 1222.99511719 147.01953125 1137.62597656 61 993.811523438 61 c 2
 260.811523438 61 l 2
 131.181640625 61 54 135.338867188 54 264.9609375 c 0
 54 416.91796875 144.037109375 504 284.099609375 504 c 2
 1017.09960938 504 l 2
 1148.77441406 504 1222.99511719 432.534179688 1222.99511719 302.143554688 c 0
EndSplineSet
EndChar

StartChar: degree
Encoding: 176 176 114
Width: 1011
GlyphClass: 2
Flags: HMW
LayerCount: 2
Fore
SplineSet
498.21484375 1014 m 256
 609.34765625 1014 685.93359375 1084.67871094 685.93359375 1205.63671875 c 0
 685.93359375 1309.78710938 620.537109375 1372 517.033203125 1372 c 256
 405.805664062 1372 326.2265625 1299.76855469 326.2265625 1179.0859375 c 0
 326.2265625 1075.10058594 394.888671875 1014 498.21484375 1014 c 256
968.3984375 1221.07519531 m 0
 968.3984375 935.754882812 756.529296875 797 488.806640625 797 c 0
 240.61328125 797 52 926.197265625 52 1168.54882812 c 0
 52 1448.97558594 267.908203125 1593 530.650390625 1593 c 0
 783.9453125 1593 968.3984375 1467.62792969 968.3984375 1221.07519531 c 0
EndSplineSet
EndChar

StartChar: plusminus
Encoding: 177 177 115
Width: 1313
GlyphClass: 2
Flags: HMW
LayerCount: 2
Fore
SplineSet
1094.10449219 224.413085938 m 0
 1094.10449219 120.30078125 1030.12304688 116 931.668945312 116 c 2
 217.668945312 116 l 2
 129.499023438 116 75.51953125 120.678710938 75.51953125 202.94140625 c 0
 75.51953125 301.004882812 135.028320312 312 227.97265625 312 c 2
 941.97265625 312 l 2
 1033.11132812 312 1094.10449219 309.66796875 1094.10449219 224.413085938 c 0
1285.72753906 1055.95019531 m 0
 1285.72753906 959.780273438 1243.78125 925 1154.19628906 925 c 2
 812.196289062 925 l 1
 793.797851562 575 l 2
 788.729492188 478.573242188 727.883789062 419 627.59765625 419 c 256
 544.731445312 419 469.736328125 459.692382812 473.301757812 527.522460938 c 2
 494.196289062 925 l 1
 157.196289062 925 l 2
 77.33984375 925 37 952.395507812 37 1029.234375 c 0
 37 1124.91699219 80.521484375 1161 169.602539062 1161 c 2
 506.602539062 1161 l 1
 525.000976562 1511 l 2
 530.251953125 1610.875 590.1015625 1667 693.202148438 1667 c 256
 776.85546875 1667 849.197265625 1628.87402344 845.666992188 1561.72265625 c 2
 824.602539062 1161 l 1
 1166.60253906 1161 l 2
 1247.76367188 1161 1285.72753906 1133.37695312 1285.72753906 1055.95019531 c 0
EndSplineSet
EndChar

StartChar: acute
Encoding: 180 180 118
Width: 871
GlyphClass: 2
Flags: HMW
LayerCount: 2
Fore
SplineSet
605.638671875 891 m 0
 734.390625 891 831.934570312 798.592773438 831.934570312 674.594726562 c 0
 831.934570312 441.654296875 535.672851562 303.329101562 395.471679688 203 c 0
 306.823242188 138.831054688 219.276367188 61 124.0078125 61 c 0
 75.7041015625 61 33 106.671875 33 153.920898438 c 0
 33 318.953125 205.212890625 479.296875 279.39453125 601 c 128
 348.155273438 713.810546875 443.66015625 891 605.638671875 891 c 0
EndSplineSet
EndChar

StartChar: uni00B5
Encoding: 181 181 119
AltUni2: 0003bc.ffffffff.0
Width: 1919
GlyphClass: 2
Flags: HMW
LayerCount: 2
Fore
SplineSet
196.9609375 908.220703125 m 1
 196.9609375 1038.10351562 50 999.291992188 50 1079.82421875 c 0
 50 1268.97363281 291.223632812 1296 512.805664062 1296 c 0
 697.5859375 1296 808.682617188 1232.30859375 806.092773438 1085.62109375 c 2
 795.333007812 476.041015625 l 1
 795.333007812 329.879882812 835.578125 229 983.974609375 229 c 0
 1077.84375 229 1154.98046875 285.999023438 1156.62109375 379 c 2
 1168.01074219 911 l 2
 1170.30664062 1041.20117188 1023 999.354492188 1023 1079.81640625 c 0
 1023 1268.97363281 1264.21679688 1296 1485.80566406 1296 c 0
 1676.34667969 1296 1785.55371094 1225.09570312 1783.03515625 1082.36914062 c 2
 1770.62109375 379 l 2
 1768.36328125 251.032226562 1912.70214844 294.61328125 1912.70214844 214.20703125 c 0
 1912.70214844 27.048828125 1679.59472656 -2 1462.89941406 -2 c 0
 1307.95703125 -2 1186.80761719 55.01953125 1167.1796875 184 c 1
 1061.76269531 66.740234375 901.4609375 -25 680.4921875 -25 c 0
 548.5078125 -25 459.209960938 35.8837890625 413.998046875 117 c 1
 413.763671875 103.736328125 413.654296875 90.5546875 413.654296875 77.4482421875 c 0
 413.654296875 -118.674804688 438.216796875 -297.798828125 438.216796875 -477.262695312 c 0
 438.216796875 -598.05859375 403.938476562 -662 284.25 -662 c 256
 183.541015625 -662 138.8828125 -612.391601562 138.8828125 -515.709960938 c 0
 138.8828125 -321.344726562 178.6640625 -128.622070312 182.203125 72 c 2
 196.9609375 908.220703125 l 1
EndSplineSet
EndChar

StartChar: paragraph
Encoding: 182 182 120
Width: 1413
GlyphClass: 2
Flags: HMW
LayerCount: 2
Fore
SplineSet
35 1199.00097656 m 0
 35 1675.48925781 513.196289062 1716 966.348632812 1716 c 0
 1180.19628906 1716 1401.35253906 1688.17089844 1401.35253906 1512.48535156 c 0
 1401.35253906 1408.92285156 1254.67773438 1474.98144531 1247.3203125 1335 c 2
 1180.03222656 55 l 2
 1176.25292969 -16.916015625 1128.36328125 -61 1054.93457031 -61 c 0
 988.987304688 -61 937.70703125 -27.291015625 940.6875 29.400390625 c 2
 1020.83203125 1554 l 1
 895.83203125 1554 l 1
 817.243164062 59 l 2
 813.310546875 -15.80859375 769.68359375 -61 692.934570312 -61 c 0
 626.72265625 -61 575.651367188 -28.34375 578.643554688 28.57421875 c 2
 615.989257812 739 l 1
 290.29296875 739 35 883.708007812 35 1199.00097656 c 0
EndSplineSet
EndChar

StartChar: periodcentered
Encoding: 183 183 121
Width: 741
GlyphClass: 2
Flags: HMW
LayerCount: 2
Fore
SplineSet
697.73828125 876.165039062 m 0
 697.73828125 693.388671875 530.37890625 614 359.32421875 614 c 0
 196.575195312 614 46 689.654296875 46 848.390625 c 0
 46 1029.2109375 216.462890625 1110 385.3984375 1110 c 0
 549.833007812 1110 697.73828125 1036.43457031 697.73828125 876.165039062 c 0
EndSplineSet
EndChar

StartChar: cedilla
Encoding: 184 184 122
Width: 765
GlyphClass: 2
Flags: HMW
LayerCount: 2
Fore
SplineSet
432.194335938 -276 m 0
 439.264648438 -141.48828125 305.498046875 -59.6748046875 217.703125 0 c 1
 425.703125 0 l 1
 569.234375 -31.99609375 716.002929688 -127.444335938 706.879882812 -301 c 0
 696.254882812 -503.122070312 549.84765625 -614 350.426757812 -614 c 0
 227.03515625 -614 52.130859375 -600.591796875 57.103515625 -506 c 2
 66.5654296875 -326 l 1
 124.97265625 -364.155273438 208.98828125 -410 304.150390625 -410 c 0
 387.676757812 -410 427.717773438 -361.149414062 432.194335938 -276 c 0
EndSplineSet
EndChar

StartChar: uni00B9
Encoding: 185 185 123
Width: 992
GlyphClass: 2
Flags: HMW
LayerCount: 2
Fore
SplineSet
548.9921875 1296 m 0
 801.571289062 1296 853.288085938 1225.56054688 840.22265625 977 c 2
 811.151367188 424 l 2
 807.384765625 352.333984375 831.245117188 311.288085938 885.028320312 298 c 128
 921.875 288.896484375 964.715820312 282.538085938 962.26953125 236 c 0
 952.427734375 48.783203125 675.68359375 0 480.86328125 0 c 0
 285.30859375 0 21.39453125 48.169921875 31.26953125 236 c 0
 36.1025390625 327.9609375 192.307617188 274.783203125 199.94140625 420 c 2
 223.96484375 877 l 2
 231.377929688 1017.99609375 69.91796875 971.223632812 74.6376953125 1061 c 0
 84.515625 1248.90917969 353.84765625 1296 548.9921875 1296 c 0
EndSplineSet
EndChar

StartChar: guillemotright
Encoding: 187 187 125
Width: 1738
GlyphClass: 2
Flags: HMW
LayerCount: 2
Fore
SplineSet
158.74609375 -14 m 0
 73.30078125 -14 21.8515625 45.0888671875 26.2626953125 129 c 0
 29.58984375 192.291015625 73.5595703125 236.685546875 113.569335938 277.5 c 128
 181.6796875 346.981445312 257.899414062 410.259765625 337.87109375 483 c 2
 510.072265625 639 l 1
 354.2734375 795 l 2
 281.772460938 867.915039062 212.555664062 930.8203125 151.575195312 1000.5 c 128
 115.766601562 1041.41796875 76.548828125 1085.58300781 79.8818359375 1149 c 0
 84.29296875 1232.91015625 141.961914062 1292 227.399414062 1292 c 0
 409.857421875 1292 575.487304688 1105.67480469 683.6796875 1012 c 0
 782.166015625 927.11328125 967.125976562 811.224609375 958.072265625 639 c 256
 949.092773438 468.180664062 751.080078125 350.258789062 644.46484375 266 c 0
 525.684570312 171.739257812 341.782226562 -14 158.74609375 -14 c 0
903.74609375 -14 m 0
 818.275390625 -14 767.857421875 45.1904296875 772.262695312 129 c 0
 775.58984375 192.291015625 819.559570312 236.685546875 859.569335938 277.5 c 128
 927.6796875 346.981445312 1003.89941406 410.259765625 1083.87109375 483 c 2
 1255.07226562 639 l 1
 1100.2734375 795 l 2
 1027.77246094 867.915039062 958.555664062 930.8203125 897.575195312 1000.5 c 128
 861.766601562 1041.41796875 822.548828125 1085.58300781 825.881835938 1149 c 0
 830.287109375 1232.80859375 886.936523438 1292 972.399414062 1292 c 0
 1154.85742188 1292 1320.48730469 1105.67480469 1428.6796875 1012 c 0
 1526.53710938 927.654296875 1713.04003906 809.591796875 1704.07226562 639 c 256
 1695.09765625 468.275390625 1496.03027344 350.219726562 1389.46484375 266 c 0
 1270.68457031 171.739257812 1086.78222656 -14 903.74609375 -14 c 0
EndSplineSet
EndChar

StartChar: onequarter
Encoding: 188 188 126
Width: 2102
GlyphClass: 2
Flags: HMW
LayerCount: 2
Fore
SplineSet
575.076171875 784 m 2
 569.825195312 684.103515625 683.446289062 714.9453125 680.189453125 653 c 0
 673.338867188 522.653320312 480.075195312 487 344.463867188 487 c 0
 206.939453125 487 22.2529296875 521.043945312 29.189453125 653 c 0
 32.546875 716.872070312 141.633789062 680.465820312 146.971679688 782 c 2
 163.79296875 1102 l 2
 169.028320312 1201.60058594 56.212890625 1167.04492188 59.57421875 1231 c 0
 66.51171875 1362.96875 258.088867188 1395 392.1953125 1395 c 0
 560.440429688 1395 606.881835938 1389.04296875 597.943359375 1219 c 2
 575.076171875 784 l 2
1395.88574219 1294 m 0
 1478.79589844 1294 1556.20996094 1224.06152344 1552.05371094 1145 c 0
 1548.63574219 1079.97851562 1512.59082031 1058.05566406 1476.16796875 1014 c 130
 1412.09375 936.5 l 130
 1190.44824219 668.413085938 956.607421875 390.379882812 732.459960938 125.5 c 128
 689.771484375 75.0537109375 654.48828125 16 569.704101562 16 c 256
 485.395507812 16 407.416015625 86.603515625 411.58984375 166 c 0
 416.377929688 257.1015625 501.724609375 315.919921875 553.759765625 378.5 c 128
 776.09765625 645.888671875 1009.296875 923.481445312 1230.47167969 1191 c 128
 1274.00097656 1243.65039062 1306.29785156 1294 1395.88574219 1294 c 0
1857.44335938 -27 m 2
 1852.18554688 -127.041015625 1965.91113281 -94.2080078125 1962.55761719 -158 c 0
 1955.74121094 -287.661132812 1761.92285156 -324 1626.83105469 -324 c 0
 1489.30664062 -324 1304.62109375 -289.956054688 1311.55761719 -158 c 0
 1315.00195312 -92.4765625 1423.89453125 -132.5625 1429.33886719 -29 c 2
 1430.86328125 0 l 1
 1180.86328125 0 l 2
 1074.45214844 0 946.174804688 -13.107421875 951.489257812 88 c 2
 953.381835938 124 l 2
 957.0703125 194.165039062 972.598632812 244.079101562 1010.265625 293 c 2
 1478.43652344 905 l 1
 1711.4296875 905 1906.04296875 897.491210938 1894.18847656 672 c 2
 1872.74121094 264 l 1
 1878.74121094 264 l 2
 2009.22558594 264 2079.56738281 260.708984375 2072.43457031 125 c 0
 2065.84375 -0.3828125 1989.63378906 0 1864.86328125 0 c 2
 1858.86328125 0 l 1
 1857.44335938 -27 l 2
1462.61425781 604 m 1
 1378.34277344 495.233398438 1296.12597656 377.454101562 1219.74121094 264 c 1
 1444.74121094 264 l 1
 1462.61425781 604 l 1
EndSplineSet
EndChar

StartChar: onehalf
Encoding: 189 189 127
Width: 2202
GlyphClass: 2
Flags: HMW
LayerCount: 2
Fore
SplineSet
575.076171875 784 m 2
 569.825195312 684.103515625 683.446289062 714.9453125 680.189453125 653 c 0
 673.338867188 522.653320312 480.075195312 487 344.463867188 487 c 0
 206.939453125 487 22.2529296875 521.043945312 29.189453125 653 c 0
 32.546875 716.872070312 141.633789062 680.465820312 146.971679688 782 c 2
 163.79296875 1102 l 2
 169.028320312 1201.60058594 56.212890625 1167.04492188 59.57421875 1231 c 0
 66.51171875 1362.96875 258.088867188 1395 392.1953125 1395 c 0
 560.440429688 1395 606.881835938 1389.04296875 597.943359375 1219 c 2
 575.076171875 784 l 2
1395.88574219 1294 m 0
 1478.79589844 1294 1556.20996094 1224.06152344 1552.05371094 1145 c 0
 1548.63574219 1079.97851562 1512.59082031 1058.05566406 1476.16796875 1014 c 130
 1412.09375 936.5 l 130
 1190.44824219 668.413085938 956.607421875 390.379882812 732.459960938 125.5 c 128
 689.771484375 75.0537109375 654.48828125 16 569.704101562 16 c 256
 485.395507812 16 407.416015625 86.603515625 411.58984375 166 c 0
 416.377929688 257.1015625 501.724609375 315.919921875 553.759765625 378.5 c 128
 776.09765625 645.888671875 1009.296875 923.481445312 1230.47167969 1191 c 128
 1274.00097656 1243.65039062 1306.29785156 1294 1395.88574219 1294 c 0
1343.37011719 713.5 m 130
 1350.83789062 855.5625 1589.8359375 928 1739.64648438 928 c 0
 1916.53027344 928 2081.91015625 856.916015625 2072.71386719 682 c 0
 2065.82226562 550.900390625 1987.18652344 484.771484375 1890.09863281 442 c 1
 2042.96386719 401.208007812 2179.71484375 301.548828125 2169.80273438 113 c 0
 2158.48828125 -102.255859375 1965.29785156 -223 1746.140625 -223 c 0
 1564.94042969 -223 1421.55175781 -157.880859375 1341.76171875 -59 c 0
 1337.578125 -53.8154296875 1334.45703125 -45.7783203125 1334.91796875 -37 c 0
 1336.34863281 -9.7890625 1356.52148438 27 1383.28320312 27 c 0
 1446.5703125 27 1518.04980469 -27 1605.44335938 -27 c 0
 1706.55957031 -27 1782.77148438 36.2978515625 1787.95996094 135 c 0
 1792.32226562 217.986328125 1736.84765625 276 1652.37207031 276 c 0
 1632.5859375 276 1604.69433594 264 1585.74121094 264 c 0
 1552.44335938 264 1530.66894531 300.663085938 1532.421875 334 c 0
 1533.29785156 350.666992188 1542.68457031 367.487304688 1562.89160156 381 c 0
 1635.60644531 429.625 1702.6484375 490.505859375 1707.66796875 586 c 0
 1712.05957031 669.54296875 1657.0625 723 1572.86914062 723 c 0
 1489.20019531 723 1443.05957031 653 1377.18945312 653 c 0
 1349.38476562 653 1341.28613281 673.853515625 1342.66113281 700 c 2
 1343.37011719 713.5 l 130
EndSplineSet
EndChar

StartChar: threequarters
Encoding: 190 190 128
Width: 2404
GlyphClass: 2
Flags: HMW
LayerCount: 2
Fore
SplineSet
39.4609375 1200.5 m 130
 46.90234375 1342.0625 286.111328125 1415 435.737304688 1415 c 0
 612.62109375 1415 778 1343.91601562 768.805664062 1169 c 0
 761.864257812 1036.95996094 684.505859375 972.475585938 586.241210938 930 c 1
 739.286132812 889.16015625 875.817382812 788.770507812 865.89453125 600 c 0
 854.60546875 385.263671875 661.708984375 264 443.231445312 264 c 0
 262.383789062 264 118.552734375 330.379882812 37.8525390625 428 c 0
 33.287109375 433.521484375 30.546875 441.219726562 31.0615234375 451 c 0
 32.4677734375 477.752929688 53.03515625 514 79.373046875 514 c 0
 142.874023438 514 215.34375 461 301.586914062 461 c 0
 403.862304688 461 478.946289062 524.904296875 484.208984375 625 c 0
 488.473632812 706.135742188 431.176757812 764 348.515625 764 c 0
 328.489257812 764 302.333984375 752 281.883789062 752 c 0
 248.77734375 752 226.770507812 787.883789062 228.51171875 821 c 0
 229.422851562 838.333007812 240.229492188 853.666992188 260.9296875 867 c 0
 331.90234375 914.265625 398.8828125 980.237304688 403.758789062 1073 c 0
 408.124023438 1156.04101562 353.637695312 1210 269.9609375 1210 c 0
 185.5546875 1210 140.49609375 1141 73.3330078125 1141 c 0
 45.1025390625 1141 37.390625 1161.09570312 38.8037109375 1188 c 2
 39.4609375 1200.5 l 130
1672.37597656 1294 m 0
 1755.28613281 1294 1832.70019531 1224.06152344 1828.54394531 1145 c 0
 1825.12597656 1079.97851562 1789.08105469 1058.05566406 1752.65820312 1014 c 130
 1688.58398438 936.5 l 130
 1466.93847656 668.413085938 1233.09765625 390.379882812 1008.95019531 125.5 c 128
 966.26171875 75.0537109375 930.978515625 16 846.194335938 16 c 256
 761.885742188 16 683.90625 86.603515625 688.080078125 166 c 0
 692.868164062 257.1015625 778.21484375 315.919921875 830.25 378.5 c 128
 1052.58789062 645.888671875 1285.78710938 923.481445312 1506.96191406 1191 c 128
 1550.49121094 1243.65039062 1582.78808594 1294 1672.37597656 1294 c 0
2159.93359375 -27 m 2
 2154.66308594 -127.254882812 2269.40722656 -94.091796875 2266.04785156 -158 c 0
 2259.22851562 -287.729492188 2064.40625 -324 1929.32128906 -324 c 256
 1792.33691406 -324 1608.13378906 -289.525390625 1615.04785156 -158 c 0
 1618.4765625 -92.78515625 1726.42285156 -131.84765625 1731.82910156 -29 c 2
 1733.35351562 0 l 1
 1484.35351562 0 l 2
 1377.65332031 0 1249.66308594 -13.134765625 1254.97949219 88 c 0
 1255.61328125 100.055664062 1255.40234375 115.072265625 1256.08203125 128 c 0
 1259.69335938 196.694335938 1276.11328125 245.018554688 1312.75585938 293 c 2
 1780.92675781 905 l 1
 2013.91992188 905 2208.53320312 897.491210938 2196.67871094 672 c 2
 2175.23144531 264 l 1
 2182.23144531 264 l 2
 2312.50878906 264 2382.04882812 260.529296875 2374.92480469 125 c 0
 2368.34277344 -0.197265625 2293.10742188 0 2168.35351562 0 c 2
 2161.35351562 0 l 1
 2159.93359375 -27 l 2
1765.10449219 604 m 1
 1682.48242188 494.751953125 1596.83300781 377.71875 1522.23144531 264 c 1
 1747.23144531 264 l 1
 1765.10449219 604 l 1
EndSplineSet
EndChar

StartChar: AE
Encoding: 198 198 136
Width: 2506
GlyphClass: 2
Flags: HMW
LayerCount: 2
Fore
SplineSet
955.498046875 489 m 1
 603.498046875 489 l 1
 562.870117188 420 l 1
 465.076171875 258.41015625 656.369140625 334.768554688 632.198242188 236 c 0
 596.0546875 88.310546875 454.536132812 0 277.791992188 0 c 0
 149.084960938 0 53.900390625 46.3017578125 33.4404296875 145.5 c 0
 4 288.244140625 99.8017578125 274.190429688 182.403320312 316 c 0
 228.149414062 339.155273438 259.79296875 373.000976562 289.080078125 424 c 2
 719.506835938 1174 l 2
 744.369140625 1217.13476562 777.80859375 1280.55957031 709.551757812 1298.5 c 0
 676.319335938 1307.234375 665.828125 1313.28320312 667.864257812 1352 c 0
 667.96875 1354 668.741210938 1356 670.178710938 1358 c 0
 752.249023438 1562.97070312 1022.60058594 1593 1301.53222656 1593 c 0
 1304.7734375 1593 1307.95507812 1592.92382812 1311.08007812 1592.77246094 c 0
 1323.3515625 1592.93359375 1335.51953125 1593 1347.53222656 1593 c 2
 2205.53222656 1593 l 2
 2395.29199219 1593 2481.41992188 1381.60546875 2471.45214844 1192 c 0
 2466.02148438 1088.68164062 2398.56738281 1020 2296.41113281 1020 c 0
 2175.06054688 1020 2117.70214844 1117.89160156 2099.76660156 1217 c 2
 2069.54589844 1384 l 1
 1735.54589844 1384 l 1
 1711.36523438 924 l 1
 1791.890625 934 l 1
 1831.33300781 1005.38085938 1861.82128906 1118 1963.56347656 1118 c 0
 2110.01074219 1118 2163.8203125 989.73828125 2156.16015625 844 c 0
 2148.4296875 696.958984375 2081.12304688 567 1934.59863281 567 c 0
 1833.62695312 567 1859.79882812 742.251953125 1782.32226562 752 c 2
 1702.84863281 762 l 1
 1673.56835938 205 l 1
 2016.40917969 221 l 1
 2066.55566406 395 l 1
 2103.2421875 499.573242188 2166.4140625 602 2295.4375 602 c 0
 2403.1875 602 2465.58300781 528.66015625 2459.87011719 420 c 0
 2449.23144531 217.610351562 2334.13867188 0 2133.79199219 0 c 2
 1263.79199219 0 l 2
 1040.37890625 0 773.939453125 21.822265625 785.198242188 236 c 0
 790.03125 327.9609375 946.236328125 274.783203125 953.870117188 420 c 1
 955.498046875 489 l 1
990.3125 1213.79589844 m 1
 693.48828125 641 l 1
 965.48828125 641 l 1
 993.502929688 1191.94238281 l 2
 993.041015625 1199.90429688 991.94921875 1207.16015625 990.3125 1213.79589844 c 1
EndSplineSet
EndChar

StartChar: Eth
Encoding: 208 208 146
Width: 1940
GlyphClass: 2
Flags: HMW
LayerCount: 2
Fore
SplineSet
231.048828125 744 m 2
 139.083984375 744 84.31640625 749.08984375 89.2001953125 842 c 0
 93.888671875 931.180664062 152.653320312 940 241.352539062 940 c 2
 955.352539062 940 l 2
 1050.06347656 940 1112.21972656 937.481445312 1107.20019531 842 c 256
 1102.18164062 746.5234375 1039.76464844 744 945.048828125 744 c 2
 231.048828125 744 l 2
1244.83105469 854 m 0
 1255.43261719 1055.66210938 1258.7421875 1397 1069.37597656 1397 c 0
 961.852539062 1397 938.159179688 1316.78808594 932.545898438 1210 c 2
 890.912109375 418 l 2
 885.297851562 311.216796875 900.556640625 231 1008.08203125 231 c 0
 1211.53222656 231 1233.17578125 632.274414062 1244.83105469 854 c 0
237.758789062 1176 m 2
 245.139648438 1316.42089844 83.728515625 1270.54003906 88.4306640625 1360 c 0
 99.6171875 1572.80078125 371.482421875 1593 591.678710938 1593 c 2
 1079.67871094 1593 l 2
 1605.66113281 1593 1935.63183594 1363.82714844 1908.30664062 844 c 0
 1876.10351562 231.411132812 1530.68261719 0 911.938476562 0 c 2
 507.938476562 0 l 2
 284.525390625 0 18.0859375 21.822265625 29.3447265625 236 c 0
 34.177734375 327.9609375 190.3828125 274.783203125 198.016601562 420 c 2
 237.758789062 1176 l 2
EndSplineSet
EndChar

StartChar: multiply
Encoding: 215 215 153
Width: 1079
GlyphClass: 2
Flags: HMW
LayerCount: 2
Fore
SplineSet
1017.18066406 398 m 0
 1012.78320312 314.333007812 926.516601562 235 843.612304688 235 c 0
 795.9765625 235 759.490234375 260.459960938 736.241210938 285 c 2
 530.647460938 502 l 1
 300.241210938 285 l 2
 274.127929688 260.19140625 233.999023438 233 185.506835938 233 c 0
 101.83984375 233 26.8232421875 315.095703125 31.1806640625 398 c 0
 33.685546875 445.635742188 61.1328125 483.459960938 86.962890625 508 c 2
 317.475585938 727 l 1
 109.98828125 946 l 2
 86.37109375 972.18359375 60.36328125 1010.21386719 62.927734375 1059 c 0
 67.3037109375 1142.23339844 154.889648438 1223 237.549804688 1223 c 0
 285.028320312 1223 321.21875 1195.90625 344.815429688 1171 c 2
 554.303710938 952 l 1
 782.7109375 1169 l 2
 810.15234375 1193.94335938 849.840820312 1223 898.549804688 1223 c 0
 981.254882812 1223 1059.08691406 1138.12011719 1054.77050781 1056 c 0
 1052.27929688 1008.59863281 1022.14746094 970.853515625 995.98828125 946 c 2
 765.475585938 727 l 1
 971.068359375 510 l 2
 994.573242188 485.19140625 1019.73046875 446.4921875 1017.18066406 398 c 0
EndSplineSet
EndChar

StartChar: Oslash
Encoding: 216 216 154
Width: 1858
GlyphClass: 2
Flags: HMW
LayerCount: 2
Fore
SplineSet
320.500976562 -35 m 6
 1459.8125 1683 l 6
 1522.50390625 1779.06933594 1668.54882812 1711.32128906 1598.76464844 1606 c 6
 460.453125 -112 l 6
 398.659179688 -205.4453125 257.235351562 -130.401367188 320.500976562 -35 c 6
EndSplineSet
Refer: 50 79 N 1 0 0.0525679 1 -38.66 0 2
EndChar

StartChar: Thorn
Encoding: 222 222 160
Width: 1813
GlyphClass: 2
Flags: HMW
LayerCount: 2
Fore
SplineSet
1205.51171875 905 m 0
 1213.56347656 1058.14648438 1167.58203125 1204 1015.22949219 1204 c 2
 912.229492188 1204 l 1
 883.793945312 625 l 1
 1014.79394531 625 l 2
 1149.40527344 625 1198.4140625 769.961914062 1205.51171875 905 c 0
247.953125 1427 m 2
 255.392578125 1568.51757812 93.96484375 1522.35644531 98.677734375 1612 c 0
 109.853515625 1824.60253906 381.995117188 1847 602.03125 1847 c 0
 828.133789062 1847 1103.04980469 1828.31542969 1091.67773438 1612 c 0
 1086.78417969 1518.90234375 927.565429688 1571.81347656 919.7421875 1423 c 2
 917.692382812 1384 l 1
 1161.69238281 1384 l 2
 1494.59863281 1384 1805.34375 1244.19726562 1788.51171875 924 c 0
 1771.72363281 604.658203125 1445.14746094 465 1113.3828125 465 c 0
 1040.01269531 465 942.891601562 464.23046875 871.592773438 469 c 1
 868.595703125 412 l 2
 861.408203125 275.254882812 1026.11132812 326.671875 1021.34472656 236 c 0
 1010.51660156 30.0205078125 751.310546875 0 506.938476562 0 c 0
 283.525390625 0 17.0859375 21.822265625 28.3447265625 236 c 0
 33.177734375 327.9609375 189.3828125 274.783203125 197.016601562 420 c 2
 247.953125 1427 l 2
EndSplineSet
EndChar

StartChar: germandbls
Encoding: 223 223 161
Width: 1954
GlyphClass: 2
Flags: HMW
LayerCount: 2
Fore
SplineSet
1404.94140625 -57 m 0
 1247.88183594 -57 1050.01757812 1.50390625 1057.82324219 150 c 0
 1061.21484375 214.513671875 1092.02734375 260 1147.60644531 260 c 0
 1250.7890625 260 1299.31542969 387.639648438 1304.80175781 492 c 0
 1314.38867188 674.368164062 1203.58691406 788 1017.36230469 788 c 0
 967.280273438 788 947.334960938 825.526367188 949.8828125 874 c 256
 952.493164062 923.642578125 977.149414062 961 1028.45605469 961 c 0
 1134.90136719 961 1185.94433594 1046.38769531 1191.54882812 1153 c 0
 1197.42382812 1264.75292969 1152.36035156 1397 1043.37597656 1397 c 0
 931.849609375 1397 920.8125 1253.13476562 914.708007812 1137 c 2
 875.016601562 420 l 2
 867.533203125 277.631835938 1034.10742188 326.606445312 1029.34472656 236 c 0
 1018.4453125 28.6787109375 756.633789062 0 508.938476562 0 c 0
 285.49609375 0 18.078125 21.6875 29.3447265625 236 c 0
 34.1943359375 328.255859375 191.345703125 274.07421875 199.016601562 420 c 2
 222.8828125 874 l 2
 230.409179688 1017.15820312 241.0703125 1144.70117188 282.25390625 1252 c 128
 389.385742188 1531.12109375 695.966796875 1593 1079.67871094 1593 c 0
 1386.94433594 1593 1734.07128906 1486.32421875 1718.91503906 1198 c 0
 1709.96875 1027.81347656 1560.875 941.799804688 1411.03808594 915 c 1
 1711.12011719 896.330078125 1933.06835938 687.302734375 1916.65136719 375 c 0
 1901.91796875 94.72265625 1690.82421875 -57 1404.94140625 -57 c 0
EndSplineSet
EndChar

StartChar: ae
Encoding: 230 230 168
Width: 2135
GlyphClass: 2
Flags: HMW
LayerCount: 2
Fore
SplineSet
170.584960938 999 m 0
 184.16796875 1257.41015625 497.99609375 1325 771.721679688 1325 c 0
 944.573242188 1325 1085.29394531 1283.64257812 1162.15039062 1200 c 1
 1260.59570312 1265.20800781 1393.91699219 1325 1553.72167969 1325 c 0
 1887.06152344 1325 2124.734375 1135.01464844 2107.4921875 807 c 0
 2101.47167969 692.486328125 2032.58886719 682 1918.91992188 682 c 2
 1437.91992188 682 l 1
 1425.56542969 446.967773438 1494.43457031 332 1724.52148438 332 c 0
 1839.57519531 332 1935.58007812 412 2023.7265625 412 c 0
 2055.21679688 412 2071.03222656 379.74609375 2069.36328125 348 c 0
 2068.73730469 336.099609375 2068.0625 327.780273438 2063.83886719 319 c 0
 1969.32421875 106.350585938 1765.86132812 -25 1468.75488281 -25 c 0
 1297.47460938 -25 1181.81542969 51.2314453125 1106.5859375 143 c 1
 1051.64648438 10.998046875 731.477539062 -25 546.754882812 -25 c 0
 282.8515625 -25 22.7724609375 51.4091796875 36.5224609375 313 c 0
 54.6357421875 657.565429688 341.5703125 760 699.020507812 760 c 2
 836.020507812 760 l 1
 844.081054688 913.337890625 866.4921875 1137 726.838867188 1137 c 0
 596.17578125 1137 583.427734375 938.951171875 576.28125 803 c 1
 387.047851562 803 160.750976562 811.930664062 170.584960938 999 c 0
583.887695312 377 m 0
 578.26953125 270.131835938 599.69140625 205 707.845703125 205 c 0
 797.548828125 205 814.151367188 267.881835938 818.888671875 358 c 0
 823.750976562 450.50390625 824.603515625 550.537109375 827.870117188 643 c 1
 810.4453125 645.5078125 795.170898438 647 776.081054688 647 c 0
 632.301757812 647 591.498046875 521.77734375 583.887695312 377 c 0
1769.33203125 823 m 1
 1776.8046875 965.135742188 1752.09179688 1069 1614.26464844 1069 c 0
 1495.36816406 1069 1455.81835938 946.376953125 1449.33203125 823 c 1
 1769.33203125 823 l 1
EndSplineSet
Substitution2: "'smcp' Lowercase to Small Capitals in Latin lookup 1 subtable" ae.sc
Substitution2: "'aalt' Access All Alternates in Latin lookup 0 subtable" ae.sc
EndChar

StartChar: eth
Encoding: 240 240 178
Width: 1559
GlyphClass: 2
Flags: HMW
LayerCount: 2
Fore
SplineSet
1075.18945312 1441 m 1
 1323.99414062 1285.11523438 1548.86914062 1016.390625 1527.97851562 619 c 0
 1505.15234375 184.780273438 1177.55371094 -49 736.86328125 -49 c 0
 329.03125 -49 12.009765625 144.004882812 32.9833984375 543 c 0
 49.49609375 857.107421875 283.61328125 1075 602.950195312 1075 c 0
 731.232421875 1075 831.55859375 1042.40136719 924.692382812 994 c 1
 896.323242188 1102.82324219 837.76171875 1292.25292969 749.465820312 1237 c 2
 626.418945312 1160 l 2
 601.921875 1144.22167969 573.317382812 1122 541.420898438 1122 c 0
 504.3359375 1122 472.038085938 1171.80859375 473.94140625 1208 c 0
 476.055664062 1248.21679688 518.948242188 1271.05761719 550.251953125 1290 c 2
 594.671875 1317 l 1
 489.055664062 1357.40234375 274.051757812 1362.28222656 281.606445312 1506 c 0
 285.091796875 1572.30273438 333.337890625 1618 400.494140625 1618 c 0
 605.065429688 1618 775.278320312 1580.95019531 919.395507812 1521 c 1
 1045.49609375 1599 l 2
 1070.43554688 1614.44238281 1098.4375 1637 1129.49316406 1637 c 0
 1166.37207031 1637 1200.75195312 1584.84570312 1198.91992188 1550 c 0
 1196.74902344 1508.69628906 1147.87792969 1486.25878906 1115.50390625 1466 c 2
 1075.18945312 1441 l 1
950.495117188 781 m 0
 951.91796875 808.0703125 857.780273438 791 812.020507812 791 c 0
 688.125 791 633.69140625 594.495117188 626.883789062 465 c 0
 620.482421875 343.229492188 649.2890625 217 768.846679688 217 c 0
 949.465820312 217 939.7265625 576.155273438 950.495117188 781 c 0
EndSplineSet
Substitution2: "'smcp' Lowercase to Small Capitals in Latin lookup 1 subtable" eth.sc
Substitution2: "'aalt' Access All Alternates in Latin lookup 0 subtable" eth.sc
EndChar

StartChar: divide
Encoding: 247 247 185
Width: 1070
GlyphClass: 2
Flags: HMW
LayerCount: 2
Fore
SplineSet
787.958007812 340 m 0
 780.708007812 202.077148438 669.713867188 124 529.603515625 124 c 256
 388.418945312 124 287.735351562 202.58984375 294.958007812 340 c 0
 302.151367188 476.8359375 413.076171875 556 552.3125 556 c 0
 692.754882812 556 795.142578125 476.6796875 787.958007812 340 c 0
828.540039062 1112 m 0
 821.290039062 974.077148438 710.295898438 896 570.185546875 896 c 256
 429.000976562 896 328.317382812 974.58984375 335.540039062 1112 c 0
 342.733398438 1248.8359375 453.658203125 1328 592.89453125 1328 c 0
 733.336914062 1328 835.725585938 1248.6796875 828.540039062 1112 c 0
168.150390625 629 m 2
 76.185546875 629 21.41796875 634.08984375 26.3017578125 727 c 0
 30.9892578125 816.180664062 89.75390625 825 178.453125 825 c 2
 892.453125 825 l 2
 987.1640625 825 1049.32128906 822.481445312 1044.30175781 727 c 256
 1039.28222656 631.5234375 976.866210938 629 882.150390625 629 c 2
 168.150390625 629 l 2
EndSplineSet
EndChar

StartChar: oslash
Encoding: 248 248 186
Width: 1557
GlyphClass: 2
Flags: HMW
LayerCount: 2
Fore
SplineSet
264.899414062 -34 m 2
 1230.43847656 1422 l 2
 1259.38769531 1466.36132812 1294.79785156 1484.85058594 1324.34960938 1484.85058594 c 0
 1359.453125 1484.85058594 1386.28710938 1458.75976562 1384.1953125 1418.953125 c 0
 1383.2109375 1400.23828125 1375.59570312 1378.64453125 1359.91601562 1355 c 2
 394.377929688 -101 l 2
 365.778320312 -144.249023438 329.671875 -162.629882812 299.551757812 -162.629882812 c 0
 264.71484375 -162.629882812 237.88671875 -138.040039062 239.944335938 -98.8974609375 c 0
 240.926757812 -80.2158203125 248.733398438 -58.376953125 264.899414062 -34 c 2
EndSplineSet
Refer: 82 111 N 1 0 0.0525679 1 -31.3128 0 2
Substitution2: "'smcp' Lowercase to Small Capitals in Latin lookup 1 subtable" oslash.sc
Substitution2: "'aalt' Access All Alternates in Latin lookup 0 subtable" oslash.sc
EndChar

StartChar: thorn
Encoding: 254 254 192
Width: 1778
GlyphClass: 2
Flags: HMW
LayerCount: 2
Fore
SplineSet
567.65625 1681 m 0
 817.552734375 1681 877.852539062 1646.67675781 864.9375 1401 c 2
 854.056640625 1194 l 1
 950.384765625 1275.80371094 1087.09765625 1325 1263.94238281 1325 c 0
 1642.47949219 1325 1763.76269531 1017.21875 1743.98632812 641 c 0
 1724.56542969 271.548828125 1545.93652344 -35 1178.45019531 -35 c 0
 1006.89160156 -35 883.013671875 12.9638671875 796.021484375 90 c 1
 779.251953125 -229 l 2
 772.491210938 -357.603515625 919.838867188 -312.94921875 915.526367188 -395 c 0
 905.256835938 -590.34765625 649.211914062 -614 447.013671875 -614 c 0
 243.60546875 -614 2.0634765625 -594.013671875 12.3154296875 -399 c 0
 16.7548828125 -314.546875 159.014648438 -366.6796875 166.041992188 -233 c 2
 246.627929688 1300 l 2
 253.418945312 1429.17675781 106.025390625 1383.63574219 110.354492188 1466 c 0
 120.579101562 1660.48925781 366.419921875 1681 567.65625 1681 c 0
1112.77636719 637 m 0
 1122.74023438 826.556640625 1144.07519531 1069 967.485351562 1069 c 0
 917.411132812 1069 847.237304688 1064.27832031 845.330078125 1028 c 2
 805.588867188 272 l 1
 839.48046875 249.930664062 885.625 229 942.328125 229 c 0
 1125.20703125 229 1102.79882812 447.196289062 1112.77636719 637 c 0
EndSplineSet
Substitution2: "'smcp' Lowercase to Small Capitals in Latin lookup 1 subtable" thorn.sc
Substitution2: "'aalt' Access All Alternates in Latin lookup 0 subtable" thorn.sc
EndChar

StartChar: Dcroat
Encoding: 272 272 210
Width: 1937
GlyphClass: 2
Flags: HMW
LayerCount: 2
Fore
SplineSet
240.786132812 739 m 2
 148.821289062 739 94.0537109375 744.08984375 98.9375 837 c 0
 103.625976562 926.180664062 162.389648438 935 251.088867188 935 c 2
 965.088867188 935 l 2
 1059.79980469 935 1121.95800781 932.481445312 1116.9375 837 c 256
 1111.91894531 741.5234375 1049.50195312 739 954.786132812 739 c 2
 240.786132812 739 l 2
887.912109375 418 m 2
 882.297851562 311.216796875 897.556640625 231 1005.08203125 231 c 0
 1097.39648438 231 1143.28222656 319.471679688 1172.09667969 402.5 c 128
 1214.60742188 524.9921875 1233.02050781 686.399414062 1241.83105469 854 c 0
 1252.02636719 1047.953125 1243.04101562 1250.53125 1159.03613281 1352.5 c 128
 1134.59570312 1382.16699219 1103.70898438 1397 1066.37597656 1397 c 0
 958.852539062 1397 935.159179688 1316.78808594 929.545898438 1210 c 2
 887.912109375 418 l 2
85.4306640625 1360 m 0
 96.6171875 1572.80078125 368.482421875 1593 588.678710938 1593 c 2
 1076.67871094 1593 l 2
 1602.66113281 1593 1932.63183594 1363.82714844 1905.30664062 844 c 0
 1873.10351562 231.411132812 1527.68261719 0 908.938476562 0 c 2
 504.938476562 0 l 2
 281.525390625 0 15.0859375 21.822265625 26.3447265625 236 c 0
 29.630859375 298.512695312 109.696289062 288.150390625 147.971679688 314.5 c 128
 177.149414062 334.586914062 192.23828125 367.13671875 195.016601562 420 c 2
 234.758789062 1176 l 2
 238.454101562 1246.30371094 214.55078125 1285.94824219 161.723632812 1299 c 128
 124.864257812 1308.10742188 82.982421875 1313.41503906 85.4306640625 1360 c 0
EndSplineSet
EndChar

StartChar: glyph211
Encoding: 273 273 211
Width: 1774
GlyphClass: 2
Flags: HMW
LayerCount: 2
Fore
SplineSet
884.801757812 1360 m 2
 792.836914062 1360 738.069335938 1365.08984375 742.954101562 1458 c 0
 747.641601562 1547.18066406 806.40625 1556 895.10546875 1556 c 2
 1609.10546875 1556 l 2
 1703.81640625 1556 1765.97265625 1553.48144531 1760.95410156 1458 c 256
 1755.93457031 1362.5234375 1693.51757812 1360 1598.80175781 1360 c 2
 884.801757812 1360 l 2
38.005859375 641 m 0
 57.8388671875 1018.28515625 235.7734375 1325 611.961914062 1325 c 0
 778 1325 898.198242188 1278.74316406 982.600585938 1204 c 1
 998.424804688 1505 l 2
 1001.80664062 1569.359375 980.877929688 1605.2578125 931.759765625 1616 c 128
 897.291992188 1623.53808594 859.904296875 1628.28515625 862.150390625 1671 c 0
 872.374023438 1865.48925781 1118.21679688 1886 1319.453125 1886 c 0
 1471.16894531 1886 1602.82714844 1883.46191406 1620.14453125 1766 c 128
 1624.56738281 1736 1625.58789062 1698.33300781 1623.20507812 1653 c 2
 1552.54882812 385 l 2
 1549.11425781 319.684570312 1570.390625 282.095703125 1620.02929688 270.5 c 128
 1654.30664062 262.4921875 1692.85742188 257.7265625 1690.61230469 215 c 0
 1680.73339844 27.0869140625 1443.39160156 0 1220.30957031 0 c 0
 1084.58984375 0 993.344726562 35.115234375 956.986328125 127 c 1
 852.161132812 34.716796875 710.797851562 -25 512.995117188 -25 c 0
 139.067382812 -25 18.470703125 269.390625 38.005859375 641 c 0
641.795898438 637 m 0
 632.905273438 467.889648438 622.659179688 229 786.34765625 229 c 0
 841.579101562 229 898.98828125 253.115234375 935.712890625 274 c 1
 935.291015625 291.333007812 935.543945312 308.833007812 936.473632812 326.5 c 130
 972.614257812 1014 l 1
 933.348632812 1037.83398438 877.880859375 1069 816.504882812 1069 c 0
 645.434570312 1069 651.359375 818.936523438 641.795898438 637 c 0
EndSplineSet
EndChar

StartChar: Hbar
Encoding: 294 294 231
Width: 2225
GlyphClass: 2
Flags: HMW
LayerCount: 2
Fore
SplineSet
134.713867188 1042 m 2
 91.2919921875 1042 66.0869140625 1068.11328125 68.4462890625 1113 c 0
 70.8486328125 1158.69824219 98.2529296875 1185 142.231445312 1185 c 2
 2123.23144531 1185 l 2
 2168.27148438 1185 2191.89941406 1159.66210938 2189.44628906 1113 c 0
 2187.03613281 1067.13378906 2160.19140625 1042 2115.71386719 1042 c 2
 134.713867188 1042 l 2
1639.93847656 0 m 0
 1413.05371094 0 1138.92773438 18.8349609375 1150.34472656 236 c 0
 1153.67382812 299.321289062 1234.8515625 288.690429688 1273.04980469 316 c 128
 1302.36816406 336.9609375 1317.38964844 370.013671875 1320.2265625 424 c 2
 1336.26074219 729 l 1
 885.260742188 729 l 1
 869.2265625 424 l 2
 865.462890625 352.403320312 890.571289062 311.02734375 944.603515625 298 c 128
 981.551757812 289.090820312 1023.78125 282.34375 1021.34472656 236 c 0
 1010.51660156 30.0205078125 751.310546875 0 506.938476562 0 c 0
 283.525390625 0 17.0859375 21.822265625 28.3447265625 236 c 0
 31.630859375 298.512695312 111.696289062 288.150390625 149.971679688 314.5 c 128
 179.149414062 334.586914062 194.23828125 367.13671875 197.016601562 420 c 2
 236.653320312 1174 l 2
 240.348632812 1244.30371094 216.4453125 1283.94824219 163.619140625 1297 c 128
 126.758789062 1306.10742188 84.876953125 1311.41503906 87.3251953125 1358 c 0
 98.501953125 1570.60253906 370.642578125 1593 590.678710938 1593 c 0
 816.78125 1593 1091.69628906 1574.31542969 1080.32519531 1358 c 0
 1077.01855469 1295.07324219 996.206054688 1306.00976562 957.69921875 1279.5 c 128
 928.879882812 1259.65917969 913.381835938 1225.89160156 910.653320312 1174 c 2
 897.405273438 922 l 1
 1346.40527344 922 l 1
 1359.65332031 1174 l 2
 1363.35742188 1244.46679688 1339.33886719 1284.16796875 1286.11914062 1297 c 128
 1248.89355469 1305.97558594 1206.86914062 1311.28027344 1209.32519531 1358 c 0
 1220.11523438 1563.23339844 1479.26074219 1593 1723.67871094 1593 c 0
 1965.77734375 1593 2219.06152344 1562.23144531 2208.32519531 1358 c 0
 2205.00488281 1294.81640625 2119.29101562 1305.33300781 2079.69921875 1279.5 c 128
 2049.77050781 1259.97070312 2033.40917969 1226.4296875 2030.65332031 1174 c 2
 1991.2265625 424 l 2
 1987.41210938 351.432617188 2013.19921875 310.744140625 2068.60351562 298 c 128
 2106.54882812 289.271484375 2151.80371094 282.778320312 2149.34472656 236 c 0
 2138.046875 21.0869140625 1862.46386719 0 1639.93847656 0 c 0
EndSplineSet
EndChar

StartChar: hbar
Encoding: 295 295 232
Width: 1935
GlyphClass: 2
Flags: HMW
LayerCount: 2
Fore
SplineSet
234.180664062 1354 m 2
 142.215820312 1354 87.4482421875 1359.08984375 92.33203125 1452 c 0
 97.0205078125 1541.18066406 155.78515625 1550 244.484375 1550 c 2
 958.484375 1550 l 2
 1053.1953125 1550 1115.3515625 1547.48144531 1110.33203125 1452 c 256
 1105.31347656 1356.5234375 1042.89648438 1354 948.180664062 1354 c 2
 234.180664062 1354 l 2
1420.00390625 0 m 0
 1216.04003906 0 974.033203125 19.578125 984.306640625 215 c 0
 987.334960938 272.608398438 1063.56445312 263.784179688 1099.14257812 288 c 128
 1127.24511719 307.125976562 1140.79394531 338.427734375 1143.453125 389 c 2
 1164.90039062 797 l 2
 1173.23730469 955.595703125 1143.73535156 1069 986.19921875 1069 c 0
 913.412109375 1069 860.580078125 1029.45898438 822.203125 993 c 1
 790.243164062 385 l 2
 786.786132812 319.25390625 808.521484375 282.419921875 858.223632812 270.5 c 128
 892.399414062 262.303710938 931.561523438 257.916992188 929.306640625 215 c 0
 919.427734375 27.0869140625 682.0859375 0 459.00390625 0 c 0
 240.579101562 0 14.5302734375 29.033203125 24.306640625 215 c 0
 27.3544921875 272.994140625 99.7412109375 261.44921875 135.51171875 285.5 c 128
 162.633789062 303.735351562 175.483398438 332.51171875 178.032226562 381 c 2
 237.119140625 1505 l 2
 240.500976562 1569.359375 219.572265625 1605.2578125 170.454101562 1616 c 128
 135.986328125 1623.53808594 98.5986328125 1628.28515625 100.844726562 1671 c 0
 110.6171875 1856.90527344 339.994140625 1886 558.147460938 1886 c 0
 710.080078125 1886 840.493164062 1883.65136719 857.838867188 1766 c 128
 862.26171875 1736 863.282226562 1698.33300781 860.899414062 1653 c 2
 832.509765625 1151 l 1
 934.610351562 1255.98046875 1091.55957031 1325 1298.65625 1325 c 0
 1669.15234375 1325 1783.54492188 1075.57128906 1764.27441406 709 c 2
 1747.66308594 393 l 2
 1744.04882812 324.233398438 1765.68847656 285.28515625 1816.80273438 272 c 128
 1850.84179688 263.15234375 1891.57226562 258.09765625 1889.30664062 215 c 0
 1879.42480469 27.033203125 1643.20800781 0 1420.00390625 0 c 0
EndSplineSet
Substitution2: "'smcp' Lowercase to Small Capitals in Latin lookup 1 subtable" hbar.sc
Substitution2: "'aalt' Access All Alternates in Latin lookup 0 subtable" hbar.sc
EndChar

StartChar: dotlessi
Encoding: 305 305 241
Width: 982
GlyphClass: 2
Flags: HMW
LayerCount: 2
Fore
SplineSet
211.11328125 915 m 2
 217.852539062 1043.20410156 69.546875 999.348632812 73.83984375 1081 c 0
 84.0810546875 1275.81933594 330.416015625 1296 532.142578125 1296 c 256
 752.787109375 1296 842.327148438 1280.50585938 830.892578125 1063 c 2
 795.146484375 383 l 2
 788.30078125 252.75390625 938.657226562 297.592773438 934.31640625 215 c 0
 924.4375 27.0869140625 687.095703125 0 464.013671875 0 c 0
 260.049804688 0 18.04296875 19.578125 28.31640625 215 c 0
 32.732421875 299.0078125 176.02734375 247.5546875 183.041992188 381 c 2
 211.11328125 915 l 2
EndSplineSet
Substitution2: "'smcp' Lowercase to Small Capitals in Latin lookup 1 subtable" dotlessi.sc
Substitution2: "'aalt' Access All Alternates in Latin lookup 0 subtable" dotlessi.sc
EndChar

StartChar: kgreenlandic
Encoding: 312 312 246
Width: 1887
GlyphClass: 2
Flags: HMW
LayerCount: 2
Fore
SplineSet
979.786132812 1080 m 0
 975.361328125 995.8125 829.944335938 1044.94726562 822.849609375 910 c 2
 812.599609375 715 l 1
 867.452148438 715 881.981445312 724.02734375 912.333984375 748 c 2
 1173.16308594 954 l 2
 1194.0390625 969.500976562 1211.77148438 984.595703125 1213.10742188 1010 c 0
 1215.91894531 1063.49023438 1106.09082031 1066.75390625 1109.31054688 1128 c 0
 1117.09570312 1276.10644531 1306.91699219 1296 1455.14257812 1296 c 0
 1615.94238281 1296 1766.44921875 1282.82519531 1758.31054688 1128 c 0
 1752.99707031 1026.93261719 1528.52246094 1006.27539062 1464.16308594 954 c 2
 1308.48730469 827 l 1
 1597.30566406 367 l 2
 1630.12792969 315.161132812 1676.52929688 288.8671875 1749.81152344 281.5 c 128
 1796.66796875 276.7890625 1836.27636719 271.317382812 1833.52636719 219 c 0
 1823.51171875 28.513671875 1629.40234375 0 1433.01367188 0 c 0
 1313.48632812 0 1222.66699219 5.53125 1157.82714844 44 c 128
 1071.87695312 94.9921875 1089.60839844 222.724609375 1037.15234375 307 c 2
 900.612304688 525 l 1
 883.712890625 549.228515625 850.345703125 553 804.083007812 553 c 1
 795.252929688 385 l 2
 788.374023438 254.165039062 938.629882812 297.056640625 934.31640625 215 c 0
 924.4375 27.0869140625 687.095703125 0 464.013671875 0 c 0
 260.049804688 0 18.04296875 19.578125 28.31640625 215 c 0
 32.732421875 299.0078125 176.02734375 247.5546875 183.041992188 381 c 2
 211.060546875 914 l 2
 217.799804688 1042.20410156 69.494140625 998.348632812 73.7861328125 1080 c 0
 84.0283203125 1274.81933594 330.362304688 1295 532.088867188 1295 c 0
 755.46875 1295 989.668945312 1267.97363281 979.786132812 1080 c 0
EndSplineSet
EndChar

StartChar: Lslash
Encoding: 321 321 253
Width: 1579
GlyphClass: 2
Flags: HMW
LayerCount: 2
Fore
SplineSet
48.3916015625 651.5 m 128
 21.8251953125 681.45703125 10.404296875 761.625 48.4091796875 794.5 c 128
 73.4697265625 816.178710938 111.266601562 825.37890625 149.590820312 836 c 2
 1044.99609375 1072 l 2
 1128.47949219 1093.18066406 1199.68847656 1108.10546875 1219.15722656 1018 c 0
 1240.58496094 918.833984375 1163.39648438 902.62109375 1086.06152344 883 c 2
 190.655273438 647 l 2
 142.874023438 633.756835938 81.802734375 613.825195312 48.3916015625 651.5 c 128
622.383789062 1593 m 0
 848.486328125 1593 1123.40136719 1574.31542969 1112.03027344 1358 c 0
 1108.72363281 1295.07324219 1027.91113281 1306.00976562 989.404296875 1279.5 c 128
 960.584960938 1259.65917969 945.086914062 1225.89160156 942.358398438 1174 c 2
 897.568359375 360 l 2
 892.993164062 272.965820312 925.369140625 216 1007.99804688 216 c 0
 1040.62304688 216 1066.58984375 221.482421875 1105.47070312 225 c 1
 1155.61816406 399 l 1
 1192.1171875 503.041015625 1255.22460938 606 1383.5 606 c 0
 1492.33886719 606 1553.69238281 533.57421875 1547.93164062 424 c 0
 1537.26269531 221.032226562 1423.19921875 0 1222.64355469 0 c 2
 538.643554688 0 l 2
 315.23046875 0 48.791015625 21.822265625 60.0498046875 236 c 0
 63.3359375 298.512695312 143.401367188 288.150390625 181.676757812 314.5 c 128
 210.854492188 334.586914062 225.943359375 367.13671875 228.721679688 420 c 2
 268.358398438 1174 l 2
 272.053710938 1244.30371094 248.150390625 1283.94824219 195.32421875 1297 c 128
 158.463867188 1306.10742188 116.58203125 1311.41503906 119.030273438 1358 c 0
 130.20703125 1570.60253906 402.34765625 1593 622.383789062 1593 c 0
EndSplineSet
EndChar

StartChar: lslash
Encoding: 322 322 254
Width: 1238
GlyphClass: 2
Flags: HMW
LayerCount: 2
Fore
SplineSet
48.3916015625 951.5 m 128
 21.8251953125 981.45703125 10.404296875 1061.625 48.4091796875 1094.5 c 128
 73.4716796875 1116.17871094 111.268554688 1125.37890625 149.590820312 1136 c 2
 1044.99707031 1372 l 2
 1128.48046875 1393.18066406 1199.69042969 1408.10546875 1219.15820312 1318 c 0
 1240.58496094 1218.83398438 1163.3984375 1202.62109375 1086.06152344 1183 c 2
 190.655273438 947 l 2
 142.875 933.756835938 81.8037109375 913.825195312 48.3916015625 951.5 c 128
191.71484375 1671 m 0
 201.938476562 1865.48925781 447.78125 1886 649.017578125 1886 c 0
 800.215820312 1886 930.125976562 1883.97363281 946.208984375 1766 c 128
 950.298828125 1736 951.15234375 1698.33300781 948.76953125 1653 c 2
 882.11328125 385 l 2
 878.678710938 319.684570312 899.955078125 282.095703125 949.59375 270.5 c 128
 983.87109375 262.4921875 1022.421875 257.7265625 1020.17675781 215 c 0
 1010.29785156 27.0869140625 772.956054688 0 549.874023438 0 c 0
 346.465820312 0 104.924804688 19.986328125 115.176757812 215 c 0
 118.224609375 272.994140625 190.611328125 261.44921875 226.381835938 285.5 c 128
 253.50390625 303.735351562 266.353515625 332.51171875 268.90234375 381 c 2
 327.989257812 1505 l 2
 331.37109375 1569.359375 310.442382812 1605.2578125 261.32421875 1616 c 128
 226.856445312 1623.53808594 189.46875 1628.28515625 191.71484375 1671 c 0
EndSplineSet
Substitution2: "'smcp' Lowercase to Small Capitals in Latin lookup 1 subtable" lslash.sc
Substitution2: "'aalt' Access All Alternates in Latin lookup 0 subtable" lslash.sc
EndChar

